%TF.GenerationSoftware,KiCad,Pcbnew,(5.1.10-1-10_14)*%
%TF.CreationDate,2021-06-11T06:32:06+09:00*%
%TF.ProjectId,demo32,64656d6f-3332-42e6-9b69-6361645f7063,rev?*%
%TF.SameCoordinates,Original*%
%TF.FileFunction,Copper,L4,Bot*%
%TF.FilePolarity,Positive*%
%FSLAX46Y46*%
G04 Gerber Fmt 4.6, Leading zero omitted, Abs format (unit mm)*
G04 Created by KiCad (PCBNEW (5.1.10-1-10_14)) date 2021-06-11 06:32:06*
%MOMM*%
%LPD*%
G01*
G04 APERTURE LIST*
%TA.AperFunction,ComponentPad*%
%ADD10C,2.000000*%
%TD*%
%TA.AperFunction,ComponentPad*%
%ADD11C,5.700000*%
%TD*%
%TA.AperFunction,ComponentPad*%
%ADD12R,2.000000X2.000000*%
%TD*%
%TA.AperFunction,ComponentPad*%
%ADD13O,1.250000X1.050000*%
%TD*%
%TA.AperFunction,ComponentPad*%
%ADD14O,1.900000X1.000000*%
%TD*%
%TA.AperFunction,ComponentPad*%
%ADD15C,1.000000*%
%TD*%
%TA.AperFunction,ComponentPad*%
%ADD16C,3.500000*%
%TD*%
%TA.AperFunction,ComponentPad*%
%ADD17C,0.100000*%
%TD*%
%TA.AperFunction,ComponentPad*%
%ADD18C,2.540000*%
%TD*%
%TA.AperFunction,ViaPad*%
%ADD19C,0.800000*%
%TD*%
%TA.AperFunction,Conductor*%
%ADD20C,0.635000*%
%TD*%
%TA.AperFunction,Conductor*%
%ADD21C,0.250000*%
%TD*%
%TA.AperFunction,Conductor*%
%ADD22C,1.270000*%
%TD*%
%TA.AperFunction,Conductor*%
%ADD23C,0.304800*%
%TD*%
%TA.AperFunction,Conductor*%
%ADD24C,1.016000*%
%TD*%
%TA.AperFunction,Conductor*%
%ADD25C,0.457200*%
%TD*%
G04 APERTURE END LIST*
D10*
%TO.P,TPGND8,1*%
%TO.N,GND*%
X74930000Y-32385000D03*
%TD*%
%TO.P,TPGND7,1*%
%TO.N,GND*%
X200025000Y-40640000D03*
%TD*%
%TO.P,TPGND6,1*%
%TO.N,GND*%
X94615000Y-79375000D03*
%TD*%
%TO.P,TPGND5,1*%
%TO.N,GND*%
X133985000Y-42545000D03*
%TD*%
%TO.P,TPGND4,1*%
%TO.N,GND*%
X200025000Y-67945000D03*
%TD*%
%TO.P,TPGND3,1*%
%TO.N,GND*%
X217805000Y-99695000D03*
%TD*%
%TO.P,TPGND2,1*%
%TO.N,GND*%
X203835000Y-131445000D03*
%TD*%
D11*
%TO.P,H4,1*%
%TO.N,GND*%
X65000000Y-135000000D03*
%TD*%
%TO.P,H3,1*%
%TO.N,GND*%
X210000000Y-135000000D03*
%TD*%
%TO.P,H2,1*%
%TO.N,GND*%
X200000000Y-25000000D03*
%TD*%
%TO.P,H1,1*%
%TO.N,GND*%
X75000000Y-25000000D03*
%TD*%
D12*
%TO.P,J108,1*%
%TO.N,/EXTVIN-*%
X53975000Y-75565000D03*
D10*
%TO.P,J108,2*%
%TO.N,/EXTVIN+*%
X53975000Y-78105000D03*
%TO.P,J108,3*%
X53975000Y-80645000D03*
%TO.P,J108,4*%
%TO.N,/EXTVIN-*%
X53975000Y-83185000D03*
%TD*%
%TO.P,J10,2*%
%TO.N,/VLIPO-*%
X53975000Y-115570000D03*
D12*
%TO.P,J10,1*%
%TO.N,/VLIPO+*%
X53975000Y-113030000D03*
%TD*%
D10*
%TO.P,SW1,2*%
%TO.N,Net-(C13-Pad2)*%
X53340000Y-67945000D03*
%TO.P,SW1,1*%
%TO.N,GND*%
X53340000Y-63445000D03*
%TO.P,SW1,2*%
%TO.N,Net-(C13-Pad2)*%
X59840000Y-67945000D03*
%TO.P,SW1,1*%
%TO.N,GND*%
X59840000Y-63445000D03*
%TD*%
%TO.P,SW103,2*%
%TO.N,Net-(R15-Pad1)*%
X53340000Y-59055000D03*
%TO.P,SW103,1*%
%TO.N,+3V3*%
X53340000Y-54555000D03*
%TO.P,SW103,2*%
%TO.N,Net-(R15-Pad1)*%
X59840000Y-59055000D03*
%TO.P,SW103,1*%
%TO.N,+3V3*%
X59840000Y-54555000D03*
%TD*%
D13*
%TO.P,J9,6*%
%TO.N,GND*%
X55705000Y-91120000D03*
X55705000Y-95570000D03*
D14*
X52705000Y-89170000D03*
X52705000Y-97520000D03*
%TD*%
D10*
%TO.P,SW113,2*%
%TO.N,Net-(R113-Pad2)*%
X147848000Y-130810000D03*
%TO.P,SW113,1*%
%TO.N,GND*%
X143348000Y-130810000D03*
%TO.P,SW113,2*%
%TO.N,Net-(R113-Pad2)*%
X147848000Y-124310000D03*
%TO.P,SW113,1*%
%TO.N,GND*%
X143348000Y-124310000D03*
%TD*%
%TO.P,SW112,2*%
%TO.N,Net-(R112-Pad2)*%
X176585000Y-130810000D03*
%TO.P,SW112,1*%
%TO.N,GND*%
X172085000Y-130810000D03*
%TO.P,SW112,2*%
%TO.N,Net-(R112-Pad2)*%
X176585000Y-124310000D03*
%TO.P,SW112,1*%
%TO.N,GND*%
X172085000Y-124310000D03*
%TD*%
%TO.P,SW111,2*%
%TO.N,Net-(R111-Pad2)*%
X167060000Y-130810000D03*
%TO.P,SW111,1*%
%TO.N,GND*%
X162560000Y-130810000D03*
%TO.P,SW111,2*%
%TO.N,Net-(R111-Pad2)*%
X167060000Y-124310000D03*
%TO.P,SW111,1*%
%TO.N,GND*%
X162560000Y-124310000D03*
%TD*%
%TO.P,SW110,2*%
%TO.N,Net-(R110-Pad2)*%
X157535000Y-130810000D03*
%TO.P,SW110,1*%
%TO.N,GND*%
X153035000Y-130810000D03*
%TO.P,SW110,2*%
%TO.N,Net-(R110-Pad2)*%
X157535000Y-124310000D03*
%TO.P,SW110,1*%
%TO.N,GND*%
X153035000Y-124310000D03*
%TD*%
D15*
%TO.P,Y2,1*%
%TO.N,Net-(C11-Pad1)*%
X116835000Y-71120000D03*
%TO.P,Y2,2*%
%TO.N,Net-(C12-Pad1)*%
X114935000Y-71120000D03*
%TD*%
D10*
%TO.P,TPVLIPO1,1*%
%TO.N,/VLIPO+*%
X53975000Y-107315000D03*
%TD*%
%TO.P,TPVIN5,1*%
%TO.N,V+*%
X74930000Y-105410000D03*
%TD*%
%TO.P,TPVEXT1,1*%
%TO.N,/EXTVIN+*%
X76200000Y-75565000D03*
%TD*%
%TO.P,TPVBUS5,1*%
%TO.N,VBUS*%
X53975000Y-102235000D03*
%TD*%
%TO.P,TPMV3,1*%
%TO.N,/MCU_3V3*%
X102235000Y-103505000D03*
%TD*%
%TO.P,TPMV0,1*%
%TO.N,GNDM*%
X102235000Y-111125000D03*
%TD*%
%TO.P,TPGND1,1*%
%TO.N,GND*%
X53975000Y-135890000D03*
%TD*%
%TO.P,TPGLIPO1,1*%
%TO.N,/VLIPO-*%
X53975000Y-121920000D03*
%TD*%
%TO.P,TPGEXT1,1*%
%TO.N,/EXTVIN-*%
X76200000Y-83185000D03*
%TD*%
%TO.P,TP3V3,1*%
%TO.N,+3V3*%
X53975000Y-130810000D03*
%TD*%
%TO.P,TP2A1,1*%
%TO.N,/COIL_DRIVE*%
X197485000Y-84455000D03*
%TD*%
%TO.P,TP62,1*%
%TO.N,/OLED_SDA1*%
X177800000Y-99695000D03*
%TD*%
%TO.P,TP61,1*%
%TO.N,/OLED_SCL1*%
X177800000Y-95885000D03*
%TD*%
%TO.P,TP59,1*%
%TO.N,/ACCEL_SDA*%
X74930000Y-62230000D03*
%TD*%
%TO.P,TP58,1*%
%TO.N,/ACCEL_SCL*%
X78740000Y-60325000D03*
%TD*%
%TO.P,TP57,1*%
%TO.N,/ACCEL_AVDD*%
X78740000Y-56515000D03*
%TD*%
%TO.P,TP56,1*%
%TO.N,/LED_BLUE*%
X137160000Y-135255000D03*
%TD*%
%TO.P,TP54,1*%
%TO.N,/SDIO_CMD*%
X110490000Y-32385000D03*
%TD*%
%TO.P,TP53,1*%
%TO.N,/SDIO_CLK*%
X106045000Y-29845000D03*
%TD*%
%TO.P,TP52,1*%
%TO.N,/SDIO_D3*%
X106045000Y-37465000D03*
%TD*%
%TO.P,TP51,1*%
%TO.N,/SDIO_D2*%
X110490000Y-40005000D03*
%TD*%
%TO.P,TP50,1*%
%TO.N,/LED_YELLOW*%
X132080000Y-132715000D03*
%TD*%
%TO.P,TP49,1*%
%TO.N,/LED_GREEN*%
X137160000Y-127635000D03*
%TD*%
%TO.P,TP46,1*%
%TO.N,/LED_RED*%
X132080000Y-125095000D03*
%TD*%
%TO.P,TP41,1*%
%TO.N,/SDIO_SW*%
X110490000Y-47625000D03*
%TD*%
%TO.P,TP40,1*%
%TO.N,/SDIO_D1*%
X106045000Y-22225000D03*
%TD*%
%TO.P,TP39,1*%
%TO.N,/SDIO_D0*%
X110490000Y-24765000D03*
%TD*%
%TO.P,TP38,1*%
%TO.N,Net-(R117-Pad2)*%
X212090000Y-116205000D03*
%TD*%
%TO.P,TP37,1*%
%TO.N,Net-(R116-Pad2)*%
X208280000Y-114300000D03*
%TD*%
%TO.P,TP36,1*%
%TO.N,/MRAM_SI*%
X173355000Y-76835000D03*
%TD*%
%TO.P,TP35,1*%
%TO.N,/MRAM_SO*%
X168910000Y-74295000D03*
%TD*%
%TO.P,TP34,1*%
%TO.N,/MRAM_CLK*%
X168910000Y-62230000D03*
%TD*%
%TO.P,TP33,1*%
%TO.N,/MRAM_~CS*%
X173355000Y-59055000D03*
%TD*%
%TO.P,TP30,1*%
%TO.N,/SERIAL_RX3_SDA2*%
X181610000Y-55245000D03*
%TD*%
%TO.P,TP29,1*%
%TO.N,/SERIAL_TX3_SCL2*%
X181610000Y-51435000D03*
%TD*%
%TO.P,TP28,1*%
%TO.N,/ACCEL_INT*%
X74930000Y-58420000D03*
%TD*%
%TO.P,TP27,1*%
%TO.N,/MRAM_~HOLD*%
X177800000Y-62230000D03*
%TD*%
%TO.P,TP26,1*%
%TO.N,/MRAM_~WP*%
X177800000Y-74295000D03*
%TD*%
%TO.P,TP25,1*%
%TO.N,Net-(R115-Pad2)*%
X212090000Y-112395000D03*
%TD*%
%TO.P,TP24,1*%
%TO.N,Net-(R114-Pad2)*%
X208280000Y-110490000D03*
%TD*%
%TO.P,TP23,1*%
%TO.N,/SPI1_MOSI*%
X177165000Y-47625000D03*
%TD*%
%TO.P,TP22,1*%
%TO.N,/SPI1_MISO*%
X177165000Y-43815000D03*
%TD*%
%TO.P,TP21,1*%
%TO.N,/SPI1_SCK*%
X177165000Y-40005000D03*
%TD*%
%TO.P,TP20,1*%
%TO.N,/SPI1_~SS*%
X177165000Y-36195000D03*
%TD*%
%TO.P,TP17,1*%
%TO.N,/MSPI1_SCK_DAC2*%
X151765000Y-31115000D03*
%TD*%
%TO.P,TP16,1*%
%TO.N,/MSPI1_~SS~_DAC1*%
X151765000Y-27305000D03*
%TD*%
%TO.P,TP15,1*%
%TO.N,/MADC1*%
X101600000Y-48895000D03*
%TD*%
%TO.P,TP14,1*%
%TO.N,/MADC0*%
X101600000Y-45085000D03*
%TD*%
%TO.P,TP11,1*%
%TO.N,Net-(R113-Pad2)*%
X212090000Y-108585000D03*
%TD*%
%TO.P,TP10,1*%
%TO.N,Net-(R112-Pad2)*%
X208280000Y-106680000D03*
%TD*%
%TO.P,TP9,1*%
%TO.N,Net-(R111-Pad2)*%
X212090000Y-104775000D03*
%TD*%
%TO.P,TP8,1*%
%TO.N,Net-(R110-Pad2)*%
X208280000Y-102870000D03*
%TD*%
%TO.P,TP2,1*%
%TO.N,/RELAY*%
X173355000Y-81915000D03*
%TD*%
%TO.P,SW102,S2*%
%TO.N,GND*%
X199285000Y-112315000D03*
%TO.P,SW102,S1*%
%TO.N,Net-(R17-Pad2)*%
X199285000Y-107315000D03*
D16*
%TO.P,SW102,MP*%
%TO.N,N/C*%
X192285000Y-115415000D03*
X192285000Y-104215000D03*
D10*
%TO.P,SW102,B*%
%TO.N,Net-(R116-Pad2)*%
X184785000Y-112315000D03*
%TO.P,SW102,C*%
%TO.N,GND*%
X184785000Y-109815000D03*
D12*
%TO.P,SW102,A*%
%TO.N,Net-(R117-Pad2)*%
X184785000Y-107315000D03*
%TD*%
D10*
%TO.P,SW4,2*%
%TO.N,Net-(R115-Pad2)*%
X199445000Y-130810000D03*
%TO.P,SW4,1*%
%TO.N,GND*%
X194945000Y-130810000D03*
%TO.P,SW4,2*%
%TO.N,Net-(R115-Pad2)*%
X199445000Y-124310000D03*
%TO.P,SW4,1*%
%TO.N,GND*%
X194945000Y-124310000D03*
%TD*%
%TO.P,SW3,2*%
%TO.N,Net-(R114-Pad2)*%
X189920000Y-130810000D03*
%TO.P,SW3,1*%
%TO.N,GND*%
X185420000Y-130810000D03*
%TO.P,SW3,2*%
%TO.N,Net-(R114-Pad2)*%
X189920000Y-124310000D03*
%TO.P,SW3,1*%
%TO.N,GND*%
X185420000Y-124310000D03*
%TD*%
%TO.P,J109,6*%
%TO.N,GND*%
X243930256Y-53430256D03*
%TO.P,J109,5*%
%TO.N,/SPI1_MOSI*%
X242134205Y-51634205D03*
%TO.P,J109,4*%
%TO.N,/SPI1_MISO*%
X240338154Y-49838154D03*
%TO.P,J109,3*%
%TO.N,/SPI1_SCK*%
X238542102Y-48042102D03*
%TO.P,J109,2*%
%TO.N,/SPI1_~SS*%
X236746051Y-46246051D03*
%TA.AperFunction,ComponentPad*%
D17*
%TO.P,J109,1*%
%TO.N,+3V3*%
G36*
X233535786Y-44450000D02*
G01*
X234950000Y-43035786D01*
X236364214Y-44450000D01*
X234950000Y-45864214D01*
X233535786Y-44450000D01*
G37*
%TD.AperFunction*%
%TD*%
%TA.AperFunction,ComponentPad*%
%TO.P,J107,1*%
%TO.N,/KA.NC*%
G36*
X252730000Y-96375786D02*
G01*
X254144214Y-97790000D01*
X252730000Y-99204214D01*
X251315786Y-97790000D01*
X252730000Y-96375786D01*
G37*
%TD.AperFunction*%
D10*
%TO.P,J107,2*%
%TO.N,/KA.COM*%
X250933949Y-99586051D03*
%TO.P,J107,3*%
X249137898Y-101382102D03*
%TO.P,J107,4*%
%TO.N,/KA.NO*%
X247341846Y-103178154D03*
%TO.P,J107,5*%
%TO.N,/KB.NO*%
X245545795Y-104974205D03*
%TO.P,J107,6*%
%TO.N,/KB.COM*%
X243749744Y-106770256D03*
%TO.P,J107,7*%
X241953693Y-108566307D03*
%TO.P,J107,8*%
%TO.N,/KB.NC*%
X240157641Y-110362359D03*
%TO.P,J107,9*%
%TO.N,GND*%
X238361590Y-112158410D03*
%TD*%
%TA.AperFunction,ComponentPad*%
D17*
%TO.P,J106,1*%
%TO.N,/EXP0*%
G36*
X234315000Y-114790786D02*
G01*
X235729214Y-116205000D01*
X234315000Y-117619214D01*
X232900786Y-116205000D01*
X234315000Y-114790786D01*
G37*
%TD.AperFunction*%
D10*
%TO.P,J106,2*%
%TO.N,/EXP1*%
X232518949Y-118001051D03*
%TO.P,J106,3*%
%TO.N,/EXP2*%
X230722898Y-119797102D03*
%TO.P,J106,4*%
%TO.N,/EXP3*%
X228926846Y-121593154D03*
%TO.P,J106,5*%
%TO.N,/EXP4*%
X227130795Y-123389205D03*
%TO.P,J106,6*%
%TO.N,/EXP5*%
X225334744Y-125185256D03*
%TO.P,J106,7*%
%TO.N,/EXP6*%
X223538693Y-126981307D03*
%TO.P,J106,8*%
%TO.N,/EXP7*%
X221742641Y-128777359D03*
%TO.P,J106,9*%
%TO.N,GND*%
X219946590Y-130573410D03*
%TD*%
%TA.AperFunction,ComponentPad*%
D17*
%TO.P,J105,1*%
%TO.N,+3V3*%
G36*
X246235786Y-57150000D02*
G01*
X247650000Y-55735786D01*
X249064214Y-57150000D01*
X247650000Y-58564214D01*
X246235786Y-57150000D01*
G37*
%TD.AperFunction*%
D10*
%TO.P,J105,2*%
%TO.N,/SERIAL_TX3_SCL2*%
X249446051Y-58946051D03*
%TO.P,J105,3*%
%TO.N,/SERIAL_RX3_SDA2*%
X251242102Y-60742102D03*
%TO.P,J105,4*%
%TO.N,GND*%
X253038154Y-62538154D03*
%TD*%
D16*
%TO.P,J104,2*%
%TO.N,GND*%
X218573512Y-38000000D03*
%TO.P,J104,1*%
%TO.N,/OUT_DAC2_PWM2.4*%
X223000000Y-38000000D03*
%TO.P,J104,2*%
%TO.N,GND*%
X223000000Y-33573512D03*
X223000000Y-42426488D03*
X227426488Y-38000000D03*
%TD*%
%TO.P,J103,2*%
%TO.N,GND*%
X209573512Y-29000000D03*
%TO.P,J103,1*%
%TO.N,/OUT_DAC1_PWM2.3*%
X214000000Y-29000000D03*
%TO.P,J103,2*%
%TO.N,GND*%
X214000000Y-24573512D03*
X214000000Y-33426488D03*
X218426488Y-29000000D03*
%TD*%
%TO.P,J102,2*%
%TO.N,GND*%
X53385000Y-38145000D03*
%TO.P,J102,1*%
%TO.N,/IN_ADC1*%
X56515000Y-41275000D03*
%TO.P,J102,2*%
%TO.N,GND*%
X59645000Y-38145000D03*
X53385000Y-44405000D03*
X59645000Y-44405000D03*
%TD*%
%TO.P,J101,2*%
%TO.N,GND*%
X53385000Y-23540000D03*
%TO.P,J101,1*%
%TO.N,/IN_ADC0*%
X56515000Y-26670000D03*
%TO.P,J101,2*%
%TO.N,GND*%
X59645000Y-23540000D03*
X53385000Y-29800000D03*
X59645000Y-29800000D03*
%TD*%
D10*
%TO.P,BT101,3*%
%TO.N,Net-(BT101-Pad2)*%
X94730000Y-125730000D03*
D18*
%TO.P,BT101,1*%
%TO.N,GND*%
X67830000Y-127000000D03*
D10*
%TO.P,BT101,2*%
%TO.N,Net-(BT101-Pad2)*%
X94730000Y-128270000D03*
%TD*%
D12*
%TO.P,A101,1*%
%TO.N,GND*%
X142240000Y-113665000D03*
D10*
%TO.P,A101,2*%
%TO.N,+3V3*%
X142240000Y-111125000D03*
%TO.P,A101,3*%
%TO.N,/OLED_SCL1*%
X142240000Y-108585000D03*
%TO.P,A101,4*%
%TO.N,/OLED_SDA1*%
X142240000Y-106045000D03*
%TD*%
D19*
%TO.N,GND*%
X70993000Y-81915000D03*
X70993000Y-84455000D03*
X72136000Y-84455000D03*
X72136000Y-81915000D03*
X70993000Y-116840000D03*
X72136000Y-116840000D03*
X70993000Y-119380000D03*
X72136000Y-119380000D03*
X66802000Y-102235000D03*
X68072000Y-102235000D03*
X77469994Y-110235994D03*
X85471000Y-114808000D03*
X83439000Y-114807964D03*
X83439000Y-113919000D03*
X85471000Y-113919000D03*
X84455000Y-100584000D03*
X84455000Y-99695000D03*
X92075000Y-116840000D03*
X84518500Y-58420000D03*
X84518500Y-56515000D03*
X75057000Y-69215000D03*
X66802000Y-69215000D03*
X79120998Y-110236000D03*
X177038000Y-120650000D03*
X167386000Y-120650000D03*
X157988000Y-120650000D03*
X147828000Y-120650000D03*
X170497500Y-81915000D03*
X185420000Y-91440000D03*
X102997000Y-22479000D03*
X86385000Y-23470000D03*
X86364000Y-33270000D03*
X99290000Y-38965000D03*
X91059000Y-40640000D03*
X87630000Y-38989000D03*
X166052500Y-24130000D03*
X166052500Y-26035000D03*
X166052500Y-32385000D03*
X166116000Y-34290000D03*
X91821000Y-62230000D03*
X96393000Y-57594500D03*
X96456500Y-62039500D03*
X52705000Y-92329000D03*
X52705000Y-94361000D03*
X91821000Y-58102500D03*
X89154000Y-109855000D03*
X89154000Y-112395000D03*
X155702000Y-70485000D03*
%TO.N,+3V3*%
X89154000Y-100584000D03*
X89154000Y-99695000D03*
X89154000Y-102235000D03*
X89154000Y-104775000D03*
X84518500Y-62230000D03*
X84518500Y-60325000D03*
X66802000Y-71120000D03*
X129794000Y-120015000D03*
X129794000Y-117475000D03*
X129794000Y-112268000D03*
X129794000Y-109728000D03*
X129794000Y-104648000D03*
X129794000Y-103378000D03*
X129794000Y-97028000D03*
X129794000Y-94615000D03*
X200914000Y-100965000D03*
X170561000Y-99060000D03*
X170561000Y-96520000D03*
X164338000Y-66675000D03*
X95631000Y-40640000D03*
X170497500Y-52070000D03*
X170497500Y-54610000D03*
X95115000Y-62031500D03*
%TO.N,/MCU_3V3*%
X136271000Y-57023000D03*
X130048000Y-81915000D03*
X123380500Y-65913000D03*
X136779000Y-76200000D03*
X143891000Y-69215000D03*
%TO.N,VBAT*%
X96837500Y-116840000D03*
X96837500Y-118745000D03*
X120459500Y-70104000D03*
%TO.N,+3V3A*%
X125285500Y-84264500D03*
X125285500Y-83121500D03*
X125285500Y-81915000D03*
X130746500Y-72453500D03*
%TO.N,V+*%
X70739000Y-76835000D03*
X72136000Y-76835000D03*
X70738998Y-74295000D03*
X72136000Y-74295000D03*
X201549000Y-83947000D03*
X170307000Y-137922000D03*
X172085000Y-137922000D03*
X173863000Y-137922000D03*
%TO.N,/OUT_DAC2_PWM2.4*%
X171259500Y-32385000D03*
%TO.N,/BLUE_OTGEN*%
X78229500Y-109407394D03*
X98425000Y-131318000D03*
%TO.N,/SDIO_D2*%
X98171000Y-39751000D03*
%TO.N,/SDIO_D3*%
X96647000Y-39751000D03*
%TO.N,/SDIO_CMD*%
X95504000Y-39116000D03*
%TO.N,/SDIO_CLK*%
X93218000Y-39116000D03*
%TO.N,/SDIO_D0*%
X89789000Y-39751000D03*
%TO.N,/SDIO_D1*%
X88519000Y-39751000D03*
%TO.N,/IN_ADC0*%
X83820000Y-45720000D03*
%TO.N,/IN_ADC1*%
X83820000Y-48260000D03*
%TO.N,/OUT_DAC1_PWM2.3*%
X171259500Y-26035000D03*
%TO.N,/EXP0*%
X220980000Y-102870000D03*
%TO.N,/EXP1*%
X220599000Y-104775000D03*
%TO.N,/EXP2*%
X220281500Y-106680000D03*
%TO.N,/EXP3*%
X220027500Y-108585000D03*
%TO.N,/EXP4*%
X219964000Y-110490000D03*
%TO.N,/EXP5*%
X219964000Y-112395000D03*
%TO.N,/EXP6*%
X219773500Y-114300000D03*
%TO.N,/EXP7*%
X219646500Y-116205000D03*
%TO.N,/COIL*%
X214185500Y-83185000D03*
X164846000Y-84455000D03*
%TO.N,VLIPO*%
X67056000Y-104140000D03*
X67945000Y-107569000D03*
X67945000Y-113284000D03*
%TO.N,Net-(R17-Pad2)*%
X196342000Y-100965000D03*
X126111000Y-61087000D03*
X123952000Y-92646500D03*
%TO.N,Net-(R110-Pad2)*%
X135001000Y-97790000D03*
X202692000Y-126619000D03*
%TO.N,Net-(R111-Pad2)*%
X133604000Y-99187000D03*
X204089000Y-126619000D03*
%TO.N,Net-(R112-Pad2)*%
X132334000Y-100584000D03*
X205359000Y-126619000D03*
%TO.N,Net-(R113-Pad2)*%
X125730000Y-107061000D03*
X206502000Y-126619000D03*
X143764000Y-134810500D03*
%TO.N,Net-(R114-Pad2)*%
X207772000Y-126619000D03*
X123317000Y-109855000D03*
%TO.N,Net-(R115-Pad2)*%
X123317000Y-112395000D03*
X208915000Y-126619000D03*
%TO.N,/MADC0*%
X109212439Y-79652214D03*
%TO.N,/MADC1*%
X107950000Y-79756000D03*
%TO.N,/MSPI1_~SS~_DAC1*%
X134175500Y-76581000D03*
X154559000Y-27940000D03*
X154559000Y-36830000D03*
%TO.N,/MSPI1_SCK_DAC2*%
X134175500Y-77724000D03*
X135953500Y-74612500D03*
X154559000Y-30480000D03*
X154559000Y-39370000D03*
%TO.N,/MRAM_~WP*%
X168211500Y-66675000D03*
X155702000Y-69215000D03*
%TO.N,/MRAM_CLK*%
X164338000Y-69215000D03*
%TO.N,/COIL_DRIVE*%
X155067000Y-84455000D03*
%TO.N,/MRELAY*%
X123825000Y-70866000D03*
X123190000Y-82613500D03*
%TO.N,/MEXP0*%
X111442500Y-94615000D03*
X119062500Y-79502000D03*
%TO.N,/MEXP1*%
X111442500Y-97155000D03*
X120142000Y-79502000D03*
%TO.N,/MEXP2*%
X111442500Y-102235000D03*
X121221500Y-79502000D03*
%TO.N,/MEXP3*%
X122301000Y-79502000D03*
X111442500Y-104775000D03*
%TO.N,/MSPI1_MISO*%
X135699500Y-69151500D03*
X154940000Y-44450000D03*
%TO.N,/MSPI1_MOSI*%
X135699500Y-70231000D03*
X154940000Y-46990000D03*
%TO.N,/MEXP4*%
X136779000Y-73533000D03*
X111506000Y-109855000D03*
%TO.N,/MEXP5*%
X111506000Y-112395000D03*
X137731500Y-73152000D03*
%TO.N,/MSERIAL_TX3_SCL2*%
X140271500Y-72263000D03*
X154876500Y-52070000D03*
%TO.N,/MSERIAL_RX3_SDA2*%
X141224000Y-71437500D03*
X154876500Y-54673500D03*
%TO.N,/MEXP6*%
X111506000Y-117475000D03*
X142113000Y-64643000D03*
%TO.N,/MEXP7*%
X111506000Y-120015000D03*
X143510000Y-64643000D03*
%TO.N,/MSDIO_D0*%
X125603000Y-24765000D03*
X140144500Y-60452000D03*
%TO.N,/MSDIO_D1*%
X124587000Y-22098000D03*
X139128500Y-60515500D03*
%TO.N,/MSDIO_SW*%
X128778000Y-47625000D03*
X138049000Y-60515500D03*
%TO.N,/MUSB_VBUS*%
X136779000Y-61087000D03*
X132651500Y-90741500D03*
%TO.N,/MUSB_ID*%
X135890000Y-61595000D03*
X132651500Y-89598500D03*
%TO.N,/MUSB_DM*%
X133567010Y-63822811D03*
X130429000Y-90614500D03*
%TO.N,/MUSB_DP*%
X132836808Y-63112769D03*
X130429000Y-89598500D03*
%TO.N,/MLED_RED*%
X111506000Y-125095000D03*
X135890000Y-60579000D03*
%TO.N,/MLED_GREEN*%
X111506000Y-127635000D03*
X130302000Y-59690000D03*
%TO.N,/MLED_YELLOW*%
X111506000Y-132715000D03*
X129413000Y-59182000D03*
%TO.N,/MSDIO_D2*%
X127762000Y-59245500D03*
X127762000Y-40005000D03*
%TO.N,/MSDIO_D3*%
X126746000Y-59309000D03*
X126746000Y-37465000D03*
%TO.N,/MSDIO_CLK*%
X125666500Y-59309000D03*
X125666500Y-29845000D03*
%TO.N,/MSDIO_CMD*%
X124587000Y-59309000D03*
X124587000Y-32385000D03*
%TO.N,/MLED_BLUE*%
X111506000Y-135255000D03*
X126809500Y-61976000D03*
%TO.N,/MOLED_SCL1*%
X117856000Y-87249000D03*
X123380500Y-63182500D03*
%TO.N,/MOLED_SDA1*%
X116522500Y-87376000D03*
X122237500Y-64135000D03*
%TO.N,GNDM*%
X118237000Y-67564010D03*
X118237000Y-65024000D03*
X109855000Y-72390000D03*
X109855000Y-74930000D03*
X109855000Y-77470000D03*
X130048006Y-83121500D03*
X130048000Y-84261956D03*
X124079000Y-65151000D03*
X130048000Y-71437500D03*
X141160500Y-59055000D03*
X131127500Y-75755500D03*
X141097000Y-57912000D03*
X109855000Y-70993000D03*
X141224000Y-76835000D03*
X146812000Y-70485000D03*
X146812000Y-72390000D03*
X136271000Y-77343000D03*
X126619000Y-67945000D03*
%TO.N,/ACCEL_SCL*%
X88900000Y-60325000D03*
X88900000Y-63499998D03*
%TO.N,/ACCEL_INT*%
X88900000Y-58420000D03*
X88900000Y-53340000D03*
%TO.N,/KA.NO*%
X213931500Y-90805000D03*
%TO.N,/KA.COM*%
X213995000Y-88265000D03*
%TO.N,/KA.NC*%
X213995000Y-85725000D03*
%TO.N,/KB.NO*%
X202565000Y-90805000D03*
%TO.N,/KB.COM*%
X202692000Y-88265000D03*
%TO.N,/KB.NC*%
X202692000Y-85725000D03*
%TD*%
D20*
%TO.N,/OLED_SCL1*%
X177800000Y-95948500D02*
X177800000Y-95885000D01*
X140271500Y-102870000D02*
X141414500Y-101727000D01*
X142240000Y-108585000D02*
X140906500Y-108585000D01*
X140271500Y-107950000D02*
X140271500Y-102870000D01*
X141414500Y-101727000D02*
X170053000Y-101727000D01*
X140906500Y-108585000D02*
X140271500Y-107950000D01*
X170053000Y-101727000D02*
X171323000Y-101727000D01*
X171958000Y-101727000D02*
X177800000Y-95885000D01*
X171323000Y-101727000D02*
X171958000Y-101727000D01*
%TO.N,VBAT*%
X96837500Y-118745000D02*
X96837500Y-116840000D01*
D21*
X102870000Y-116840000D02*
X96837500Y-116840000D01*
X107188000Y-112522000D02*
X102870000Y-116840000D01*
X107188000Y-83375500D02*
X107188000Y-112522000D01*
X120459500Y-70104000D02*
X107188000Y-83375500D01*
D22*
%TO.N,V+*%
X171323000Y-137922000D02*
X170307000Y-137922000D01*
X172085000Y-137922000D02*
X171323000Y-137922000D01*
X173863000Y-137922000D02*
X172085000Y-137922000D01*
X196913500Y-88582500D02*
X201549000Y-83947000D01*
X201803000Y-99885500D02*
X196913500Y-94996000D01*
X211455000Y-99885500D02*
X201803000Y-99885500D01*
X215138000Y-103568500D02*
X211455000Y-99885500D01*
X215138000Y-123317000D02*
X215138000Y-103568500D01*
X196913500Y-94996000D02*
X196913500Y-88582500D01*
X200533000Y-137922000D02*
X215138000Y-123317000D01*
X173863000Y-137922000D02*
X200533000Y-137922000D01*
D20*
%TO.N,/OUT_DAC2_PWM2.4*%
X206311500Y-32385000D02*
X175260000Y-32385000D01*
X216027000Y-42100500D02*
X206311500Y-32385000D01*
X175260000Y-32385000D02*
X171259500Y-32385000D01*
X218884500Y-42100500D02*
X216027000Y-42100500D01*
X222985000Y-38000000D02*
X218884500Y-42100500D01*
D21*
%TO.N,/BLUE_OTGEN*%
X98425000Y-131318000D02*
X93218000Y-131318000D01*
X78229500Y-116329500D02*
X78229500Y-109407394D01*
X93218000Y-131318000D02*
X78229500Y-116329500D01*
D23*
%TO.N,/SDIO_D2*%
X98425000Y-40005000D02*
X110490000Y-40005000D01*
X98171000Y-39751000D02*
X98425000Y-40005000D01*
%TO.N,/SDIO_D3*%
X97790000Y-37465000D02*
X106045000Y-37465000D01*
X96647000Y-38608000D02*
X97790000Y-37465000D01*
X96647000Y-39751000D02*
X96647000Y-38608000D01*
%TO.N,/SDIO_CMD*%
X95504000Y-39116000D02*
X95504000Y-37211000D01*
X95504000Y-37211000D02*
X100330000Y-32385000D01*
X100330000Y-32385000D02*
X110490000Y-32385000D01*
%TO.N,/SDIO_CLK*%
X93218000Y-39116000D02*
X93218000Y-37846000D01*
X93218000Y-37846000D02*
X101219000Y-29845000D01*
X101219000Y-29845000D02*
X106045000Y-29845000D01*
%TO.N,/SDIO_D0*%
X89789000Y-39751000D02*
X104775000Y-24765000D01*
X104775000Y-24765000D02*
X110490000Y-24765000D01*
%TO.N,/SDIO_D1*%
X88519000Y-39751000D02*
X106045000Y-22225000D01*
D20*
%TO.N,/IN_ADC0*%
X71628000Y-45720000D02*
X83820000Y-45720000D01*
X65151000Y-39243000D02*
X71628000Y-45720000D01*
X65151000Y-28321000D02*
X65151000Y-39243000D01*
X63500000Y-26670000D02*
X65151000Y-28321000D01*
X56515000Y-26670000D02*
X63500000Y-26670000D01*
%TO.N,/IN_ADC1*%
X70358000Y-48260000D02*
X83820000Y-48260000D01*
X63373000Y-41275000D02*
X70358000Y-48260000D01*
X56515000Y-41275000D02*
X63373000Y-41275000D01*
%TO.N,/OUT_DAC1_PWM2.3*%
X175260000Y-26035000D02*
X171259500Y-26035000D01*
X206565500Y-30480000D02*
X179705000Y-30480000D01*
X208724500Y-32639000D02*
X206565500Y-30480000D01*
X214000000Y-29078000D02*
X210439000Y-32639000D01*
X210439000Y-32639000D02*
X208724500Y-32639000D01*
X179705000Y-30480000D02*
X175260000Y-26035000D01*
%TO.N,/SERIAL_TX3_SCL2*%
X188150500Y-50800000D02*
X181546500Y-50800000D01*
X200787000Y-63436500D02*
X188150500Y-50800000D01*
X244983000Y-63436500D02*
X200787000Y-63436500D01*
X249446051Y-58973449D02*
X244983000Y-63436500D01*
X249446051Y-58946051D02*
X249446051Y-58973449D01*
%TO.N,/SERIAL_RX3_SDA2*%
X189515750Y-54610000D02*
X181610000Y-54610000D01*
X199929750Y-65024000D02*
X189515750Y-54610000D01*
X246888000Y-65024000D02*
X199929750Y-65024000D01*
X251169898Y-60742102D02*
X246888000Y-65024000D01*
X251242102Y-60742102D02*
X251169898Y-60742102D01*
%TO.N,/EXP0*%
X232854500Y-114744500D02*
X234315000Y-116205000D01*
X220980000Y-102870000D02*
X232854500Y-114744500D01*
%TO.N,/EXP1*%
X231076500Y-115252500D02*
X231076500Y-116586000D01*
X231076500Y-116586000D02*
X232473500Y-117983000D01*
X220599000Y-104775000D02*
X231076500Y-115252500D01*
X232473500Y-117983000D02*
X232537000Y-117983000D01*
%TO.N,/EXP2*%
X229298500Y-118364000D02*
X230759000Y-119824500D01*
X229298500Y-115697000D02*
X229298500Y-118364000D01*
X220281500Y-106680000D02*
X229298500Y-115697000D01*
%TO.N,/EXP3*%
X227457000Y-120205500D02*
X228917500Y-121666000D01*
X227457000Y-116014500D02*
X227457000Y-120205500D01*
X220027500Y-108585000D02*
X227457000Y-116014500D01*
%TO.N,/EXP4*%
X225679000Y-121983500D02*
X227139500Y-123444000D01*
X225679000Y-116205000D02*
X225679000Y-121983500D01*
X219964000Y-110490000D02*
X225679000Y-116205000D01*
%TO.N,/EXP5*%
X223964500Y-123634500D02*
X225361500Y-125031500D01*
X223964500Y-116395500D02*
X223964500Y-123634500D01*
X225361500Y-125031500D02*
X225361500Y-125222000D01*
X219964000Y-112395000D02*
X223964500Y-116395500D01*
%TO.N,/EXP6*%
X222059500Y-116586000D02*
X222059500Y-125603000D01*
X222059500Y-125603000D02*
X223520000Y-127063500D01*
X219773500Y-114300000D02*
X222059500Y-116586000D01*
%TO.N,/EXP7*%
X220345000Y-127381000D02*
X221742000Y-128778000D01*
X220345000Y-116903500D02*
X220345000Y-127381000D01*
X219646500Y-116205000D02*
X220345000Y-116903500D01*
D24*
%TO.N,/EXTVIN-*%
X76200000Y-83185000D02*
X53975000Y-83185000D01*
%TO.N,/EXTVIN+*%
X53975000Y-78105000D02*
X60579000Y-78105000D01*
X60579000Y-78105000D02*
X63119000Y-75565000D01*
X63119000Y-75565000D02*
X76200000Y-75565000D01*
D20*
%TO.N,/SPI1_MOSI*%
X203200000Y-55943500D02*
X194881500Y-47625000D01*
X237871000Y-55943500D02*
X203200000Y-55943500D01*
X242134205Y-51680295D02*
X237871000Y-55943500D01*
X194881500Y-47625000D02*
X177165000Y-47625000D01*
X242134205Y-51634205D02*
X242134205Y-51680295D01*
%TO.N,/SPI1_MISO*%
X204089000Y-54165500D02*
X193738500Y-43815000D01*
X236029500Y-54165500D02*
X204089000Y-54165500D01*
X193738500Y-43815000D02*
X177165000Y-43815000D01*
X240338154Y-49856846D02*
X236029500Y-54165500D01*
X240338154Y-49838154D02*
X240338154Y-49856846D01*
%TO.N,/SPI1_SCK*%
X192595500Y-40005000D02*
X177101500Y-40005000D01*
X234061000Y-52514500D02*
X205105000Y-52514500D01*
X205105000Y-52514500D02*
X192595500Y-40005000D01*
X238533398Y-48042102D02*
X234061000Y-52514500D01*
X238542102Y-48042102D02*
X238533398Y-48042102D01*
%TO.N,/SPI1_~SS*%
X191452500Y-36195000D02*
X177228500Y-36195000D01*
X205994000Y-50736500D02*
X191452500Y-36195000D01*
X232283000Y-50736500D02*
X205994000Y-50736500D01*
X236746051Y-46273449D02*
X232283000Y-50736500D01*
X236746051Y-46246051D02*
X236746051Y-46273449D01*
D25*
%TO.N,/COIL*%
X178625500Y-81343500D02*
X212344000Y-81343500D01*
X164846000Y-84455000D02*
X171450000Y-84455000D01*
X172085000Y-85090000D02*
X174879000Y-85090000D01*
X171450000Y-84455000D02*
X172085000Y-85090000D01*
X212344000Y-81343500D02*
X214185500Y-83185000D01*
X174879000Y-85090000D02*
X178625500Y-81343500D01*
D20*
%TO.N,Net-(R17-Pad2)*%
X199285000Y-107315000D02*
X199285000Y-103908000D01*
X199285000Y-103908000D02*
X196342000Y-100965000D01*
D21*
X126047500Y-66738500D02*
X126047500Y-61150500D01*
X122936000Y-69850000D02*
X126047500Y-66738500D01*
X122936000Y-78232000D02*
X122936000Y-69850000D01*
X123126500Y-78422500D02*
X122936000Y-78232000D01*
X126047500Y-61150500D02*
X126111000Y-61087000D01*
X123952000Y-92646500D02*
X123952000Y-87884000D01*
X122428000Y-80772000D02*
X123126500Y-80073500D01*
X122428000Y-86360000D02*
X122428000Y-80772000D01*
X123952000Y-87884000D02*
X122428000Y-86360000D01*
X123126500Y-80073500D02*
X123126500Y-78422500D01*
%TO.N,Net-(R110-Pad2)*%
X157535000Y-130755000D02*
X157535000Y-130810000D01*
X161544000Y-126746000D02*
X157535000Y-130755000D01*
X202565000Y-126746000D02*
X161544000Y-126746000D01*
X202692000Y-126619000D02*
X202565000Y-126746000D01*
X141097000Y-122174000D02*
X135001000Y-116078000D01*
X141097000Y-131254500D02*
X141097000Y-122174000D01*
X135001000Y-116078000D02*
X135001000Y-97790000D01*
X155575000Y-132842000D02*
X142684500Y-132842000D01*
X142684500Y-132842000D02*
X141097000Y-131254500D01*
X157607000Y-130810000D02*
X155575000Y-132842000D01*
%TO.N,Net-(R111-Pad2)*%
X170561000Y-127381000D02*
X167132000Y-130810000D01*
X167132000Y-130810000D02*
X167060000Y-130810000D01*
X203327000Y-127381000D02*
X170561000Y-127381000D01*
X204089000Y-126619000D02*
X203327000Y-127381000D01*
X164528500Y-133413500D02*
X167060000Y-130882000D01*
X142240000Y-133413500D02*
X164528500Y-133413500D01*
X140335000Y-131508500D02*
X142240000Y-133413500D01*
X140335000Y-122936000D02*
X140335000Y-131508500D01*
X133604000Y-116205000D02*
X140335000Y-122936000D01*
X133604000Y-99187000D02*
X133604000Y-116205000D01*
%TO.N,Net-(R112-Pad2)*%
X176585000Y-130755000D02*
X176585000Y-130810000D01*
X179324000Y-128016000D02*
X176585000Y-130755000D01*
X203962000Y-128016000D02*
X179324000Y-128016000D01*
X205359000Y-126619000D02*
X203962000Y-128016000D01*
X173418500Y-133921500D02*
X176530000Y-130810000D01*
X132334000Y-100584000D02*
X132334000Y-116332000D01*
X139319000Y-131445000D02*
X141795500Y-133921500D01*
X141795500Y-133921500D02*
X173418500Y-133921500D01*
X139319000Y-123317000D02*
X139319000Y-131445000D01*
X132334000Y-116332000D02*
X139319000Y-123317000D01*
%TO.N,Net-(R113-Pad2)*%
X147848000Y-130790000D02*
X147848000Y-130810000D01*
X152527000Y-126111000D02*
X147848000Y-130790000D01*
X201676000Y-126111000D02*
X152527000Y-126111000D01*
X202311000Y-125476000D02*
X201676000Y-126111000D01*
X205359000Y-125476000D02*
X202311000Y-125476000D01*
X206502000Y-126619000D02*
X205359000Y-125476000D01*
X125730000Y-121031000D02*
X125730000Y-107061000D01*
X134620000Y-129921000D02*
X125730000Y-121031000D01*
X136842500Y-129921000D02*
X134620000Y-129921000D01*
X141732000Y-134810500D02*
X136842500Y-129921000D01*
X143764000Y-134810500D02*
X141732000Y-134810500D01*
%TO.N,Net-(R114-Pad2)*%
X192659000Y-128524000D02*
X205867000Y-128524000D01*
X190373000Y-130810000D02*
X192659000Y-128524000D01*
X205867000Y-128524000D02*
X207772000Y-126619000D01*
X189920000Y-130810000D02*
X190373000Y-130810000D01*
X187198000Y-133350000D02*
X189594000Y-130954000D01*
X175514000Y-133350000D02*
X187198000Y-133350000D01*
X172974000Y-135890000D02*
X175514000Y-133350000D01*
X141859000Y-135890000D02*
X172974000Y-135890000D01*
X136652000Y-130683000D02*
X141859000Y-135890000D01*
X134366000Y-130683000D02*
X136652000Y-130683000D01*
X125031500Y-121348500D02*
X134366000Y-130683000D01*
X125031500Y-111569500D02*
X125031500Y-121348500D01*
X123317000Y-109855000D02*
X125031500Y-111569500D01*
%TO.N,Net-(R115-Pad2)*%
X206375000Y-129159000D02*
X208915000Y-126619000D01*
X201168000Y-129159000D02*
X206375000Y-129159000D01*
X199517000Y-130810000D02*
X201168000Y-129159000D01*
X199445000Y-130810000D02*
X199517000Y-130810000D01*
X124333000Y-121602500D02*
X124333000Y-113411000D01*
X134112000Y-131381500D02*
X124333000Y-121602500D01*
X136398000Y-131381500D02*
X134112000Y-131381500D01*
X141541500Y-136525000D02*
X136398000Y-131381500D01*
X196342000Y-133985000D02*
X176403000Y-133985000D01*
X173863000Y-136525000D02*
X141541500Y-136525000D01*
X176403000Y-133985000D02*
X173863000Y-136525000D01*
X124333000Y-113411000D02*
X123317000Y-112395000D01*
X199445000Y-130882000D02*
X196342000Y-133985000D01*
D20*
%TO.N,Net-(R116-Pad2)*%
X196723000Y-114300000D02*
X208280000Y-114300000D01*
X194738000Y-112315000D02*
X196723000Y-114300000D01*
X184785000Y-112315000D02*
X194738000Y-112315000D01*
%TO.N,Net-(R117-Pad2)*%
X196596000Y-116205000D02*
X212090000Y-116205000D01*
X194691000Y-118110000D02*
X196596000Y-116205000D01*
X181864000Y-112649000D02*
X187325000Y-118110000D01*
X187325000Y-118110000D02*
X194691000Y-118110000D01*
X181864000Y-108458000D02*
X181864000Y-112649000D01*
X183007000Y-107315000D02*
X181864000Y-108458000D01*
X184785000Y-107315000D02*
X183007000Y-107315000D01*
D21*
%TO.N,/MADC0*%
X109120967Y-79560742D02*
X109212439Y-79652214D01*
X101600000Y-45085000D02*
X109120967Y-52605967D01*
X109120967Y-52605967D02*
X109120967Y-79560742D01*
%TO.N,/MADC1*%
X101600000Y-48895000D02*
X107950000Y-55245000D01*
X107950000Y-55245000D02*
X107950000Y-79756000D01*
%TO.N,/MSPI1_~SS~_DAC1*%
X146304000Y-32766000D02*
X151765000Y-27305000D01*
X146304000Y-57721500D02*
X146304000Y-32766000D01*
X142748000Y-61277500D02*
X146304000Y-57721500D01*
X139192000Y-61277500D02*
X142748000Y-61277500D01*
X133921500Y-66548000D02*
X139192000Y-61277500D01*
X133921500Y-76327000D02*
X133921500Y-66548000D01*
X134175500Y-76581000D02*
X133921500Y-76327000D01*
X153797000Y-28702000D02*
X154559000Y-27940000D01*
X153797000Y-36068000D02*
X153797000Y-28702000D01*
X154559000Y-36830000D02*
X153797000Y-36068000D01*
%TO.N,/MSPI1_SCK_DAC2*%
X135318500Y-76581000D02*
X134175500Y-77724000D01*
X135318500Y-75247500D02*
X135318500Y-76581000D01*
X135953500Y-74612500D02*
X135318500Y-75247500D01*
X146939000Y-35941000D02*
X151765000Y-31115000D01*
X146939000Y-57912000D02*
X146939000Y-35941000D01*
X143065500Y-61785500D02*
X146939000Y-57912000D01*
X135953500Y-73914000D02*
X134429500Y-72390000D01*
X134429500Y-72390000D02*
X134429500Y-66802000D01*
X139446000Y-61785500D02*
X143065500Y-61785500D01*
X134429500Y-66802000D02*
X139446000Y-61785500D01*
X135953500Y-74612500D02*
X135953500Y-73914000D01*
X155448000Y-31369000D02*
X154559000Y-30480000D01*
X155448000Y-38481000D02*
X155448000Y-31369000D01*
X154559000Y-39370000D02*
X155448000Y-38481000D01*
%TO.N,/MRAM_~WP*%
X173990000Y-70485000D02*
X177800000Y-74295000D01*
X168211500Y-70421500D02*
X168148000Y-70485000D01*
X168211500Y-66675000D02*
X168211500Y-70421500D01*
X168148000Y-70485000D02*
X173990000Y-70485000D01*
X163131500Y-70485000D02*
X168148000Y-70485000D01*
X161861500Y-69215000D02*
X163131500Y-70485000D01*
X155702000Y-69215000D02*
X161861500Y-69215000D01*
%TO.N,/MRAM_CLK*%
X168973500Y-64008000D02*
X168973500Y-62293500D01*
X164338000Y-68643500D02*
X168973500Y-64008000D01*
X164338000Y-69215000D02*
X164338000Y-68643500D01*
D25*
%TO.N,/COIL_DRIVE*%
X196342000Y-83185000D02*
X197485000Y-84328000D01*
X155067000Y-84455000D02*
X159512000Y-84455000D01*
X183388000Y-83185000D02*
X196342000Y-83185000D01*
X180403500Y-86169500D02*
X183388000Y-83185000D01*
X161226500Y-86169500D02*
X180403500Y-86169500D01*
X159512000Y-84455000D02*
X161226500Y-86169500D01*
D21*
%TO.N,/MRELAY*%
X123825000Y-80264000D02*
X123825000Y-70866000D01*
X123190000Y-80899000D02*
X123825000Y-80264000D01*
X123190000Y-82613500D02*
X123190000Y-80899000D01*
%TO.N,/MEXP0*%
X119380000Y-92710000D02*
X117475000Y-94615000D01*
X117475000Y-94615000D02*
X111442500Y-94615000D01*
X119380000Y-79819500D02*
X119380000Y-92710000D01*
X119062500Y-79502000D02*
X119380000Y-79819500D01*
%TO.N,/MEXP1*%
X115633500Y-97155000D02*
X111442500Y-97155000D01*
X119888000Y-92900500D02*
X115633500Y-97155000D01*
X119888000Y-79756000D02*
X119888000Y-92900500D01*
X120142000Y-79502000D02*
X119888000Y-79756000D01*
%TO.N,/MEXP2*%
X117729000Y-102235000D02*
X111442500Y-102235000D01*
X121412000Y-98552000D02*
X117729000Y-102235000D01*
X121412000Y-79692500D02*
X121412000Y-98552000D01*
X121221500Y-79502000D02*
X121412000Y-79692500D01*
%TO.N,/MEXP3*%
X115887500Y-104775000D02*
X111442500Y-104775000D01*
X121920000Y-98742500D02*
X115887500Y-104775000D01*
X121920000Y-79883000D02*
X121920000Y-98742500D01*
X122301000Y-79502000D02*
X121920000Y-79883000D01*
%TO.N,/MSPI1_MISO*%
X135699500Y-66452750D02*
X135699500Y-69151500D01*
X149542500Y-56451500D02*
X143700500Y-62293500D01*
X149542500Y-45402500D02*
X149542500Y-56451500D01*
X139858750Y-62293500D02*
X135699500Y-66452750D01*
X143700500Y-62293500D02*
X139858750Y-62293500D01*
X150495000Y-44450000D02*
X149542500Y-45402500D01*
X154940000Y-44450000D02*
X150495000Y-44450000D01*
%TO.N,/MSPI1_MOSI*%
X136652000Y-66294000D02*
X136652000Y-69278500D01*
X140144500Y-62801500D02*
X136652000Y-66294000D01*
X143954500Y-62801500D02*
X140144500Y-62801500D01*
X154940000Y-46990000D02*
X151130000Y-46990000D01*
X150177500Y-47942500D02*
X150177500Y-56578500D01*
X150177500Y-56578500D02*
X143954500Y-62801500D01*
X136652000Y-69278500D02*
X135699500Y-70231000D01*
X151130000Y-46990000D02*
X150177500Y-47942500D01*
%TO.N,/MEXP4*%
X115189000Y-109855000D02*
X111506000Y-109855000D01*
X119380000Y-109855000D02*
X115189000Y-109855000D01*
X137541000Y-91694000D02*
X119380000Y-109855000D01*
X137541000Y-74295000D02*
X137541000Y-91694000D01*
X136779000Y-73533000D02*
X137541000Y-74295000D01*
%TO.N,/MEXP5*%
X114681000Y-112395000D02*
X111506000Y-112395000D01*
X117602000Y-112395000D02*
X114681000Y-112395000D01*
X138049000Y-91948000D02*
X117602000Y-112395000D01*
X138049000Y-73469500D02*
X138049000Y-91948000D01*
X137731500Y-73152000D02*
X138049000Y-73469500D01*
%TO.N,/MSERIAL_TX3_SCL2*%
X152527000Y-52070000D02*
X154876500Y-52070000D01*
X152019000Y-52578000D02*
X152527000Y-52070000D01*
X152019000Y-56197500D02*
X152019000Y-52578000D01*
X144907000Y-63309500D02*
X152019000Y-56197500D01*
X140779500Y-63309500D02*
X144907000Y-63309500D01*
X139763500Y-64325500D02*
X140779500Y-63309500D01*
X139763500Y-71755000D02*
X139763500Y-64325500D01*
X140271500Y-72263000D02*
X139763500Y-71755000D01*
%TO.N,/MSERIAL_RX3_SDA2*%
X153352500Y-54673500D02*
X154876500Y-54673500D01*
X152654000Y-55372000D02*
X153352500Y-54673500D01*
X152654000Y-56324500D02*
X152654000Y-55372000D01*
X141224000Y-64198500D02*
X141605000Y-63817500D01*
X145161000Y-63817500D02*
X152654000Y-56324500D01*
X141605000Y-63817500D02*
X145161000Y-63817500D01*
X141224000Y-71437500D02*
X141224000Y-64198500D01*
%TO.N,/MEXP6*%
X111633000Y-117475000D02*
X111506000Y-117475000D01*
X111760000Y-117348000D02*
X111633000Y-117475000D01*
X142113000Y-64643000D02*
X142494000Y-65024000D01*
X113411000Y-117348000D02*
X111760000Y-117348000D01*
X138557000Y-92202000D02*
X113411000Y-117348000D01*
X138557000Y-77597000D02*
X138557000Y-92202000D01*
X142494000Y-73660000D02*
X138557000Y-77597000D01*
X142494000Y-65024000D02*
X142494000Y-73660000D01*
%TO.N,/MEXP7*%
X113538000Y-117983000D02*
X111506000Y-120015000D01*
X143510000Y-64643000D02*
X143065500Y-65087500D01*
X139065000Y-77914500D02*
X139065000Y-92456000D01*
X143065500Y-73914000D02*
X139065000Y-77914500D01*
X139065000Y-92456000D02*
X113538000Y-117983000D01*
X143065500Y-65087500D02*
X143065500Y-73914000D01*
%TO.N,/MSDIO_D0*%
X125603000Y-26670000D02*
X125603000Y-24765000D01*
X127762000Y-28829000D02*
X125603000Y-26670000D01*
X127762000Y-35306000D02*
X127762000Y-28829000D01*
X129794000Y-37338000D02*
X127762000Y-35306000D01*
X140144500Y-56324500D02*
X129794000Y-45974000D01*
X129794000Y-45974000D02*
X129794000Y-37338000D01*
X140144500Y-60452000D02*
X140144500Y-56324500D01*
%TO.N,/MSDIO_D1*%
X126746000Y-29337000D02*
X124587000Y-27178000D01*
X126746000Y-36195000D02*
X126746000Y-29337000D01*
X128778000Y-46355000D02*
X128778000Y-38227000D01*
X139128500Y-56705500D02*
X128778000Y-46355000D01*
X139128500Y-60515500D02*
X139128500Y-56705500D01*
X124587000Y-27178000D02*
X124587000Y-22098000D01*
X128778000Y-38227000D02*
X126746000Y-36195000D01*
%TO.N,/MSDIO_SW*%
X138049000Y-56896000D02*
X128778000Y-47625000D01*
X138049000Y-60515500D02*
X138049000Y-56896000D01*
%TO.N,/MUSB_VBUS*%
X133413500Y-90106500D02*
X133413500Y-66103500D01*
X136779000Y-62738000D02*
X136779000Y-61087000D01*
X132778500Y-90741500D02*
X133413500Y-90106500D01*
X133413500Y-66103500D02*
X136779000Y-62738000D01*
X132651500Y-90741500D02*
X132778500Y-90741500D01*
%TO.N,/MUSB_ID*%
X135890000Y-62865000D02*
X135890000Y-61595000D01*
X132905500Y-89344500D02*
X132905500Y-65849500D01*
X132905500Y-65849500D02*
X135890000Y-62865000D01*
X132651500Y-89598500D02*
X132905500Y-89344500D01*
%TO.N,/MUSB_DM*%
X132397500Y-88773000D02*
X132397500Y-64992321D01*
X132397500Y-64992321D02*
X133567010Y-63822811D01*
X130556000Y-90614500D02*
X132397500Y-88773000D01*
X130429000Y-90614500D02*
X130556000Y-90614500D01*
%TO.N,/MUSB_DP*%
X131889500Y-64060077D02*
X132836808Y-63112769D01*
X131889500Y-88138000D02*
X131889500Y-64060077D01*
X130429000Y-89598500D02*
X131889500Y-88138000D01*
%TO.N,/MLED_RED*%
X110490000Y-109474000D02*
X110490000Y-124079000D01*
X111252000Y-108712000D02*
X110490000Y-109474000D01*
X117729000Y-108712000D02*
X111252000Y-108712000D01*
X126746000Y-99695000D02*
X117729000Y-108712000D01*
X110490000Y-124079000D02*
X111506000Y-125095000D01*
X126746000Y-80518000D02*
X126746000Y-99695000D01*
X129286000Y-77978000D02*
X126746000Y-80518000D01*
X129286000Y-64389000D02*
X129286000Y-77978000D01*
X133096000Y-60579000D02*
X129286000Y-64389000D01*
X135890000Y-60579000D02*
X133096000Y-60579000D01*
%TO.N,/MLED_GREEN*%
X109982000Y-126111000D02*
X111506000Y-127635000D01*
X109982000Y-109220000D02*
X109982000Y-126111000D01*
X110998000Y-108204000D02*
X109982000Y-109220000D01*
X117475000Y-108204000D02*
X110998000Y-108204000D01*
X126238000Y-99441000D02*
X117475000Y-108204000D01*
X126238000Y-80264000D02*
X126238000Y-99441000D01*
X128778000Y-77724000D02*
X126238000Y-80264000D01*
X128778000Y-64008000D02*
X128778000Y-77724000D01*
X130302000Y-62484000D02*
X128778000Y-64008000D01*
X130302000Y-59690000D02*
X130302000Y-62484000D01*
%TO.N,/MLED_YELLOW*%
X109474000Y-130810000D02*
X111379000Y-132715000D01*
X117094000Y-107696000D02*
X110744000Y-107696000D01*
X111379000Y-132715000D02*
X111506000Y-132715000D01*
X125730000Y-99060000D02*
X117094000Y-107696000D01*
X124460000Y-85090000D02*
X125730000Y-86360000D01*
X109474000Y-108966000D02*
X109474000Y-130810000D01*
X110744000Y-107696000D02*
X109474000Y-108966000D01*
X129413000Y-59182000D02*
X129476500Y-59245500D01*
X124460000Y-81280000D02*
X124460000Y-85090000D01*
X128270000Y-77470000D02*
X124460000Y-81280000D01*
X128270000Y-63690500D02*
X128270000Y-77470000D01*
X129476500Y-59245500D02*
X129476500Y-62484000D01*
X125730000Y-86360000D02*
X125730000Y-99060000D01*
X129476500Y-62484000D02*
X128270000Y-63690500D01*
%TO.N,/MSDIO_D2*%
X127762000Y-59245500D02*
X127762000Y-40005000D01*
%TO.N,/MSDIO_D3*%
X126746000Y-59309000D02*
X126746000Y-37465000D01*
%TO.N,/MSDIO_CLK*%
X125666500Y-59309000D02*
X125666500Y-29845000D01*
%TO.N,/MSDIO_CMD*%
X124587000Y-59309000D02*
X124587000Y-32385000D01*
%TO.N,/MLED_BLUE*%
X108966000Y-132715000D02*
X111506000Y-135255000D01*
X127762000Y-77216000D02*
X123952000Y-81026000D01*
X110490000Y-107188000D02*
X108966000Y-108712000D01*
X108966000Y-108712000D02*
X108966000Y-132715000D01*
X125222000Y-98806000D02*
X116840000Y-107188000D01*
X125222000Y-86677500D02*
X125222000Y-98806000D01*
X123952000Y-81026000D02*
X123952000Y-85407500D01*
X116840000Y-107188000D02*
X110490000Y-107188000D01*
X123952000Y-85407500D02*
X125222000Y-86677500D01*
X126809500Y-61976000D02*
X126809500Y-62357000D01*
X127762000Y-63309500D02*
X127762000Y-77216000D01*
X126809500Y-62357000D02*
X127762000Y-63309500D01*
%TO.N,/MOLED_SCL1*%
X118110000Y-86995000D02*
X117856000Y-87249000D01*
X118110000Y-78994000D02*
X118110000Y-86995000D01*
X122301000Y-74803000D02*
X118110000Y-78994000D01*
X122301000Y-68961000D02*
X122301000Y-74803000D01*
X122555000Y-68707000D02*
X122301000Y-68961000D01*
X122555000Y-65405000D02*
X122555000Y-68707000D01*
X123380500Y-64579500D02*
X122555000Y-65405000D01*
X123380500Y-64516000D02*
X123380500Y-64579500D01*
X123380500Y-63182500D02*
X123380500Y-64516000D01*
%TO.N,/MOLED_SDA1*%
X117157500Y-86741000D02*
X116522500Y-87376000D01*
X117157500Y-79121000D02*
X117157500Y-86741000D01*
X121475500Y-74803000D02*
X117157500Y-79121000D01*
X121475500Y-64897000D02*
X121475500Y-74803000D01*
X122237500Y-64135000D02*
X121475500Y-64897000D01*
%TO.N,/ACCEL_SCL*%
X88900000Y-60325000D02*
X88900000Y-63499998D01*
X88900000Y-63499998D02*
X81914998Y-63499998D01*
X81914998Y-63499998D02*
X78740000Y-60325000D01*
%TO.N,/ACCEL_INT*%
X88900000Y-58420000D02*
X88900000Y-53340000D01*
X88174999Y-59145001D02*
X81370001Y-59145001D01*
X88900000Y-58420000D02*
X88174999Y-59145001D01*
X81370001Y-59145001D02*
X80645000Y-58420000D01*
X80645000Y-58420000D02*
X74803000Y-58420000D01*
D20*
%TO.N,/KA.NO*%
X247341846Y-103178154D02*
X247323154Y-103178154D01*
X247341846Y-103178154D02*
X247323154Y-103178154D01*
X213931500Y-90805000D02*
X234950000Y-90805000D01*
X234950000Y-90805000D02*
X247269000Y-103124000D01*
%TO.N,/KA.COM*%
X249110500Y-101409500D02*
X249174000Y-101409500D01*
X246570500Y-96202500D02*
X247586500Y-96202500D01*
X247586500Y-96202500D02*
X250952000Y-99568000D01*
X249137898Y-101382102D02*
X249083102Y-101382102D01*
X245745000Y-98044000D02*
X245745000Y-97028000D01*
X249083102Y-101382102D02*
X245745000Y-98044000D01*
X237807500Y-88265000D02*
X246157750Y-96615250D01*
X213995000Y-88265000D02*
X237807500Y-88265000D01*
X246157750Y-96615250D02*
X246570500Y-96202500D01*
X245745000Y-97028000D02*
X246157750Y-96615250D01*
%TO.N,/KA.NC*%
X229870000Y-85725000D02*
X213995000Y-85725000D01*
X229870000Y-85725000D02*
X240665000Y-85725000D01*
X240665000Y-85725000D02*
X252730000Y-97790000D01*
%TO.N,/KB.NO*%
X202120500Y-91249500D02*
X202565000Y-90805000D01*
X234061000Y-93535500D02*
X203073000Y-93535500D01*
X203073000Y-93535500D02*
X202120500Y-92583000D01*
X202120500Y-92583000D02*
X202120500Y-91249500D01*
X245499705Y-104974205D02*
X234061000Y-93535500D01*
X245545795Y-104974205D02*
X245499705Y-104974205D01*
%TO.N,/KB.COM*%
X243749744Y-106770256D02*
X243676256Y-106770256D01*
X241916307Y-108566307D02*
X241953693Y-108566307D01*
X238252000Y-104902000D02*
X241916307Y-108566307D01*
X238252000Y-104076500D02*
X238252000Y-104902000D01*
X240220500Y-103060500D02*
X239268000Y-103060500D01*
X243749744Y-106589744D02*
X240220500Y-103060500D01*
X243749744Y-106770256D02*
X243749744Y-106589744D01*
X238728250Y-103600250D02*
X238252000Y-104076500D01*
X239268000Y-103060500D02*
X238728250Y-103600250D01*
X230568500Y-95440500D02*
X238728250Y-103600250D01*
X202946000Y-95440500D02*
X230568500Y-95440500D01*
X200723500Y-90233500D02*
X200723500Y-93218000D01*
X200723500Y-93218000D02*
X202946000Y-95440500D01*
X202692000Y-88265000D02*
X200723500Y-90233500D01*
%TO.N,/KB.NC*%
X199326500Y-93980000D02*
X199326500Y-89090500D01*
X202438000Y-97091500D02*
X199326500Y-93980000D01*
X226822000Y-97091500D02*
X202438000Y-97091500D01*
X199326500Y-89090500D02*
X202692000Y-85725000D01*
X240092859Y-110362359D02*
X226822000Y-97091500D01*
%TO.N,/OLED_SDA1*%
X143256000Y-102997000D02*
X174498000Y-102997000D01*
X142240000Y-104013000D02*
X143256000Y-102997000D01*
X174498000Y-102997000D02*
X177800000Y-99695000D01*
X142240000Y-106045000D02*
X142240000Y-104013000D01*
%TD*%
M02*
