%TF.GenerationSoftware,KiCad,Pcbnew,(5.1.10-1-10_14)*%
%TF.CreationDate,2021-06-11T06:32:06+09:00*%
%TF.ProjectId,demo32,64656d6f-3332-42e6-9b69-6361645f7063,rev?*%
%TF.SameCoordinates,Original*%
%TF.FileFunction,Soldermask,Top*%
%TF.FilePolarity,Negative*%
%FSLAX46Y46*%
G04 Gerber Fmt 4.6, Leading zero omitted, Abs format (unit mm)*
G04 Created by KiCad (PCBNEW (5.1.10-1-10_14)) date 2021-06-11 06:32:06*
%MOMM*%
%LPD*%
G01*
G04 APERTURE LIST*
%ADD10C,2.000000*%
%ADD11C,5.700000*%
%ADD12R,2.000000X2.000000*%
%ADD13R,3.680000X1.270000*%
%ADD14O,1.250000X1.050000*%
%ADD15R,1.350000X0.400000*%
%ADD16O,1.900000X1.000000*%
%ADD17R,1.900000X2.900000*%
%ADD18R,1.900000X0.875000*%
%ADD19C,1.000000*%
%ADD20R,2.200000X6.500000*%
%ADD21R,2.600000X1.900000*%
%ADD22R,1.100000X0.500000*%
%ADD23R,0.270000X0.795000*%
%ADD24R,3.800000X2.000000*%
%ADD25R,1.500000X2.000000*%
%ADD26C,3.500000*%
%ADD27R,0.900000X0.800000*%
%ADD28R,1.800000X0.800000*%
%ADD29C,0.100000*%
%ADD30R,0.700000X1.400000*%
%ADD31R,1.500000X1.900000*%
%ADD32R,1.000000X1.400000*%
%ADD33R,1.200000X1.200000*%
%ADD34R,1.200000X3.200000*%
%ADD35R,0.700000X1.200000*%
%ADD36R,0.500000X0.500000*%
%ADD37R,1.200000X0.800000*%
%ADD38C,2.540000*%
G04 APERTURE END LIST*
D10*
%TO.C,TPGND8*%
X74930000Y-32385000D03*
%TD*%
%TO.C,TPGND7*%
X200025000Y-40640000D03*
%TD*%
%TO.C,TPGND6*%
X94615000Y-79375000D03*
%TD*%
%TO.C,TPGND5*%
X133985000Y-42545000D03*
%TD*%
%TO.C,TPGND4*%
X200025000Y-67945000D03*
%TD*%
%TO.C,TPGND3*%
X217805000Y-99695000D03*
%TD*%
%TO.C,TPGND2*%
X203835000Y-131445000D03*
%TD*%
D11*
%TO.C,H4*%
X65000000Y-135000000D03*
%TD*%
%TO.C,H3*%
X210000000Y-135000000D03*
%TD*%
%TO.C,H2*%
X200000000Y-25000000D03*
%TD*%
%TO.C,H1*%
X75000000Y-25000000D03*
%TD*%
D12*
%TO.C,J108*%
X53975000Y-75565000D03*
D10*
X53975000Y-78105000D03*
X53975000Y-80645000D03*
X53975000Y-83185000D03*
%TD*%
%TO.C,J10*%
X53975000Y-115570000D03*
D12*
X53975000Y-113030000D03*
%TD*%
%TO.C,D2*%
G36*
G01*
X143615000Y-121000000D02*
X143615000Y-120300000D01*
G75*
G02*
X143890000Y-120025000I275000J0D01*
G01*
X144440000Y-120025000D01*
G75*
G02*
X144715000Y-120300000I0J-275000D01*
G01*
X144715000Y-121000000D01*
G75*
G02*
X144440000Y-121275000I-275000J0D01*
G01*
X143890000Y-121275000D01*
G75*
G02*
X143615000Y-121000000I0J275000D01*
G01*
G37*
G36*
G01*
X146115000Y-121000000D02*
X146115000Y-120300000D01*
G75*
G02*
X146390000Y-120025000I275000J0D01*
G01*
X146940000Y-120025000D01*
G75*
G02*
X147215000Y-120300000I0J-275000D01*
G01*
X147215000Y-121000000D01*
G75*
G02*
X146940000Y-121275000I-275000J0D01*
G01*
X146390000Y-121275000D01*
G75*
G02*
X146115000Y-121000000I0J275000D01*
G01*
G37*
%TD*%
D13*
%TO.C,XR9*%
X157545000Y-74295000D03*
X162495000Y-74295000D03*
X157545000Y-76835000D03*
X162495000Y-76835000D03*
%TD*%
D10*
%TO.C,SW1*%
X53340000Y-67945000D03*
X53340000Y-63445000D03*
X59840000Y-67945000D03*
X59840000Y-63445000D03*
%TD*%
%TO.C,SW103*%
X53340000Y-59055000D03*
X53340000Y-54555000D03*
X59840000Y-59055000D03*
X59840000Y-54555000D03*
%TD*%
D14*
%TO.C,J9*%
X55705000Y-91120000D03*
D15*
X55380000Y-92045000D03*
X55380000Y-92695000D03*
X55380000Y-93345000D03*
X55380000Y-94645000D03*
D14*
X55705000Y-95570000D03*
D16*
X52705000Y-89170000D03*
X52705000Y-97520000D03*
D15*
X55380000Y-93995000D03*
D17*
X52705000Y-93345000D03*
D18*
X52705000Y-97082500D03*
X52705000Y-89607500D03*
%TD*%
D13*
%TO.C,XR4*%
X97090000Y-55880000D03*
X92140000Y-55880000D03*
X97090000Y-53340000D03*
X92140000Y-53340000D03*
%TD*%
D10*
%TO.C,SW113*%
X147848000Y-130810000D03*
X143348000Y-130810000D03*
X147848000Y-124310000D03*
X143348000Y-124310000D03*
%TD*%
%TO.C,SW112*%
X176585000Y-130810000D03*
X172085000Y-130810000D03*
X176585000Y-124310000D03*
X172085000Y-124310000D03*
%TD*%
%TO.C,SW111*%
X167060000Y-130810000D03*
X162560000Y-130810000D03*
X167060000Y-124310000D03*
X162560000Y-124310000D03*
%TD*%
%TO.C,SW110*%
X157535000Y-130810000D03*
X153035000Y-130810000D03*
X157535000Y-124310000D03*
X153035000Y-124310000D03*
%TD*%
D19*
%TO.C,Y2*%
X116835000Y-71120000D03*
X114935000Y-71120000D03*
D20*
X115885000Y-65370000D03*
%TD*%
D21*
%TO.C,Y1*%
X115887500Y-78350000D03*
X115887500Y-74050000D03*
%TD*%
D13*
%TO.C,XR32*%
X92140000Y-109855000D03*
X97090000Y-109855000D03*
X92140000Y-112395000D03*
X97090000Y-112395000D03*
%TD*%
%TO.C,XR31*%
X92140000Y-102235000D03*
X97090000Y-102235000D03*
X92140000Y-104775000D03*
X97090000Y-104775000D03*
%TD*%
%TO.C,XR30*%
X62295000Y-81915000D03*
X67245000Y-81915000D03*
X62295000Y-84455000D03*
X67245000Y-84455000D03*
%TD*%
%TO.C,XR29*%
X62295000Y-74295000D03*
X67245000Y-74295000D03*
X62295000Y-76835000D03*
X67245000Y-76835000D03*
%TD*%
%TO.C,XR28*%
X62295000Y-116840000D03*
X67245000Y-116840000D03*
X62295000Y-119380000D03*
X67245000Y-119380000D03*
%TD*%
%TO.C,XR27*%
X62295000Y-109220000D03*
X67245000Y-109220000D03*
X62295000Y-111760000D03*
X67245000Y-111760000D03*
%TD*%
%TO.C,XR26*%
X74360000Y-88265000D03*
X79310000Y-88265000D03*
X74360000Y-90805000D03*
X79310000Y-90805000D03*
%TD*%
%TO.C,XR25*%
X74360000Y-95885000D03*
X79310000Y-95885000D03*
X74360000Y-98425000D03*
X79310000Y-98425000D03*
%TD*%
%TO.C,XR22*%
X92140000Y-45720000D03*
X97090000Y-45720000D03*
X92140000Y-48260000D03*
X97090000Y-48260000D03*
%TD*%
%TO.C,XR21*%
X115000000Y-132715000D03*
X119950000Y-132715000D03*
X115000000Y-135255000D03*
X119950000Y-135255000D03*
%TD*%
%TO.C,XR20*%
X115000000Y-125095000D03*
X119950000Y-125095000D03*
X115000000Y-127635000D03*
X119950000Y-127635000D03*
%TD*%
%TO.C,XR19*%
X157545000Y-81915000D03*
X162495000Y-81915000D03*
X157545000Y-84455000D03*
X162495000Y-84455000D03*
%TD*%
%TO.C,XR18*%
X115000000Y-117475000D03*
X119950000Y-117475000D03*
X115000000Y-120015000D03*
X119950000Y-120015000D03*
%TD*%
%TO.C,XR17*%
X115000000Y-109855000D03*
X119950000Y-109855000D03*
X115000000Y-112395000D03*
X119950000Y-112395000D03*
%TD*%
%TO.C,XR16*%
X115000000Y-102235000D03*
X119950000Y-102235000D03*
X115000000Y-104775000D03*
X119950000Y-104775000D03*
%TD*%
%TO.C,XR15*%
X115000000Y-94615000D03*
X119950000Y-94615000D03*
X115000000Y-97155000D03*
X119950000Y-97155000D03*
%TD*%
%TO.C,XR14*%
X119950000Y-47625000D03*
X115000000Y-47625000D03*
X119950000Y-45085000D03*
X115000000Y-45085000D03*
%TD*%
%TO.C,XR13*%
X119950000Y-24765000D03*
X115000000Y-24765000D03*
X119950000Y-22225000D03*
X115000000Y-22225000D03*
%TD*%
%TO.C,XR12*%
X119950000Y-32385000D03*
X115000000Y-32385000D03*
X119950000Y-29845000D03*
X115000000Y-29845000D03*
%TD*%
%TO.C,XR11*%
X119950000Y-40005000D03*
X115000000Y-40005000D03*
X119950000Y-37465000D03*
X115000000Y-37465000D03*
%TD*%
%TO.C,XR10*%
X175830000Y-69215000D03*
X170880000Y-69215000D03*
X175830000Y-66675000D03*
X170880000Y-66675000D03*
%TD*%
%TO.C,XR8*%
X157545000Y-59690000D03*
X162495000Y-59690000D03*
X157545000Y-62230000D03*
X162495000Y-62230000D03*
%TD*%
%TO.C,XR7*%
X157545000Y-52070000D03*
X162495000Y-52070000D03*
X157545000Y-54610000D03*
X162495000Y-54610000D03*
%TD*%
%TO.C,XR6*%
X157545000Y-96520000D03*
X162495000Y-96520000D03*
X157545000Y-99060000D03*
X162495000Y-99060000D03*
%TD*%
%TO.C,XR5*%
X97090000Y-66040000D03*
X92140000Y-66040000D03*
X97090000Y-63500000D03*
X92140000Y-63500000D03*
%TD*%
%TO.C,XR3*%
X157545000Y-44450000D03*
X162495000Y-44450000D03*
X157545000Y-46990000D03*
X162495000Y-46990000D03*
%TD*%
%TO.C,XR2*%
X157545000Y-36830000D03*
X162495000Y-36830000D03*
X157545000Y-39370000D03*
X162495000Y-39370000D03*
%TD*%
%TO.C,XR1*%
X157545000Y-27940000D03*
X162495000Y-27940000D03*
X157545000Y-30480000D03*
X162495000Y-30480000D03*
%TD*%
%TO.C,U102*%
G36*
G01*
X186415000Y-82700000D02*
X186415000Y-82400000D01*
G75*
G02*
X186565000Y-82250000I150000J0D01*
G01*
X188215000Y-82250000D01*
G75*
G02*
X188365000Y-82400000I0J-150000D01*
G01*
X188365000Y-82700000D01*
G75*
G02*
X188215000Y-82850000I-150000J0D01*
G01*
X186565000Y-82850000D01*
G75*
G02*
X186415000Y-82700000I0J150000D01*
G01*
G37*
G36*
G01*
X186415000Y-83970000D02*
X186415000Y-83670000D01*
G75*
G02*
X186565000Y-83520000I150000J0D01*
G01*
X188215000Y-83520000D01*
G75*
G02*
X188365000Y-83670000I0J-150000D01*
G01*
X188365000Y-83970000D01*
G75*
G02*
X188215000Y-84120000I-150000J0D01*
G01*
X186565000Y-84120000D01*
G75*
G02*
X186415000Y-83970000I0J150000D01*
G01*
G37*
G36*
G01*
X186415000Y-85240000D02*
X186415000Y-84940000D01*
G75*
G02*
X186565000Y-84790000I150000J0D01*
G01*
X188215000Y-84790000D01*
G75*
G02*
X188365000Y-84940000I0J-150000D01*
G01*
X188365000Y-85240000D01*
G75*
G02*
X188215000Y-85390000I-150000J0D01*
G01*
X186565000Y-85390000D01*
G75*
G02*
X186415000Y-85240000I0J150000D01*
G01*
G37*
G36*
G01*
X186415000Y-86510000D02*
X186415000Y-86210000D01*
G75*
G02*
X186565000Y-86060000I150000J0D01*
G01*
X188215000Y-86060000D01*
G75*
G02*
X188365000Y-86210000I0J-150000D01*
G01*
X188365000Y-86510000D01*
G75*
G02*
X188215000Y-86660000I-150000J0D01*
G01*
X186565000Y-86660000D01*
G75*
G02*
X186415000Y-86510000I0J150000D01*
G01*
G37*
G36*
G01*
X186415000Y-87780000D02*
X186415000Y-87480000D01*
G75*
G02*
X186565000Y-87330000I150000J0D01*
G01*
X188215000Y-87330000D01*
G75*
G02*
X188365000Y-87480000I0J-150000D01*
G01*
X188365000Y-87780000D01*
G75*
G02*
X188215000Y-87930000I-150000J0D01*
G01*
X186565000Y-87930000D01*
G75*
G02*
X186415000Y-87780000I0J150000D01*
G01*
G37*
G36*
G01*
X186415000Y-89050000D02*
X186415000Y-88750000D01*
G75*
G02*
X186565000Y-88600000I150000J0D01*
G01*
X188215000Y-88600000D01*
G75*
G02*
X188365000Y-88750000I0J-150000D01*
G01*
X188365000Y-89050000D01*
G75*
G02*
X188215000Y-89200000I-150000J0D01*
G01*
X186565000Y-89200000D01*
G75*
G02*
X186415000Y-89050000I0J150000D01*
G01*
G37*
G36*
G01*
X186415000Y-90320000D02*
X186415000Y-90020000D01*
G75*
G02*
X186565000Y-89870000I150000J0D01*
G01*
X188215000Y-89870000D01*
G75*
G02*
X188365000Y-90020000I0J-150000D01*
G01*
X188365000Y-90320000D01*
G75*
G02*
X188215000Y-90470000I-150000J0D01*
G01*
X186565000Y-90470000D01*
G75*
G02*
X186415000Y-90320000I0J150000D01*
G01*
G37*
G36*
G01*
X186415000Y-91590000D02*
X186415000Y-91290000D01*
G75*
G02*
X186565000Y-91140000I150000J0D01*
G01*
X188215000Y-91140000D01*
G75*
G02*
X188365000Y-91290000I0J-150000D01*
G01*
X188365000Y-91590000D01*
G75*
G02*
X188215000Y-91740000I-150000J0D01*
G01*
X186565000Y-91740000D01*
G75*
G02*
X186415000Y-91590000I0J150000D01*
G01*
G37*
G36*
G01*
X191365000Y-91590000D02*
X191365000Y-91290000D01*
G75*
G02*
X191515000Y-91140000I150000J0D01*
G01*
X193165000Y-91140000D01*
G75*
G02*
X193315000Y-91290000I0J-150000D01*
G01*
X193315000Y-91590000D01*
G75*
G02*
X193165000Y-91740000I-150000J0D01*
G01*
X191515000Y-91740000D01*
G75*
G02*
X191365000Y-91590000I0J150000D01*
G01*
G37*
G36*
G01*
X191365000Y-90320000D02*
X191365000Y-90020000D01*
G75*
G02*
X191515000Y-89870000I150000J0D01*
G01*
X193165000Y-89870000D01*
G75*
G02*
X193315000Y-90020000I0J-150000D01*
G01*
X193315000Y-90320000D01*
G75*
G02*
X193165000Y-90470000I-150000J0D01*
G01*
X191515000Y-90470000D01*
G75*
G02*
X191365000Y-90320000I0J150000D01*
G01*
G37*
G36*
G01*
X191365000Y-89050000D02*
X191365000Y-88750000D01*
G75*
G02*
X191515000Y-88600000I150000J0D01*
G01*
X193165000Y-88600000D01*
G75*
G02*
X193315000Y-88750000I0J-150000D01*
G01*
X193315000Y-89050000D01*
G75*
G02*
X193165000Y-89200000I-150000J0D01*
G01*
X191515000Y-89200000D01*
G75*
G02*
X191365000Y-89050000I0J150000D01*
G01*
G37*
G36*
G01*
X191365000Y-87780000D02*
X191365000Y-87480000D01*
G75*
G02*
X191515000Y-87330000I150000J0D01*
G01*
X193165000Y-87330000D01*
G75*
G02*
X193315000Y-87480000I0J-150000D01*
G01*
X193315000Y-87780000D01*
G75*
G02*
X193165000Y-87930000I-150000J0D01*
G01*
X191515000Y-87930000D01*
G75*
G02*
X191365000Y-87780000I0J150000D01*
G01*
G37*
G36*
G01*
X191365000Y-86510000D02*
X191365000Y-86210000D01*
G75*
G02*
X191515000Y-86060000I150000J0D01*
G01*
X193165000Y-86060000D01*
G75*
G02*
X193315000Y-86210000I0J-150000D01*
G01*
X193315000Y-86510000D01*
G75*
G02*
X193165000Y-86660000I-150000J0D01*
G01*
X191515000Y-86660000D01*
G75*
G02*
X191365000Y-86510000I0J150000D01*
G01*
G37*
G36*
G01*
X191365000Y-85240000D02*
X191365000Y-84940000D01*
G75*
G02*
X191515000Y-84790000I150000J0D01*
G01*
X193165000Y-84790000D01*
G75*
G02*
X193315000Y-84940000I0J-150000D01*
G01*
X193315000Y-85240000D01*
G75*
G02*
X193165000Y-85390000I-150000J0D01*
G01*
X191515000Y-85390000D01*
G75*
G02*
X191365000Y-85240000I0J150000D01*
G01*
G37*
G36*
G01*
X191365000Y-83970000D02*
X191365000Y-83670000D01*
G75*
G02*
X191515000Y-83520000I150000J0D01*
G01*
X193165000Y-83520000D01*
G75*
G02*
X193315000Y-83670000I0J-150000D01*
G01*
X193315000Y-83970000D01*
G75*
G02*
X193165000Y-84120000I-150000J0D01*
G01*
X191515000Y-84120000D01*
G75*
G02*
X191365000Y-83970000I0J150000D01*
G01*
G37*
G36*
G01*
X191365000Y-82700000D02*
X191365000Y-82400000D01*
G75*
G02*
X191515000Y-82250000I150000J0D01*
G01*
X193165000Y-82250000D01*
G75*
G02*
X193315000Y-82400000I0J-150000D01*
G01*
X193315000Y-82700000D01*
G75*
G02*
X193165000Y-82850000I-150000J0D01*
G01*
X191515000Y-82850000D01*
G75*
G02*
X191365000Y-82700000I0J150000D01*
G01*
G37*
%TD*%
D12*
%TO.C,U101*%
X160020000Y-68580000D03*
D22*
X157120000Y-66675000D03*
X157120000Y-67945000D03*
X157120000Y-69215000D03*
X157120000Y-70485000D03*
X162920000Y-70485000D03*
X162920000Y-69215000D03*
X162920000Y-67945000D03*
X162920000Y-66675000D03*
%TD*%
%TO.C,U4*%
G36*
G01*
X74201000Y-111163000D02*
X74201000Y-111463000D01*
G75*
G02*
X74051000Y-111613000I-150000J0D01*
G01*
X73026000Y-111613000D01*
G75*
G02*
X72876000Y-111463000I0J150000D01*
G01*
X72876000Y-111163000D01*
G75*
G02*
X73026000Y-111013000I150000J0D01*
G01*
X74051000Y-111013000D01*
G75*
G02*
X74201000Y-111163000I0J-150000D01*
G01*
G37*
G36*
G01*
X74201000Y-109263000D02*
X74201000Y-109563000D01*
G75*
G02*
X74051000Y-109713000I-150000J0D01*
G01*
X73026000Y-109713000D01*
G75*
G02*
X72876000Y-109563000I0J150000D01*
G01*
X72876000Y-109263000D01*
G75*
G02*
X73026000Y-109113000I150000J0D01*
G01*
X74051000Y-109113000D01*
G75*
G02*
X74201000Y-109263000I0J-150000D01*
G01*
G37*
G36*
G01*
X76476000Y-109263000D02*
X76476000Y-109563000D01*
G75*
G02*
X76326000Y-109713000I-150000J0D01*
G01*
X75301000Y-109713000D01*
G75*
G02*
X75151000Y-109563000I0J150000D01*
G01*
X75151000Y-109263000D01*
G75*
G02*
X75301000Y-109113000I150000J0D01*
G01*
X76326000Y-109113000D01*
G75*
G02*
X76476000Y-109263000I0J-150000D01*
G01*
G37*
G36*
G01*
X76476000Y-110213000D02*
X76476000Y-110513000D01*
G75*
G02*
X76326000Y-110663000I-150000J0D01*
G01*
X75301000Y-110663000D01*
G75*
G02*
X75151000Y-110513000I0J150000D01*
G01*
X75151000Y-110213000D01*
G75*
G02*
X75301000Y-110063000I150000J0D01*
G01*
X76326000Y-110063000D01*
G75*
G02*
X76476000Y-110213000I0J-150000D01*
G01*
G37*
G36*
G01*
X76476000Y-111163000D02*
X76476000Y-111463000D01*
G75*
G02*
X76326000Y-111613000I-150000J0D01*
G01*
X75301000Y-111613000D01*
G75*
G02*
X75151000Y-111463000I0J150000D01*
G01*
X75151000Y-111163000D01*
G75*
G02*
X75301000Y-111013000I150000J0D01*
G01*
X76326000Y-111013000D01*
G75*
G02*
X76476000Y-111163000I0J-150000D01*
G01*
G37*
%TD*%
D23*
%TO.C,U3*%
X95615000Y-58440000D03*
X95115000Y-58450000D03*
X94615000Y-58450000D03*
X94115000Y-58450000D03*
X93615000Y-58450000D03*
X93615000Y-60930000D03*
X94115000Y-60930000D03*
X94615000Y-60930000D03*
X95115000Y-60930000D03*
X95615000Y-60930000D03*
%TD*%
D24*
%TO.C,U2*%
X84455000Y-102260000D03*
D25*
X84455000Y-108560000D03*
X86755000Y-108560000D03*
X82155000Y-108560000D03*
%TD*%
%TO.C,U1*%
G36*
G01*
X124920544Y-69907222D02*
X124814478Y-69801156D01*
G75*
G02*
X124814478Y-69695090I53033J53033D01*
G01*
X125804428Y-68705140D01*
G75*
G02*
X125910494Y-68705140I53033J-53033D01*
G01*
X126016560Y-68811206D01*
G75*
G02*
X126016560Y-68917272I-53033J-53033D01*
G01*
X125026610Y-69907222D01*
G75*
G02*
X124920544Y-69907222I-53033J53033D01*
G01*
G37*
G36*
G01*
X125274097Y-70260775D02*
X125168031Y-70154709D01*
G75*
G02*
X125168031Y-70048643I53033J53033D01*
G01*
X126157981Y-69058693D01*
G75*
G02*
X126264047Y-69058693I53033J-53033D01*
G01*
X126370113Y-69164759D01*
G75*
G02*
X126370113Y-69270825I-53033J-53033D01*
G01*
X125380163Y-70260775D01*
G75*
G02*
X125274097Y-70260775I-53033J53033D01*
G01*
G37*
G36*
G01*
X125627650Y-70614328D02*
X125521584Y-70508262D01*
G75*
G02*
X125521584Y-70402196I53033J53033D01*
G01*
X126511534Y-69412246D01*
G75*
G02*
X126617600Y-69412246I53033J-53033D01*
G01*
X126723666Y-69518312D01*
G75*
G02*
X126723666Y-69624378I-53033J-53033D01*
G01*
X125733716Y-70614328D01*
G75*
G02*
X125627650Y-70614328I-53033J53033D01*
G01*
G37*
G36*
G01*
X125981204Y-70967882D02*
X125875138Y-70861816D01*
G75*
G02*
X125875138Y-70755750I53033J53033D01*
G01*
X126865088Y-69765800D01*
G75*
G02*
X126971154Y-69765800I53033J-53033D01*
G01*
X127077220Y-69871866D01*
G75*
G02*
X127077220Y-69977932I-53033J-53033D01*
G01*
X126087270Y-70967882D01*
G75*
G02*
X125981204Y-70967882I-53033J53033D01*
G01*
G37*
G36*
G01*
X126334757Y-71321435D02*
X126228691Y-71215369D01*
G75*
G02*
X126228691Y-71109303I53033J53033D01*
G01*
X127218641Y-70119353D01*
G75*
G02*
X127324707Y-70119353I53033J-53033D01*
G01*
X127430773Y-70225419D01*
G75*
G02*
X127430773Y-70331485I-53033J-53033D01*
G01*
X126440823Y-71321435D01*
G75*
G02*
X126334757Y-71321435I-53033J53033D01*
G01*
G37*
G36*
G01*
X126688311Y-71674989D02*
X126582245Y-71568923D01*
G75*
G02*
X126582245Y-71462857I53033J53033D01*
G01*
X127572195Y-70472907D01*
G75*
G02*
X127678261Y-70472907I53033J-53033D01*
G01*
X127784327Y-70578973D01*
G75*
G02*
X127784327Y-70685039I-53033J-53033D01*
G01*
X126794377Y-71674989D01*
G75*
G02*
X126688311Y-71674989I-53033J53033D01*
G01*
G37*
G36*
G01*
X127041864Y-72028542D02*
X126935798Y-71922476D01*
G75*
G02*
X126935798Y-71816410I53033J53033D01*
G01*
X127925748Y-70826460D01*
G75*
G02*
X128031814Y-70826460I53033J-53033D01*
G01*
X128137880Y-70932526D01*
G75*
G02*
X128137880Y-71038592I-53033J-53033D01*
G01*
X127147930Y-72028542D01*
G75*
G02*
X127041864Y-72028542I-53033J53033D01*
G01*
G37*
G36*
G01*
X127395417Y-72382095D02*
X127289351Y-72276029D01*
G75*
G02*
X127289351Y-72169963I53033J53033D01*
G01*
X128279301Y-71180013D01*
G75*
G02*
X128385367Y-71180013I53033J-53033D01*
G01*
X128491433Y-71286079D01*
G75*
G02*
X128491433Y-71392145I-53033J-53033D01*
G01*
X127501483Y-72382095D01*
G75*
G02*
X127395417Y-72382095I-53033J53033D01*
G01*
G37*
G36*
G01*
X127748971Y-72735649D02*
X127642905Y-72629583D01*
G75*
G02*
X127642905Y-72523517I53033J53033D01*
G01*
X128632855Y-71533567D01*
G75*
G02*
X128738921Y-71533567I53033J-53033D01*
G01*
X128844987Y-71639633D01*
G75*
G02*
X128844987Y-71745699I-53033J-53033D01*
G01*
X127855037Y-72735649D01*
G75*
G02*
X127748971Y-72735649I-53033J53033D01*
G01*
G37*
G36*
G01*
X128102524Y-73089202D02*
X127996458Y-72983136D01*
G75*
G02*
X127996458Y-72877070I53033J53033D01*
G01*
X128986408Y-71887120D01*
G75*
G02*
X129092474Y-71887120I53033J-53033D01*
G01*
X129198540Y-71993186D01*
G75*
G02*
X129198540Y-72099252I-53033J-53033D01*
G01*
X128208590Y-73089202D01*
G75*
G02*
X128102524Y-73089202I-53033J53033D01*
G01*
G37*
G36*
G01*
X128456077Y-73442755D02*
X128350011Y-73336689D01*
G75*
G02*
X128350011Y-73230623I53033J53033D01*
G01*
X129339961Y-72240673D01*
G75*
G02*
X129446027Y-72240673I53033J-53033D01*
G01*
X129552093Y-72346739D01*
G75*
G02*
X129552093Y-72452805I-53033J-53033D01*
G01*
X128562143Y-73442755D01*
G75*
G02*
X128456077Y-73442755I-53033J53033D01*
G01*
G37*
G36*
G01*
X128809631Y-73796309D02*
X128703565Y-73690243D01*
G75*
G02*
X128703565Y-73584177I53033J53033D01*
G01*
X129693515Y-72594227D01*
G75*
G02*
X129799581Y-72594227I53033J-53033D01*
G01*
X129905647Y-72700293D01*
G75*
G02*
X129905647Y-72806359I-53033J-53033D01*
G01*
X128915697Y-73796309D01*
G75*
G02*
X128809631Y-73796309I-53033J53033D01*
G01*
G37*
G36*
G01*
X129163184Y-74149862D02*
X129057118Y-74043796D01*
G75*
G02*
X129057118Y-73937730I53033J53033D01*
G01*
X130047068Y-72947780D01*
G75*
G02*
X130153134Y-72947780I53033J-53033D01*
G01*
X130259200Y-73053846D01*
G75*
G02*
X130259200Y-73159912I-53033J-53033D01*
G01*
X129269250Y-74149862D01*
G75*
G02*
X129163184Y-74149862I-53033J53033D01*
G01*
G37*
G36*
G01*
X129516738Y-74503416D02*
X129410672Y-74397350D01*
G75*
G02*
X129410672Y-74291284I53033J53033D01*
G01*
X130400622Y-73301334D01*
G75*
G02*
X130506688Y-73301334I53033J-53033D01*
G01*
X130612754Y-73407400D01*
G75*
G02*
X130612754Y-73513466I-53033J-53033D01*
G01*
X129622804Y-74503416D01*
G75*
G02*
X129516738Y-74503416I-53033J53033D01*
G01*
G37*
G36*
G01*
X129870291Y-74856969D02*
X129764225Y-74750903D01*
G75*
G02*
X129764225Y-74644837I53033J53033D01*
G01*
X130754175Y-73654887D01*
G75*
G02*
X130860241Y-73654887I53033J-53033D01*
G01*
X130966307Y-73760953D01*
G75*
G02*
X130966307Y-73867019I-53033J-53033D01*
G01*
X129976357Y-74856969D01*
G75*
G02*
X129870291Y-74856969I-53033J53033D01*
G01*
G37*
G36*
G01*
X130223844Y-75210522D02*
X130117778Y-75104456D01*
G75*
G02*
X130117778Y-74998390I53033J53033D01*
G01*
X131107728Y-74008440D01*
G75*
G02*
X131213794Y-74008440I53033J-53033D01*
G01*
X131319860Y-74114506D01*
G75*
G02*
X131319860Y-74220572I-53033J-53033D01*
G01*
X130329910Y-75210522D01*
G75*
G02*
X130223844Y-75210522I-53033J53033D01*
G01*
G37*
G36*
G01*
X133830090Y-75210522D02*
X132840140Y-74220572D01*
G75*
G02*
X132840140Y-74114506I53033J53033D01*
G01*
X132946206Y-74008440D01*
G75*
G02*
X133052272Y-74008440I53033J-53033D01*
G01*
X134042222Y-74998390D01*
G75*
G02*
X134042222Y-75104456I-53033J-53033D01*
G01*
X133936156Y-75210522D01*
G75*
G02*
X133830090Y-75210522I-53033J53033D01*
G01*
G37*
G36*
G01*
X134183643Y-74856969D02*
X133193693Y-73867019D01*
G75*
G02*
X133193693Y-73760953I53033J53033D01*
G01*
X133299759Y-73654887D01*
G75*
G02*
X133405825Y-73654887I53033J-53033D01*
G01*
X134395775Y-74644837D01*
G75*
G02*
X134395775Y-74750903I-53033J-53033D01*
G01*
X134289709Y-74856969D01*
G75*
G02*
X134183643Y-74856969I-53033J53033D01*
G01*
G37*
G36*
G01*
X134537196Y-74503416D02*
X133547246Y-73513466D01*
G75*
G02*
X133547246Y-73407400I53033J53033D01*
G01*
X133653312Y-73301334D01*
G75*
G02*
X133759378Y-73301334I53033J-53033D01*
G01*
X134749328Y-74291284D01*
G75*
G02*
X134749328Y-74397350I-53033J-53033D01*
G01*
X134643262Y-74503416D01*
G75*
G02*
X134537196Y-74503416I-53033J53033D01*
G01*
G37*
G36*
G01*
X134890750Y-74149862D02*
X133900800Y-73159912D01*
G75*
G02*
X133900800Y-73053846I53033J53033D01*
G01*
X134006866Y-72947780D01*
G75*
G02*
X134112932Y-72947780I53033J-53033D01*
G01*
X135102882Y-73937730D01*
G75*
G02*
X135102882Y-74043796I-53033J-53033D01*
G01*
X134996816Y-74149862D01*
G75*
G02*
X134890750Y-74149862I-53033J53033D01*
G01*
G37*
G36*
G01*
X135244303Y-73796309D02*
X134254353Y-72806359D01*
G75*
G02*
X134254353Y-72700293I53033J53033D01*
G01*
X134360419Y-72594227D01*
G75*
G02*
X134466485Y-72594227I53033J-53033D01*
G01*
X135456435Y-73584177D01*
G75*
G02*
X135456435Y-73690243I-53033J-53033D01*
G01*
X135350369Y-73796309D01*
G75*
G02*
X135244303Y-73796309I-53033J53033D01*
G01*
G37*
G36*
G01*
X135597857Y-73442755D02*
X134607907Y-72452805D01*
G75*
G02*
X134607907Y-72346739I53033J53033D01*
G01*
X134713973Y-72240673D01*
G75*
G02*
X134820039Y-72240673I53033J-53033D01*
G01*
X135809989Y-73230623D01*
G75*
G02*
X135809989Y-73336689I-53033J-53033D01*
G01*
X135703923Y-73442755D01*
G75*
G02*
X135597857Y-73442755I-53033J53033D01*
G01*
G37*
G36*
G01*
X135951410Y-73089202D02*
X134961460Y-72099252D01*
G75*
G02*
X134961460Y-71993186I53033J53033D01*
G01*
X135067526Y-71887120D01*
G75*
G02*
X135173592Y-71887120I53033J-53033D01*
G01*
X136163542Y-72877070D01*
G75*
G02*
X136163542Y-72983136I-53033J-53033D01*
G01*
X136057476Y-73089202D01*
G75*
G02*
X135951410Y-73089202I-53033J53033D01*
G01*
G37*
G36*
G01*
X136304963Y-72735649D02*
X135315013Y-71745699D01*
G75*
G02*
X135315013Y-71639633I53033J53033D01*
G01*
X135421079Y-71533567D01*
G75*
G02*
X135527145Y-71533567I53033J-53033D01*
G01*
X136517095Y-72523517D01*
G75*
G02*
X136517095Y-72629583I-53033J-53033D01*
G01*
X136411029Y-72735649D01*
G75*
G02*
X136304963Y-72735649I-53033J53033D01*
G01*
G37*
G36*
G01*
X136658517Y-72382095D02*
X135668567Y-71392145D01*
G75*
G02*
X135668567Y-71286079I53033J53033D01*
G01*
X135774633Y-71180013D01*
G75*
G02*
X135880699Y-71180013I53033J-53033D01*
G01*
X136870649Y-72169963D01*
G75*
G02*
X136870649Y-72276029I-53033J-53033D01*
G01*
X136764583Y-72382095D01*
G75*
G02*
X136658517Y-72382095I-53033J53033D01*
G01*
G37*
G36*
G01*
X137012070Y-72028542D02*
X136022120Y-71038592D01*
G75*
G02*
X136022120Y-70932526I53033J53033D01*
G01*
X136128186Y-70826460D01*
G75*
G02*
X136234252Y-70826460I53033J-53033D01*
G01*
X137224202Y-71816410D01*
G75*
G02*
X137224202Y-71922476I-53033J-53033D01*
G01*
X137118136Y-72028542D01*
G75*
G02*
X137012070Y-72028542I-53033J53033D01*
G01*
G37*
G36*
G01*
X137365623Y-71674989D02*
X136375673Y-70685039D01*
G75*
G02*
X136375673Y-70578973I53033J53033D01*
G01*
X136481739Y-70472907D01*
G75*
G02*
X136587805Y-70472907I53033J-53033D01*
G01*
X137577755Y-71462857D01*
G75*
G02*
X137577755Y-71568923I-53033J-53033D01*
G01*
X137471689Y-71674989D01*
G75*
G02*
X137365623Y-71674989I-53033J53033D01*
G01*
G37*
G36*
G01*
X137719177Y-71321435D02*
X136729227Y-70331485D01*
G75*
G02*
X136729227Y-70225419I53033J53033D01*
G01*
X136835293Y-70119353D01*
G75*
G02*
X136941359Y-70119353I53033J-53033D01*
G01*
X137931309Y-71109303D01*
G75*
G02*
X137931309Y-71215369I-53033J-53033D01*
G01*
X137825243Y-71321435D01*
G75*
G02*
X137719177Y-71321435I-53033J53033D01*
G01*
G37*
G36*
G01*
X138072730Y-70967882D02*
X137082780Y-69977932D01*
G75*
G02*
X137082780Y-69871866I53033J53033D01*
G01*
X137188846Y-69765800D01*
G75*
G02*
X137294912Y-69765800I53033J-53033D01*
G01*
X138284862Y-70755750D01*
G75*
G02*
X138284862Y-70861816I-53033J-53033D01*
G01*
X138178796Y-70967882D01*
G75*
G02*
X138072730Y-70967882I-53033J53033D01*
G01*
G37*
G36*
G01*
X138426284Y-70614328D02*
X137436334Y-69624378D01*
G75*
G02*
X137436334Y-69518312I53033J53033D01*
G01*
X137542400Y-69412246D01*
G75*
G02*
X137648466Y-69412246I53033J-53033D01*
G01*
X138638416Y-70402196D01*
G75*
G02*
X138638416Y-70508262I-53033J-53033D01*
G01*
X138532350Y-70614328D01*
G75*
G02*
X138426284Y-70614328I-53033J53033D01*
G01*
G37*
G36*
G01*
X138779837Y-70260775D02*
X137789887Y-69270825D01*
G75*
G02*
X137789887Y-69164759I53033J53033D01*
G01*
X137895953Y-69058693D01*
G75*
G02*
X138002019Y-69058693I53033J-53033D01*
G01*
X138991969Y-70048643D01*
G75*
G02*
X138991969Y-70154709I-53033J-53033D01*
G01*
X138885903Y-70260775D01*
G75*
G02*
X138779837Y-70260775I-53033J53033D01*
G01*
G37*
G36*
G01*
X139133390Y-69907222D02*
X138143440Y-68917272D01*
G75*
G02*
X138143440Y-68811206I53033J53033D01*
G01*
X138249506Y-68705140D01*
G75*
G02*
X138355572Y-68705140I53033J-53033D01*
G01*
X139345522Y-69695090D01*
G75*
G02*
X139345522Y-69801156I-53033J-53033D01*
G01*
X139239456Y-69907222D01*
G75*
G02*
X139133390Y-69907222I-53033J53033D01*
G01*
G37*
G36*
G01*
X138249506Y-67184860D02*
X138143440Y-67078794D01*
G75*
G02*
X138143440Y-66972728I53033J53033D01*
G01*
X139133390Y-65982778D01*
G75*
G02*
X139239456Y-65982778I53033J-53033D01*
G01*
X139345522Y-66088844D01*
G75*
G02*
X139345522Y-66194910I-53033J-53033D01*
G01*
X138355572Y-67184860D01*
G75*
G02*
X138249506Y-67184860I-53033J53033D01*
G01*
G37*
G36*
G01*
X137895953Y-66831307D02*
X137789887Y-66725241D01*
G75*
G02*
X137789887Y-66619175I53033J53033D01*
G01*
X138779837Y-65629225D01*
G75*
G02*
X138885903Y-65629225I53033J-53033D01*
G01*
X138991969Y-65735291D01*
G75*
G02*
X138991969Y-65841357I-53033J-53033D01*
G01*
X138002019Y-66831307D01*
G75*
G02*
X137895953Y-66831307I-53033J53033D01*
G01*
G37*
G36*
G01*
X137542400Y-66477754D02*
X137436334Y-66371688D01*
G75*
G02*
X137436334Y-66265622I53033J53033D01*
G01*
X138426284Y-65275672D01*
G75*
G02*
X138532350Y-65275672I53033J-53033D01*
G01*
X138638416Y-65381738D01*
G75*
G02*
X138638416Y-65487804I-53033J-53033D01*
G01*
X137648466Y-66477754D01*
G75*
G02*
X137542400Y-66477754I-53033J53033D01*
G01*
G37*
G36*
G01*
X137188846Y-66124200D02*
X137082780Y-66018134D01*
G75*
G02*
X137082780Y-65912068I53033J53033D01*
G01*
X138072730Y-64922118D01*
G75*
G02*
X138178796Y-64922118I53033J-53033D01*
G01*
X138284862Y-65028184D01*
G75*
G02*
X138284862Y-65134250I-53033J-53033D01*
G01*
X137294912Y-66124200D01*
G75*
G02*
X137188846Y-66124200I-53033J53033D01*
G01*
G37*
G36*
G01*
X136835293Y-65770647D02*
X136729227Y-65664581D01*
G75*
G02*
X136729227Y-65558515I53033J53033D01*
G01*
X137719177Y-64568565D01*
G75*
G02*
X137825243Y-64568565I53033J-53033D01*
G01*
X137931309Y-64674631D01*
G75*
G02*
X137931309Y-64780697I-53033J-53033D01*
G01*
X136941359Y-65770647D01*
G75*
G02*
X136835293Y-65770647I-53033J53033D01*
G01*
G37*
G36*
G01*
X136481739Y-65417093D02*
X136375673Y-65311027D01*
G75*
G02*
X136375673Y-65204961I53033J53033D01*
G01*
X137365623Y-64215011D01*
G75*
G02*
X137471689Y-64215011I53033J-53033D01*
G01*
X137577755Y-64321077D01*
G75*
G02*
X137577755Y-64427143I-53033J-53033D01*
G01*
X136587805Y-65417093D01*
G75*
G02*
X136481739Y-65417093I-53033J53033D01*
G01*
G37*
G36*
G01*
X136128186Y-65063540D02*
X136022120Y-64957474D01*
G75*
G02*
X136022120Y-64851408I53033J53033D01*
G01*
X137012070Y-63861458D01*
G75*
G02*
X137118136Y-63861458I53033J-53033D01*
G01*
X137224202Y-63967524D01*
G75*
G02*
X137224202Y-64073590I-53033J-53033D01*
G01*
X136234252Y-65063540D01*
G75*
G02*
X136128186Y-65063540I-53033J53033D01*
G01*
G37*
G36*
G01*
X135774633Y-64709987D02*
X135668567Y-64603921D01*
G75*
G02*
X135668567Y-64497855I53033J53033D01*
G01*
X136658517Y-63507905D01*
G75*
G02*
X136764583Y-63507905I53033J-53033D01*
G01*
X136870649Y-63613971D01*
G75*
G02*
X136870649Y-63720037I-53033J-53033D01*
G01*
X135880699Y-64709987D01*
G75*
G02*
X135774633Y-64709987I-53033J53033D01*
G01*
G37*
G36*
G01*
X135421079Y-64356433D02*
X135315013Y-64250367D01*
G75*
G02*
X135315013Y-64144301I53033J53033D01*
G01*
X136304963Y-63154351D01*
G75*
G02*
X136411029Y-63154351I53033J-53033D01*
G01*
X136517095Y-63260417D01*
G75*
G02*
X136517095Y-63366483I-53033J-53033D01*
G01*
X135527145Y-64356433D01*
G75*
G02*
X135421079Y-64356433I-53033J53033D01*
G01*
G37*
G36*
G01*
X135067526Y-64002880D02*
X134961460Y-63896814D01*
G75*
G02*
X134961460Y-63790748I53033J53033D01*
G01*
X135951410Y-62800798D01*
G75*
G02*
X136057476Y-62800798I53033J-53033D01*
G01*
X136163542Y-62906864D01*
G75*
G02*
X136163542Y-63012930I-53033J-53033D01*
G01*
X135173592Y-64002880D01*
G75*
G02*
X135067526Y-64002880I-53033J53033D01*
G01*
G37*
G36*
G01*
X134713973Y-63649327D02*
X134607907Y-63543261D01*
G75*
G02*
X134607907Y-63437195I53033J53033D01*
G01*
X135597857Y-62447245D01*
G75*
G02*
X135703923Y-62447245I53033J-53033D01*
G01*
X135809989Y-62553311D01*
G75*
G02*
X135809989Y-62659377I-53033J-53033D01*
G01*
X134820039Y-63649327D01*
G75*
G02*
X134713973Y-63649327I-53033J53033D01*
G01*
G37*
G36*
G01*
X134360419Y-63295773D02*
X134254353Y-63189707D01*
G75*
G02*
X134254353Y-63083641I53033J53033D01*
G01*
X135244303Y-62093691D01*
G75*
G02*
X135350369Y-62093691I53033J-53033D01*
G01*
X135456435Y-62199757D01*
G75*
G02*
X135456435Y-62305823I-53033J-53033D01*
G01*
X134466485Y-63295773D01*
G75*
G02*
X134360419Y-63295773I-53033J53033D01*
G01*
G37*
G36*
G01*
X134006866Y-62942220D02*
X133900800Y-62836154D01*
G75*
G02*
X133900800Y-62730088I53033J53033D01*
G01*
X134890750Y-61740138D01*
G75*
G02*
X134996816Y-61740138I53033J-53033D01*
G01*
X135102882Y-61846204D01*
G75*
G02*
X135102882Y-61952270I-53033J-53033D01*
G01*
X134112932Y-62942220D01*
G75*
G02*
X134006866Y-62942220I-53033J53033D01*
G01*
G37*
G36*
G01*
X133653312Y-62588666D02*
X133547246Y-62482600D01*
G75*
G02*
X133547246Y-62376534I53033J53033D01*
G01*
X134537196Y-61386584D01*
G75*
G02*
X134643262Y-61386584I53033J-53033D01*
G01*
X134749328Y-61492650D01*
G75*
G02*
X134749328Y-61598716I-53033J-53033D01*
G01*
X133759378Y-62588666D01*
G75*
G02*
X133653312Y-62588666I-53033J53033D01*
G01*
G37*
G36*
G01*
X133299759Y-62235113D02*
X133193693Y-62129047D01*
G75*
G02*
X133193693Y-62022981I53033J53033D01*
G01*
X134183643Y-61033031D01*
G75*
G02*
X134289709Y-61033031I53033J-53033D01*
G01*
X134395775Y-61139097D01*
G75*
G02*
X134395775Y-61245163I-53033J-53033D01*
G01*
X133405825Y-62235113D01*
G75*
G02*
X133299759Y-62235113I-53033J53033D01*
G01*
G37*
G36*
G01*
X132946206Y-61881560D02*
X132840140Y-61775494D01*
G75*
G02*
X132840140Y-61669428I53033J53033D01*
G01*
X133830090Y-60679478D01*
G75*
G02*
X133936156Y-60679478I53033J-53033D01*
G01*
X134042222Y-60785544D01*
G75*
G02*
X134042222Y-60891610I-53033J-53033D01*
G01*
X133052272Y-61881560D01*
G75*
G02*
X132946206Y-61881560I-53033J53033D01*
G01*
G37*
G36*
G01*
X131107728Y-61881560D02*
X130117778Y-60891610D01*
G75*
G02*
X130117778Y-60785544I53033J53033D01*
G01*
X130223844Y-60679478D01*
G75*
G02*
X130329910Y-60679478I53033J-53033D01*
G01*
X131319860Y-61669428D01*
G75*
G02*
X131319860Y-61775494I-53033J-53033D01*
G01*
X131213794Y-61881560D01*
G75*
G02*
X131107728Y-61881560I-53033J53033D01*
G01*
G37*
G36*
G01*
X130754175Y-62235113D02*
X129764225Y-61245163D01*
G75*
G02*
X129764225Y-61139097I53033J53033D01*
G01*
X129870291Y-61033031D01*
G75*
G02*
X129976357Y-61033031I53033J-53033D01*
G01*
X130966307Y-62022981D01*
G75*
G02*
X130966307Y-62129047I-53033J-53033D01*
G01*
X130860241Y-62235113D01*
G75*
G02*
X130754175Y-62235113I-53033J53033D01*
G01*
G37*
G36*
G01*
X130400622Y-62588666D02*
X129410672Y-61598716D01*
G75*
G02*
X129410672Y-61492650I53033J53033D01*
G01*
X129516738Y-61386584D01*
G75*
G02*
X129622804Y-61386584I53033J-53033D01*
G01*
X130612754Y-62376534D01*
G75*
G02*
X130612754Y-62482600I-53033J-53033D01*
G01*
X130506688Y-62588666D01*
G75*
G02*
X130400622Y-62588666I-53033J53033D01*
G01*
G37*
G36*
G01*
X130047068Y-62942220D02*
X129057118Y-61952270D01*
G75*
G02*
X129057118Y-61846204I53033J53033D01*
G01*
X129163184Y-61740138D01*
G75*
G02*
X129269250Y-61740138I53033J-53033D01*
G01*
X130259200Y-62730088D01*
G75*
G02*
X130259200Y-62836154I-53033J-53033D01*
G01*
X130153134Y-62942220D01*
G75*
G02*
X130047068Y-62942220I-53033J53033D01*
G01*
G37*
G36*
G01*
X129693515Y-63295773D02*
X128703565Y-62305823D01*
G75*
G02*
X128703565Y-62199757I53033J53033D01*
G01*
X128809631Y-62093691D01*
G75*
G02*
X128915697Y-62093691I53033J-53033D01*
G01*
X129905647Y-63083641D01*
G75*
G02*
X129905647Y-63189707I-53033J-53033D01*
G01*
X129799581Y-63295773D01*
G75*
G02*
X129693515Y-63295773I-53033J53033D01*
G01*
G37*
G36*
G01*
X129339961Y-63649327D02*
X128350011Y-62659377D01*
G75*
G02*
X128350011Y-62553311I53033J53033D01*
G01*
X128456077Y-62447245D01*
G75*
G02*
X128562143Y-62447245I53033J-53033D01*
G01*
X129552093Y-63437195D01*
G75*
G02*
X129552093Y-63543261I-53033J-53033D01*
G01*
X129446027Y-63649327D01*
G75*
G02*
X129339961Y-63649327I-53033J53033D01*
G01*
G37*
G36*
G01*
X128986408Y-64002880D02*
X127996458Y-63012930D01*
G75*
G02*
X127996458Y-62906864I53033J53033D01*
G01*
X128102524Y-62800798D01*
G75*
G02*
X128208590Y-62800798I53033J-53033D01*
G01*
X129198540Y-63790748D01*
G75*
G02*
X129198540Y-63896814I-53033J-53033D01*
G01*
X129092474Y-64002880D01*
G75*
G02*
X128986408Y-64002880I-53033J53033D01*
G01*
G37*
G36*
G01*
X128632855Y-64356433D02*
X127642905Y-63366483D01*
G75*
G02*
X127642905Y-63260417I53033J53033D01*
G01*
X127748971Y-63154351D01*
G75*
G02*
X127855037Y-63154351I53033J-53033D01*
G01*
X128844987Y-64144301D01*
G75*
G02*
X128844987Y-64250367I-53033J-53033D01*
G01*
X128738921Y-64356433D01*
G75*
G02*
X128632855Y-64356433I-53033J53033D01*
G01*
G37*
G36*
G01*
X128279301Y-64709987D02*
X127289351Y-63720037D01*
G75*
G02*
X127289351Y-63613971I53033J53033D01*
G01*
X127395417Y-63507905D01*
G75*
G02*
X127501483Y-63507905I53033J-53033D01*
G01*
X128491433Y-64497855D01*
G75*
G02*
X128491433Y-64603921I-53033J-53033D01*
G01*
X128385367Y-64709987D01*
G75*
G02*
X128279301Y-64709987I-53033J53033D01*
G01*
G37*
G36*
G01*
X127925748Y-65063540D02*
X126935798Y-64073590D01*
G75*
G02*
X126935798Y-63967524I53033J53033D01*
G01*
X127041864Y-63861458D01*
G75*
G02*
X127147930Y-63861458I53033J-53033D01*
G01*
X128137880Y-64851408D01*
G75*
G02*
X128137880Y-64957474I-53033J-53033D01*
G01*
X128031814Y-65063540D01*
G75*
G02*
X127925748Y-65063540I-53033J53033D01*
G01*
G37*
G36*
G01*
X127572195Y-65417093D02*
X126582245Y-64427143D01*
G75*
G02*
X126582245Y-64321077I53033J53033D01*
G01*
X126688311Y-64215011D01*
G75*
G02*
X126794377Y-64215011I53033J-53033D01*
G01*
X127784327Y-65204961D01*
G75*
G02*
X127784327Y-65311027I-53033J-53033D01*
G01*
X127678261Y-65417093D01*
G75*
G02*
X127572195Y-65417093I-53033J53033D01*
G01*
G37*
G36*
G01*
X127218641Y-65770647D02*
X126228691Y-64780697D01*
G75*
G02*
X126228691Y-64674631I53033J53033D01*
G01*
X126334757Y-64568565D01*
G75*
G02*
X126440823Y-64568565I53033J-53033D01*
G01*
X127430773Y-65558515D01*
G75*
G02*
X127430773Y-65664581I-53033J-53033D01*
G01*
X127324707Y-65770647D01*
G75*
G02*
X127218641Y-65770647I-53033J53033D01*
G01*
G37*
G36*
G01*
X126865088Y-66124200D02*
X125875138Y-65134250D01*
G75*
G02*
X125875138Y-65028184I53033J53033D01*
G01*
X125981204Y-64922118D01*
G75*
G02*
X126087270Y-64922118I53033J-53033D01*
G01*
X127077220Y-65912068D01*
G75*
G02*
X127077220Y-66018134I-53033J-53033D01*
G01*
X126971154Y-66124200D01*
G75*
G02*
X126865088Y-66124200I-53033J53033D01*
G01*
G37*
G36*
G01*
X126511534Y-66477754D02*
X125521584Y-65487804D01*
G75*
G02*
X125521584Y-65381738I53033J53033D01*
G01*
X125627650Y-65275672D01*
G75*
G02*
X125733716Y-65275672I53033J-53033D01*
G01*
X126723666Y-66265622D01*
G75*
G02*
X126723666Y-66371688I-53033J-53033D01*
G01*
X126617600Y-66477754D01*
G75*
G02*
X126511534Y-66477754I-53033J53033D01*
G01*
G37*
G36*
G01*
X126157981Y-66831307D02*
X125168031Y-65841357D01*
G75*
G02*
X125168031Y-65735291I53033J53033D01*
G01*
X125274097Y-65629225D01*
G75*
G02*
X125380163Y-65629225I53033J-53033D01*
G01*
X126370113Y-66619175D01*
G75*
G02*
X126370113Y-66725241I-53033J-53033D01*
G01*
X126264047Y-66831307D01*
G75*
G02*
X126157981Y-66831307I-53033J53033D01*
G01*
G37*
G36*
G01*
X125804428Y-67184860D02*
X124814478Y-66194910D01*
G75*
G02*
X124814478Y-66088844I53033J53033D01*
G01*
X124920544Y-65982778D01*
G75*
G02*
X125026610Y-65982778I53033J-53033D01*
G01*
X126016560Y-66972728D01*
G75*
G02*
X126016560Y-67078794I-53033J-53033D01*
G01*
X125910494Y-67184860D01*
G75*
G02*
X125804428Y-67184860I-53033J53033D01*
G01*
G37*
%TD*%
D10*
%TO.C,TPVLIPO1*%
X53975000Y-107315000D03*
%TD*%
%TO.C,TPVIN5*%
X74930000Y-105410000D03*
%TD*%
%TO.C,TPVEXT1*%
X76200000Y-75565000D03*
%TD*%
%TO.C,TPVBUS5*%
X53975000Y-102235000D03*
%TD*%
%TO.C,TPMV3*%
X102235000Y-103505000D03*
%TD*%
%TO.C,TPMV0*%
X102235000Y-111125000D03*
%TD*%
%TO.C,TPGND1*%
X53975000Y-135890000D03*
%TD*%
%TO.C,TPGLIPO1*%
X53975000Y-121920000D03*
%TD*%
%TO.C,TPGEXT1*%
X76200000Y-83185000D03*
%TD*%
%TO.C,TP3V3*%
X53975000Y-130810000D03*
%TD*%
%TO.C,TP2A1*%
X197485000Y-84455000D03*
%TD*%
%TO.C,TP62*%
X177800000Y-99695000D03*
%TD*%
%TO.C,TP61*%
X177800000Y-95885000D03*
%TD*%
%TO.C,TP59*%
X74930000Y-62230000D03*
%TD*%
%TO.C,TP58*%
X78740000Y-60325000D03*
%TD*%
%TO.C,TP57*%
X78740000Y-56515000D03*
%TD*%
%TO.C,TP56*%
X137160000Y-135255000D03*
%TD*%
%TO.C,TP54*%
X110490000Y-32385000D03*
%TD*%
%TO.C,TP53*%
X106045000Y-29845000D03*
%TD*%
%TO.C,TP52*%
X106045000Y-37465000D03*
%TD*%
%TO.C,TP51*%
X110490000Y-40005000D03*
%TD*%
%TO.C,TP50*%
X132080000Y-132715000D03*
%TD*%
%TO.C,TP49*%
X137160000Y-127635000D03*
%TD*%
%TO.C,TP46*%
X132080000Y-125095000D03*
%TD*%
%TO.C,TP41*%
X110490000Y-47625000D03*
%TD*%
%TO.C,TP40*%
X106045000Y-22225000D03*
%TD*%
%TO.C,TP39*%
X110490000Y-24765000D03*
%TD*%
%TO.C,TP38*%
X212090000Y-116205000D03*
%TD*%
%TO.C,TP37*%
X208280000Y-114300000D03*
%TD*%
%TO.C,TP36*%
X173355000Y-76835000D03*
%TD*%
%TO.C,TP35*%
X168910000Y-74295000D03*
%TD*%
%TO.C,TP34*%
X168910000Y-62230000D03*
%TD*%
%TO.C,TP33*%
X173355000Y-59055000D03*
%TD*%
%TO.C,TP30*%
X181610000Y-55245000D03*
%TD*%
%TO.C,TP29*%
X181610000Y-51435000D03*
%TD*%
%TO.C,TP28*%
X74930000Y-58420000D03*
%TD*%
%TO.C,TP27*%
X177800000Y-62230000D03*
%TD*%
%TO.C,TP26*%
X177800000Y-74295000D03*
%TD*%
%TO.C,TP25*%
X212090000Y-112395000D03*
%TD*%
%TO.C,TP24*%
X208280000Y-110490000D03*
%TD*%
%TO.C,TP23*%
X177165000Y-47625000D03*
%TD*%
%TO.C,TP22*%
X177165000Y-43815000D03*
%TD*%
%TO.C,TP21*%
X177165000Y-40005000D03*
%TD*%
%TO.C,TP20*%
X177165000Y-36195000D03*
%TD*%
%TO.C,TP17*%
X151765000Y-31115000D03*
%TD*%
%TO.C,TP16*%
X151765000Y-27305000D03*
%TD*%
%TO.C,TP15*%
X101600000Y-48895000D03*
%TD*%
%TO.C,TP14*%
X101600000Y-45085000D03*
%TD*%
%TO.C,TP11*%
X212090000Y-108585000D03*
%TD*%
%TO.C,TP10*%
X208280000Y-106680000D03*
%TD*%
%TO.C,TP9*%
X212090000Y-104775000D03*
%TD*%
%TO.C,TP8*%
X208280000Y-102870000D03*
%TD*%
%TO.C,TP2*%
X173355000Y-81915000D03*
%TD*%
%TO.C,SW102*%
X199285000Y-112315000D03*
X199285000Y-107315000D03*
D26*
X192285000Y-115415000D03*
X192285000Y-104215000D03*
D10*
X184785000Y-112315000D03*
X184785000Y-109815000D03*
D12*
X184785000Y-107315000D03*
%TD*%
D10*
%TO.C,SW4*%
X199445000Y-130810000D03*
X194945000Y-130810000D03*
X199445000Y-124310000D03*
X194945000Y-124310000D03*
%TD*%
%TO.C,SW3*%
X189920000Y-130810000D03*
X185420000Y-130810000D03*
X189920000Y-124310000D03*
X185420000Y-124310000D03*
%TD*%
%TO.C,R137*%
G36*
G01*
X127235000Y-117024999D02*
X127235000Y-117925001D01*
G75*
G02*
X126985001Y-118175000I-249999J0D01*
G01*
X126459999Y-118175000D01*
G75*
G02*
X126210000Y-117925001I0J249999D01*
G01*
X126210000Y-117024999D01*
G75*
G02*
X126459999Y-116775000I249999J0D01*
G01*
X126985001Y-116775000D01*
G75*
G02*
X127235000Y-117024999I0J-249999D01*
G01*
G37*
G36*
G01*
X129060000Y-117024999D02*
X129060000Y-117925001D01*
G75*
G02*
X128810001Y-118175000I-249999J0D01*
G01*
X128284999Y-118175000D01*
G75*
G02*
X128035000Y-117925001I0J249999D01*
G01*
X128035000Y-117024999D01*
G75*
G02*
X128284999Y-116775000I249999J0D01*
G01*
X128810001Y-116775000D01*
G75*
G02*
X129060000Y-117024999I0J-249999D01*
G01*
G37*
%TD*%
%TO.C,R128*%
G36*
G01*
X127235000Y-119564999D02*
X127235000Y-120465001D01*
G75*
G02*
X126985001Y-120715000I-249999J0D01*
G01*
X126459999Y-120715000D01*
G75*
G02*
X126210000Y-120465001I0J249999D01*
G01*
X126210000Y-119564999D01*
G75*
G02*
X126459999Y-119315000I249999J0D01*
G01*
X126985001Y-119315000D01*
G75*
G02*
X127235000Y-119564999I0J-249999D01*
G01*
G37*
G36*
G01*
X129060000Y-119564999D02*
X129060000Y-120465001D01*
G75*
G02*
X128810001Y-120715000I-249999J0D01*
G01*
X128284999Y-120715000D01*
G75*
G02*
X128035000Y-120465001I0J249999D01*
G01*
X128035000Y-119564999D01*
G75*
G02*
X128284999Y-119315000I249999J0D01*
G01*
X128810001Y-119315000D01*
G75*
G02*
X129060000Y-119564999I0J-249999D01*
G01*
G37*
%TD*%
%TO.C,R126*%
G36*
G01*
X127108000Y-111817999D02*
X127108000Y-112718001D01*
G75*
G02*
X126858001Y-112968000I-249999J0D01*
G01*
X126332999Y-112968000D01*
G75*
G02*
X126083000Y-112718001I0J249999D01*
G01*
X126083000Y-111817999D01*
G75*
G02*
X126332999Y-111568000I249999J0D01*
G01*
X126858001Y-111568000D01*
G75*
G02*
X127108000Y-111817999I0J-249999D01*
G01*
G37*
G36*
G01*
X128933000Y-111817999D02*
X128933000Y-112718001D01*
G75*
G02*
X128683001Y-112968000I-249999J0D01*
G01*
X128157999Y-112968000D01*
G75*
G02*
X127908000Y-112718001I0J249999D01*
G01*
X127908000Y-111817999D01*
G75*
G02*
X128157999Y-111568000I249999J0D01*
G01*
X128683001Y-111568000D01*
G75*
G02*
X128933000Y-111817999I0J-249999D01*
G01*
G37*
%TD*%
%TO.C,R125*%
G36*
G01*
X127108000Y-109277999D02*
X127108000Y-110178001D01*
G75*
G02*
X126858001Y-110428000I-249999J0D01*
G01*
X126332999Y-110428000D01*
G75*
G02*
X126083000Y-110178001I0J249999D01*
G01*
X126083000Y-109277999D01*
G75*
G02*
X126332999Y-109028000I249999J0D01*
G01*
X126858001Y-109028000D01*
G75*
G02*
X127108000Y-109277999I0J-249999D01*
G01*
G37*
G36*
G01*
X128933000Y-109277999D02*
X128933000Y-110178001D01*
G75*
G02*
X128683001Y-110428000I-249999J0D01*
G01*
X128157999Y-110428000D01*
G75*
G02*
X127908000Y-110178001I0J249999D01*
G01*
X127908000Y-109277999D01*
G75*
G02*
X128157999Y-109028000I249999J0D01*
G01*
X128683001Y-109028000D01*
G75*
G02*
X128933000Y-109277999I0J-249999D01*
G01*
G37*
%TD*%
%TO.C,R124*%
G36*
G01*
X127108000Y-104197999D02*
X127108000Y-105098001D01*
G75*
G02*
X126858001Y-105348000I-249999J0D01*
G01*
X126332999Y-105348000D01*
G75*
G02*
X126083000Y-105098001I0J249999D01*
G01*
X126083000Y-104197999D01*
G75*
G02*
X126332999Y-103948000I249999J0D01*
G01*
X126858001Y-103948000D01*
G75*
G02*
X127108000Y-104197999I0J-249999D01*
G01*
G37*
G36*
G01*
X128933000Y-104197999D02*
X128933000Y-105098001D01*
G75*
G02*
X128683001Y-105348000I-249999J0D01*
G01*
X128157999Y-105348000D01*
G75*
G02*
X127908000Y-105098001I0J249999D01*
G01*
X127908000Y-104197999D01*
G75*
G02*
X128157999Y-103948000I249999J0D01*
G01*
X128683001Y-103948000D01*
G75*
G02*
X128933000Y-104197999I0J-249999D01*
G01*
G37*
%TD*%
%TO.C,R123*%
G36*
G01*
X127108000Y-101657999D02*
X127108000Y-102558001D01*
G75*
G02*
X126858001Y-102808000I-249999J0D01*
G01*
X126332999Y-102808000D01*
G75*
G02*
X126083000Y-102558001I0J249999D01*
G01*
X126083000Y-101657999D01*
G75*
G02*
X126332999Y-101408000I249999J0D01*
G01*
X126858001Y-101408000D01*
G75*
G02*
X127108000Y-101657999I0J-249999D01*
G01*
G37*
G36*
G01*
X128933000Y-101657999D02*
X128933000Y-102558001D01*
G75*
G02*
X128683001Y-102808000I-249999J0D01*
G01*
X128157999Y-102808000D01*
G75*
G02*
X127908000Y-102558001I0J249999D01*
G01*
X127908000Y-101657999D01*
G75*
G02*
X128157999Y-101408000I249999J0D01*
G01*
X128683001Y-101408000D01*
G75*
G02*
X128933000Y-101657999I0J-249999D01*
G01*
G37*
%TD*%
%TO.C,R121*%
G36*
G01*
X127235000Y-96577999D02*
X127235000Y-97478001D01*
G75*
G02*
X126985001Y-97728000I-249999J0D01*
G01*
X126459999Y-97728000D01*
G75*
G02*
X126210000Y-97478001I0J249999D01*
G01*
X126210000Y-96577999D01*
G75*
G02*
X126459999Y-96328000I249999J0D01*
G01*
X126985001Y-96328000D01*
G75*
G02*
X127235000Y-96577999I0J-249999D01*
G01*
G37*
G36*
G01*
X129060000Y-96577999D02*
X129060000Y-97478001D01*
G75*
G02*
X128810001Y-97728000I-249999J0D01*
G01*
X128284999Y-97728000D01*
G75*
G02*
X128035000Y-97478001I0J249999D01*
G01*
X128035000Y-96577999D01*
G75*
G02*
X128284999Y-96328000I249999J0D01*
G01*
X128810001Y-96328000D01*
G75*
G02*
X129060000Y-96577999I0J-249999D01*
G01*
G37*
%TD*%
%TO.C,R120*%
G36*
G01*
X127235000Y-94164999D02*
X127235000Y-95065001D01*
G75*
G02*
X126985001Y-95315000I-249999J0D01*
G01*
X126459999Y-95315000D01*
G75*
G02*
X126210000Y-95065001I0J249999D01*
G01*
X126210000Y-94164999D01*
G75*
G02*
X126459999Y-93915000I249999J0D01*
G01*
X126985001Y-93915000D01*
G75*
G02*
X127235000Y-94164999I0J-249999D01*
G01*
G37*
G36*
G01*
X129060000Y-94164999D02*
X129060000Y-95065001D01*
G75*
G02*
X128810001Y-95315000I-249999J0D01*
G01*
X128284999Y-95315000D01*
G75*
G02*
X128035000Y-95065001I0J249999D01*
G01*
X128035000Y-94164999D01*
G75*
G02*
X128284999Y-93915000I249999J0D01*
G01*
X128810001Y-93915000D01*
G75*
G02*
X129060000Y-94164999I0J-249999D01*
G01*
G37*
%TD*%
%TO.C,R117*%
G36*
G01*
X217405000Y-115754999D02*
X217405000Y-116655001D01*
G75*
G02*
X217155001Y-116905000I-249999J0D01*
G01*
X216629999Y-116905000D01*
G75*
G02*
X216380000Y-116655001I0J249999D01*
G01*
X216380000Y-115754999D01*
G75*
G02*
X216629999Y-115505000I249999J0D01*
G01*
X217155001Y-115505000D01*
G75*
G02*
X217405000Y-115754999I0J-249999D01*
G01*
G37*
G36*
G01*
X219230000Y-115754999D02*
X219230000Y-116655001D01*
G75*
G02*
X218980001Y-116905000I-249999J0D01*
G01*
X218454999Y-116905000D01*
G75*
G02*
X218205000Y-116655001I0J249999D01*
G01*
X218205000Y-115754999D01*
G75*
G02*
X218454999Y-115505000I249999J0D01*
G01*
X218980001Y-115505000D01*
G75*
G02*
X219230000Y-115754999I0J-249999D01*
G01*
G37*
%TD*%
%TO.C,R116*%
G36*
G01*
X217405000Y-113849999D02*
X217405000Y-114750001D01*
G75*
G02*
X217155001Y-115000000I-249999J0D01*
G01*
X216629999Y-115000000D01*
G75*
G02*
X216380000Y-114750001I0J249999D01*
G01*
X216380000Y-113849999D01*
G75*
G02*
X216629999Y-113600000I249999J0D01*
G01*
X217155001Y-113600000D01*
G75*
G02*
X217405000Y-113849999I0J-249999D01*
G01*
G37*
G36*
G01*
X219230000Y-113849999D02*
X219230000Y-114750001D01*
G75*
G02*
X218980001Y-115000000I-249999J0D01*
G01*
X218454999Y-115000000D01*
G75*
G02*
X218205000Y-114750001I0J249999D01*
G01*
X218205000Y-113849999D01*
G75*
G02*
X218454999Y-113600000I249999J0D01*
G01*
X218980001Y-113600000D01*
G75*
G02*
X219230000Y-113849999I0J-249999D01*
G01*
G37*
%TD*%
%TO.C,R115*%
G36*
G01*
X217405000Y-111944999D02*
X217405000Y-112845001D01*
G75*
G02*
X217155001Y-113095000I-249999J0D01*
G01*
X216629999Y-113095000D01*
G75*
G02*
X216380000Y-112845001I0J249999D01*
G01*
X216380000Y-111944999D01*
G75*
G02*
X216629999Y-111695000I249999J0D01*
G01*
X217155001Y-111695000D01*
G75*
G02*
X217405000Y-111944999I0J-249999D01*
G01*
G37*
G36*
G01*
X219230000Y-111944999D02*
X219230000Y-112845001D01*
G75*
G02*
X218980001Y-113095000I-249999J0D01*
G01*
X218454999Y-113095000D01*
G75*
G02*
X218205000Y-112845001I0J249999D01*
G01*
X218205000Y-111944999D01*
G75*
G02*
X218454999Y-111695000I249999J0D01*
G01*
X218980001Y-111695000D01*
G75*
G02*
X219230000Y-111944999I0J-249999D01*
G01*
G37*
%TD*%
%TO.C,R114*%
G36*
G01*
X217405000Y-110039999D02*
X217405000Y-110940001D01*
G75*
G02*
X217155001Y-111190000I-249999J0D01*
G01*
X216629999Y-111190000D01*
G75*
G02*
X216380000Y-110940001I0J249999D01*
G01*
X216380000Y-110039999D01*
G75*
G02*
X216629999Y-109790000I249999J0D01*
G01*
X217155001Y-109790000D01*
G75*
G02*
X217405000Y-110039999I0J-249999D01*
G01*
G37*
G36*
G01*
X219230000Y-110039999D02*
X219230000Y-110940001D01*
G75*
G02*
X218980001Y-111190000I-249999J0D01*
G01*
X218454999Y-111190000D01*
G75*
G02*
X218205000Y-110940001I0J249999D01*
G01*
X218205000Y-110039999D01*
G75*
G02*
X218454999Y-109790000I249999J0D01*
G01*
X218980001Y-109790000D01*
G75*
G02*
X219230000Y-110039999I0J-249999D01*
G01*
G37*
%TD*%
%TO.C,R113*%
G36*
G01*
X217405000Y-108134999D02*
X217405000Y-109035001D01*
G75*
G02*
X217155001Y-109285000I-249999J0D01*
G01*
X216629999Y-109285000D01*
G75*
G02*
X216380000Y-109035001I0J249999D01*
G01*
X216380000Y-108134999D01*
G75*
G02*
X216629999Y-107885000I249999J0D01*
G01*
X217155001Y-107885000D01*
G75*
G02*
X217405000Y-108134999I0J-249999D01*
G01*
G37*
G36*
G01*
X219230000Y-108134999D02*
X219230000Y-109035001D01*
G75*
G02*
X218980001Y-109285000I-249999J0D01*
G01*
X218454999Y-109285000D01*
G75*
G02*
X218205000Y-109035001I0J249999D01*
G01*
X218205000Y-108134999D01*
G75*
G02*
X218454999Y-107885000I249999J0D01*
G01*
X218980001Y-107885000D01*
G75*
G02*
X219230000Y-108134999I0J-249999D01*
G01*
G37*
%TD*%
%TO.C,R112*%
G36*
G01*
X217405000Y-106229999D02*
X217405000Y-107130001D01*
G75*
G02*
X217155001Y-107380000I-249999J0D01*
G01*
X216629999Y-107380000D01*
G75*
G02*
X216380000Y-107130001I0J249999D01*
G01*
X216380000Y-106229999D01*
G75*
G02*
X216629999Y-105980000I249999J0D01*
G01*
X217155001Y-105980000D01*
G75*
G02*
X217405000Y-106229999I0J-249999D01*
G01*
G37*
G36*
G01*
X219230000Y-106229999D02*
X219230000Y-107130001D01*
G75*
G02*
X218980001Y-107380000I-249999J0D01*
G01*
X218454999Y-107380000D01*
G75*
G02*
X218205000Y-107130001I0J249999D01*
G01*
X218205000Y-106229999D01*
G75*
G02*
X218454999Y-105980000I249999J0D01*
G01*
X218980001Y-105980000D01*
G75*
G02*
X219230000Y-106229999I0J-249999D01*
G01*
G37*
%TD*%
%TO.C,R111*%
G36*
G01*
X217405000Y-104324999D02*
X217405000Y-105225001D01*
G75*
G02*
X217155001Y-105475000I-249999J0D01*
G01*
X216629999Y-105475000D01*
G75*
G02*
X216380000Y-105225001I0J249999D01*
G01*
X216380000Y-104324999D01*
G75*
G02*
X216629999Y-104075000I249999J0D01*
G01*
X217155001Y-104075000D01*
G75*
G02*
X217405000Y-104324999I0J-249999D01*
G01*
G37*
G36*
G01*
X219230000Y-104324999D02*
X219230000Y-105225001D01*
G75*
G02*
X218980001Y-105475000I-249999J0D01*
G01*
X218454999Y-105475000D01*
G75*
G02*
X218205000Y-105225001I0J249999D01*
G01*
X218205000Y-104324999D01*
G75*
G02*
X218454999Y-104075000I249999J0D01*
G01*
X218980001Y-104075000D01*
G75*
G02*
X219230000Y-104324999I0J-249999D01*
G01*
G37*
%TD*%
%TO.C,R110*%
G36*
G01*
X217405000Y-102419999D02*
X217405000Y-103320001D01*
G75*
G02*
X217155001Y-103570000I-249999J0D01*
G01*
X216629999Y-103570000D01*
G75*
G02*
X216380000Y-103320001I0J249999D01*
G01*
X216380000Y-102419999D01*
G75*
G02*
X216629999Y-102170000I249999J0D01*
G01*
X217155001Y-102170000D01*
G75*
G02*
X217405000Y-102419999I0J-249999D01*
G01*
G37*
G36*
G01*
X219230000Y-102419999D02*
X219230000Y-103320001D01*
G75*
G02*
X218980001Y-103570000I-249999J0D01*
G01*
X218454999Y-103570000D01*
G75*
G02*
X218205000Y-103320001I0J249999D01*
G01*
X218205000Y-102419999D01*
G75*
G02*
X218454999Y-102170000I249999J0D01*
G01*
X218980001Y-102170000D01*
G75*
G02*
X219230000Y-102419999I0J-249999D01*
G01*
G37*
%TD*%
%TO.C,R109*%
G36*
G01*
X168675000Y-82365001D02*
X168675000Y-81464999D01*
G75*
G02*
X168924999Y-81215000I249999J0D01*
G01*
X169450001Y-81215000D01*
G75*
G02*
X169700000Y-81464999I0J-249999D01*
G01*
X169700000Y-82365001D01*
G75*
G02*
X169450001Y-82615000I-249999J0D01*
G01*
X168924999Y-82615000D01*
G75*
G02*
X168675000Y-82365001I0J249999D01*
G01*
G37*
G36*
G01*
X166850000Y-82365001D02*
X166850000Y-81464999D01*
G75*
G02*
X167099999Y-81215000I249999J0D01*
G01*
X167625001Y-81215000D01*
G75*
G02*
X167875000Y-81464999I0J-249999D01*
G01*
X167875000Y-82365001D01*
G75*
G02*
X167625001Y-82615000I-249999J0D01*
G01*
X167099999Y-82615000D01*
G75*
G02*
X166850000Y-82365001I0J249999D01*
G01*
G37*
%TD*%
%TO.C,R108*%
G36*
G01*
X167875000Y-98609999D02*
X167875000Y-99510001D01*
G75*
G02*
X167625001Y-99760000I-249999J0D01*
G01*
X167099999Y-99760000D01*
G75*
G02*
X166850000Y-99510001I0J249999D01*
G01*
X166850000Y-98609999D01*
G75*
G02*
X167099999Y-98360000I249999J0D01*
G01*
X167625001Y-98360000D01*
G75*
G02*
X167875000Y-98609999I0J-249999D01*
G01*
G37*
G36*
G01*
X169700000Y-98609999D02*
X169700000Y-99510001D01*
G75*
G02*
X169450001Y-99760000I-249999J0D01*
G01*
X168924999Y-99760000D01*
G75*
G02*
X168675000Y-99510001I0J249999D01*
G01*
X168675000Y-98609999D01*
G75*
G02*
X168924999Y-98360000I249999J0D01*
G01*
X169450001Y-98360000D01*
G75*
G02*
X169700000Y-98609999I0J-249999D01*
G01*
G37*
%TD*%
%TO.C,R107*%
G36*
G01*
X168675000Y-96970001D02*
X168675000Y-96069999D01*
G75*
G02*
X168924999Y-95820000I249999J0D01*
G01*
X169450001Y-95820000D01*
G75*
G02*
X169700000Y-96069999I0J-249999D01*
G01*
X169700000Y-96970001D01*
G75*
G02*
X169450001Y-97220000I-249999J0D01*
G01*
X168924999Y-97220000D01*
G75*
G02*
X168675000Y-96970001I0J249999D01*
G01*
G37*
G36*
G01*
X166850000Y-96970001D02*
X166850000Y-96069999D01*
G75*
G02*
X167099999Y-95820000I249999J0D01*
G01*
X167625001Y-95820000D01*
G75*
G02*
X167875000Y-96069999I0J-249999D01*
G01*
X167875000Y-96970001D01*
G75*
G02*
X167625001Y-97220000I-249999J0D01*
G01*
X167099999Y-97220000D01*
G75*
G02*
X166850000Y-96970001I0J249999D01*
G01*
G37*
%TD*%
%TO.C,R106*%
G36*
G01*
X167875000Y-31934999D02*
X167875000Y-32835001D01*
G75*
G02*
X167625001Y-33085000I-249999J0D01*
G01*
X167099999Y-33085000D01*
G75*
G02*
X166850000Y-32835001I0J249999D01*
G01*
X166850000Y-31934999D01*
G75*
G02*
X167099999Y-31685000I249999J0D01*
G01*
X167625001Y-31685000D01*
G75*
G02*
X167875000Y-31934999I0J-249999D01*
G01*
G37*
G36*
G01*
X169700000Y-31934999D02*
X169700000Y-32835001D01*
G75*
G02*
X169450001Y-33085000I-249999J0D01*
G01*
X168924999Y-33085000D01*
G75*
G02*
X168675000Y-32835001I0J249999D01*
G01*
X168675000Y-31934999D01*
G75*
G02*
X168924999Y-31685000I249999J0D01*
G01*
X169450001Y-31685000D01*
G75*
G02*
X169700000Y-31934999I0J-249999D01*
G01*
G37*
%TD*%
%TO.C,R105*%
G36*
G01*
X168675000Y-30930001D02*
X168675000Y-30029999D01*
G75*
G02*
X168924999Y-29780000I249999J0D01*
G01*
X169450001Y-29780000D01*
G75*
G02*
X169700000Y-30029999I0J-249999D01*
G01*
X169700000Y-30930001D01*
G75*
G02*
X169450001Y-31180000I-249999J0D01*
G01*
X168924999Y-31180000D01*
G75*
G02*
X168675000Y-30930001I0J249999D01*
G01*
G37*
G36*
G01*
X166850000Y-30930001D02*
X166850000Y-30029999D01*
G75*
G02*
X167099999Y-29780000I249999J0D01*
G01*
X167625001Y-29780000D01*
G75*
G02*
X167875000Y-30029999I0J-249999D01*
G01*
X167875000Y-30930001D01*
G75*
G02*
X167625001Y-31180000I-249999J0D01*
G01*
X167099999Y-31180000D01*
G75*
G02*
X166850000Y-30930001I0J249999D01*
G01*
G37*
%TD*%
%TO.C,R104*%
G36*
G01*
X167875000Y-25584999D02*
X167875000Y-26485001D01*
G75*
G02*
X167625001Y-26735000I-249999J0D01*
G01*
X167099999Y-26735000D01*
G75*
G02*
X166850000Y-26485001I0J249999D01*
G01*
X166850000Y-25584999D01*
G75*
G02*
X167099999Y-25335000I249999J0D01*
G01*
X167625001Y-25335000D01*
G75*
G02*
X167875000Y-25584999I0J-249999D01*
G01*
G37*
G36*
G01*
X169700000Y-25584999D02*
X169700000Y-26485001D01*
G75*
G02*
X169450001Y-26735000I-249999J0D01*
G01*
X168924999Y-26735000D01*
G75*
G02*
X168675000Y-26485001I0J249999D01*
G01*
X168675000Y-25584999D01*
G75*
G02*
X168924999Y-25335000I249999J0D01*
G01*
X169450001Y-25335000D01*
G75*
G02*
X169700000Y-25584999I0J-249999D01*
G01*
G37*
%TD*%
%TO.C,R103*%
G36*
G01*
X168675000Y-28390001D02*
X168675000Y-27489999D01*
G75*
G02*
X168924999Y-27240000I249999J0D01*
G01*
X169450001Y-27240000D01*
G75*
G02*
X169700000Y-27489999I0J-249999D01*
G01*
X169700000Y-28390001D01*
G75*
G02*
X169450001Y-28640000I-249999J0D01*
G01*
X168924999Y-28640000D01*
G75*
G02*
X168675000Y-28390001I0J249999D01*
G01*
G37*
G36*
G01*
X166850000Y-28390001D02*
X166850000Y-27489999D01*
G75*
G02*
X167099999Y-27240000I249999J0D01*
G01*
X167625001Y-27240000D01*
G75*
G02*
X167875000Y-27489999I0J-249999D01*
G01*
X167875000Y-28390001D01*
G75*
G02*
X167625001Y-28640000I-249999J0D01*
G01*
X167099999Y-28640000D01*
G75*
G02*
X166850000Y-28390001I0J249999D01*
G01*
G37*
%TD*%
%TO.C,R102*%
G36*
G01*
X85960000Y-47809999D02*
X85960000Y-48710001D01*
G75*
G02*
X85710001Y-48960000I-249999J0D01*
G01*
X85184999Y-48960000D01*
G75*
G02*
X84935000Y-48710001I0J249999D01*
G01*
X84935000Y-47809999D01*
G75*
G02*
X85184999Y-47560000I249999J0D01*
G01*
X85710001Y-47560000D01*
G75*
G02*
X85960000Y-47809999I0J-249999D01*
G01*
G37*
G36*
G01*
X87785000Y-47809999D02*
X87785000Y-48710001D01*
G75*
G02*
X87535001Y-48960000I-249999J0D01*
G01*
X87009999Y-48960000D01*
G75*
G02*
X86760000Y-48710001I0J249999D01*
G01*
X86760000Y-47809999D01*
G75*
G02*
X87009999Y-47560000I249999J0D01*
G01*
X87535001Y-47560000D01*
G75*
G02*
X87785000Y-47809999I0J-249999D01*
G01*
G37*
%TD*%
%TO.C,R101*%
G36*
G01*
X85960000Y-45269999D02*
X85960000Y-46170001D01*
G75*
G02*
X85710001Y-46420000I-249999J0D01*
G01*
X85184999Y-46420000D01*
G75*
G02*
X84935000Y-46170001I0J249999D01*
G01*
X84935000Y-45269999D01*
G75*
G02*
X85184999Y-45020000I249999J0D01*
G01*
X85710001Y-45020000D01*
G75*
G02*
X85960000Y-45269999I0J-249999D01*
G01*
G37*
G36*
G01*
X87785000Y-45269999D02*
X87785000Y-46170001D01*
G75*
G02*
X87535001Y-46420000I-249999J0D01*
G01*
X87009999Y-46420000D01*
G75*
G02*
X86760000Y-46170001I0J249999D01*
G01*
X86760000Y-45269999D01*
G75*
G02*
X87009999Y-45020000I249999J0D01*
G01*
X87535001Y-45020000D01*
G75*
G02*
X87785000Y-45269999I0J-249999D01*
G01*
G37*
%TD*%
%TO.C,R22*%
G36*
G01*
X65170000Y-101415001D02*
X65170000Y-100514999D01*
G75*
G02*
X65419999Y-100265000I249999J0D01*
G01*
X65945001Y-100265000D01*
G75*
G02*
X66195000Y-100514999I0J-249999D01*
G01*
X66195000Y-101415001D01*
G75*
G02*
X65945001Y-101665000I-249999J0D01*
G01*
X65419999Y-101665000D01*
G75*
G02*
X65170000Y-101415001I0J249999D01*
G01*
G37*
G36*
G01*
X63345000Y-101415001D02*
X63345000Y-100514999D01*
G75*
G02*
X63594999Y-100265000I249999J0D01*
G01*
X64120001Y-100265000D01*
G75*
G02*
X64370000Y-100514999I0J-249999D01*
G01*
X64370000Y-101415001D01*
G75*
G02*
X64120001Y-101665000I-249999J0D01*
G01*
X63594999Y-101665000D01*
G75*
G02*
X63345000Y-101415001I0J249999D01*
G01*
G37*
%TD*%
%TO.C,R20*%
G36*
G01*
X85960000Y-56064999D02*
X85960000Y-56965001D01*
G75*
G02*
X85710001Y-57215000I-249999J0D01*
G01*
X85184999Y-57215000D01*
G75*
G02*
X84935000Y-56965001I0J249999D01*
G01*
X84935000Y-56064999D01*
G75*
G02*
X85184999Y-55815000I249999J0D01*
G01*
X85710001Y-55815000D01*
G75*
G02*
X85960000Y-56064999I0J-249999D01*
G01*
G37*
G36*
G01*
X87785000Y-56064999D02*
X87785000Y-56965001D01*
G75*
G02*
X87535001Y-57215000I-249999J0D01*
G01*
X87009999Y-57215000D01*
G75*
G02*
X86760000Y-56965001I0J249999D01*
G01*
X86760000Y-56064999D01*
G75*
G02*
X87009999Y-55815000I249999J0D01*
G01*
X87535001Y-55815000D01*
G75*
G02*
X87785000Y-56064999I0J-249999D01*
G01*
G37*
%TD*%
%TO.C,R19*%
G36*
G01*
X94215000Y-118294999D02*
X94215000Y-119195001D01*
G75*
G02*
X93965001Y-119445000I-249999J0D01*
G01*
X93439999Y-119445000D01*
G75*
G02*
X93190000Y-119195001I0J249999D01*
G01*
X93190000Y-118294999D01*
G75*
G02*
X93439999Y-118045000I249999J0D01*
G01*
X93965001Y-118045000D01*
G75*
G02*
X94215000Y-118294999I0J-249999D01*
G01*
G37*
G36*
G01*
X96040000Y-118294999D02*
X96040000Y-119195001D01*
G75*
G02*
X95790001Y-119445000I-249999J0D01*
G01*
X95264999Y-119445000D01*
G75*
G02*
X95015000Y-119195001I0J249999D01*
G01*
X95015000Y-118294999D01*
G75*
G02*
X95264999Y-118045000I249999J0D01*
G01*
X95790001Y-118045000D01*
G75*
G02*
X96040000Y-118294999I0J-249999D01*
G01*
G37*
%TD*%
%TO.C,R17*%
G36*
G01*
X198355000Y-100514999D02*
X198355000Y-101415001D01*
G75*
G02*
X198105001Y-101665000I-249999J0D01*
G01*
X197579999Y-101665000D01*
G75*
G02*
X197330000Y-101415001I0J249999D01*
G01*
X197330000Y-100514999D01*
G75*
G02*
X197579999Y-100265000I249999J0D01*
G01*
X198105001Y-100265000D01*
G75*
G02*
X198355000Y-100514999I0J-249999D01*
G01*
G37*
G36*
G01*
X200180000Y-100514999D02*
X200180000Y-101415001D01*
G75*
G02*
X199930001Y-101665000I-249999J0D01*
G01*
X199404999Y-101665000D01*
G75*
G02*
X199155000Y-101415001I0J249999D01*
G01*
X199155000Y-100514999D01*
G75*
G02*
X199404999Y-100265000I249999J0D01*
G01*
X199930001Y-100265000D01*
G75*
G02*
X200180000Y-100514999I0J-249999D01*
G01*
G37*
%TD*%
%TO.C,R16*%
G36*
G01*
X64370000Y-89719999D02*
X64370000Y-90620001D01*
G75*
G02*
X64120001Y-90870000I-249999J0D01*
G01*
X63594999Y-90870000D01*
G75*
G02*
X63345000Y-90620001I0J249999D01*
G01*
X63345000Y-89719999D01*
G75*
G02*
X63594999Y-89470000I249999J0D01*
G01*
X64120001Y-89470000D01*
G75*
G02*
X64370000Y-89719999I0J-249999D01*
G01*
G37*
G36*
G01*
X66195000Y-89719999D02*
X66195000Y-90620001D01*
G75*
G02*
X65945001Y-90870000I-249999J0D01*
G01*
X65419999Y-90870000D01*
G75*
G02*
X65170000Y-90620001I0J249999D01*
G01*
X65170000Y-89719999D01*
G75*
G02*
X65419999Y-89470000I249999J0D01*
G01*
X65945001Y-89470000D01*
G75*
G02*
X66195000Y-89719999I0J-249999D01*
G01*
G37*
%TD*%
%TO.C,R15*%
G36*
G01*
X73425000Y-69665001D02*
X73425000Y-68764999D01*
G75*
G02*
X73674999Y-68515000I249999J0D01*
G01*
X74200001Y-68515000D01*
G75*
G02*
X74450000Y-68764999I0J-249999D01*
G01*
X74450000Y-69665001D01*
G75*
G02*
X74200001Y-69915000I-249999J0D01*
G01*
X73674999Y-69915000D01*
G75*
G02*
X73425000Y-69665001I0J249999D01*
G01*
G37*
G36*
G01*
X71600000Y-69665001D02*
X71600000Y-68764999D01*
G75*
G02*
X71849999Y-68515000I249999J0D01*
G01*
X72375001Y-68515000D01*
G75*
G02*
X72625000Y-68764999I0J-249999D01*
G01*
X72625000Y-69665001D01*
G75*
G02*
X72375001Y-69915000I-249999J0D01*
G01*
X71849999Y-69915000D01*
G75*
G02*
X71600000Y-69665001I0J249999D01*
G01*
G37*
%TD*%
%TO.C,R14*%
G36*
G01*
X85960000Y-57969999D02*
X85960000Y-58870001D01*
G75*
G02*
X85710001Y-59120000I-249999J0D01*
G01*
X85184999Y-59120000D01*
G75*
G02*
X84935000Y-58870001I0J249999D01*
G01*
X84935000Y-57969999D01*
G75*
G02*
X85184999Y-57720000I249999J0D01*
G01*
X85710001Y-57720000D01*
G75*
G02*
X85960000Y-57969999I0J-249999D01*
G01*
G37*
G36*
G01*
X87785000Y-57969999D02*
X87785000Y-58870001D01*
G75*
G02*
X87535001Y-59120000I-249999J0D01*
G01*
X87009999Y-59120000D01*
G75*
G02*
X86760000Y-58870001I0J249999D01*
G01*
X86760000Y-57969999D01*
G75*
G02*
X87009999Y-57720000I249999J0D01*
G01*
X87535001Y-57720000D01*
G75*
G02*
X87785000Y-57969999I0J-249999D01*
G01*
G37*
%TD*%
%TO.C,R12*%
G36*
G01*
X167875000Y-54159999D02*
X167875000Y-55060001D01*
G75*
G02*
X167625001Y-55310000I-249999J0D01*
G01*
X167099999Y-55310000D01*
G75*
G02*
X166850000Y-55060001I0J249999D01*
G01*
X166850000Y-54159999D01*
G75*
G02*
X167099999Y-53910000I249999J0D01*
G01*
X167625001Y-53910000D01*
G75*
G02*
X167875000Y-54159999I0J-249999D01*
G01*
G37*
G36*
G01*
X169700000Y-54159999D02*
X169700000Y-55060001D01*
G75*
G02*
X169450001Y-55310000I-249999J0D01*
G01*
X168924999Y-55310000D01*
G75*
G02*
X168675000Y-55060001I0J249999D01*
G01*
X168675000Y-54159999D01*
G75*
G02*
X168924999Y-53910000I249999J0D01*
G01*
X169450001Y-53910000D01*
G75*
G02*
X169700000Y-54159999I0J-249999D01*
G01*
G37*
%TD*%
%TO.C,R11*%
G36*
G01*
X168675000Y-52520001D02*
X168675000Y-51619999D01*
G75*
G02*
X168924999Y-51370000I249999J0D01*
G01*
X169450001Y-51370000D01*
G75*
G02*
X169700000Y-51619999I0J-249999D01*
G01*
X169700000Y-52520001D01*
G75*
G02*
X169450001Y-52770000I-249999J0D01*
G01*
X168924999Y-52770000D01*
G75*
G02*
X168675000Y-52520001I0J249999D01*
G01*
G37*
G36*
G01*
X166850000Y-52520001D02*
X166850000Y-51619999D01*
G75*
G02*
X167099999Y-51370000I249999J0D01*
G01*
X167625001Y-51370000D01*
G75*
G02*
X167875000Y-51619999I0J-249999D01*
G01*
X167875000Y-52520001D01*
G75*
G02*
X167625001Y-52770000I-249999J0D01*
G01*
X167099999Y-52770000D01*
G75*
G02*
X166850000Y-52520001I0J249999D01*
G01*
G37*
%TD*%
%TO.C,R10*%
G36*
G01*
X64370000Y-95434999D02*
X64370000Y-96335001D01*
G75*
G02*
X64120001Y-96585000I-249999J0D01*
G01*
X63594999Y-96585000D01*
G75*
G02*
X63345000Y-96335001I0J249999D01*
G01*
X63345000Y-95434999D01*
G75*
G02*
X63594999Y-95185000I249999J0D01*
G01*
X64120001Y-95185000D01*
G75*
G02*
X64370000Y-95434999I0J-249999D01*
G01*
G37*
G36*
G01*
X66195000Y-95434999D02*
X66195000Y-96335001D01*
G75*
G02*
X65945001Y-96585000I-249999J0D01*
G01*
X65419999Y-96585000D01*
G75*
G02*
X65170000Y-96335001I0J249999D01*
G01*
X65170000Y-95434999D01*
G75*
G02*
X65419999Y-95185000I249999J0D01*
G01*
X65945001Y-95185000D01*
G75*
G02*
X66195000Y-95434999I0J-249999D01*
G01*
G37*
%TD*%
%TO.C,R9*%
G36*
G01*
X85960000Y-59874999D02*
X85960000Y-60775001D01*
G75*
G02*
X85710001Y-61025000I-249999J0D01*
G01*
X85184999Y-61025000D01*
G75*
G02*
X84935000Y-60775001I0J249999D01*
G01*
X84935000Y-59874999D01*
G75*
G02*
X85184999Y-59625000I249999J0D01*
G01*
X85710001Y-59625000D01*
G75*
G02*
X85960000Y-59874999I0J-249999D01*
G01*
G37*
G36*
G01*
X87785000Y-59874999D02*
X87785000Y-60775001D01*
G75*
G02*
X87535001Y-61025000I-249999J0D01*
G01*
X87009999Y-61025000D01*
G75*
G02*
X86760000Y-60775001I0J249999D01*
G01*
X86760000Y-59874999D01*
G75*
G02*
X87009999Y-59625000I249999J0D01*
G01*
X87535001Y-59625000D01*
G75*
G02*
X87785000Y-59874999I0J-249999D01*
G01*
G37*
%TD*%
%TO.C,R8*%
G36*
G01*
X86760000Y-62680001D02*
X86760000Y-61779999D01*
G75*
G02*
X87009999Y-61530000I249999J0D01*
G01*
X87535001Y-61530000D01*
G75*
G02*
X87785000Y-61779999I0J-249999D01*
G01*
X87785000Y-62680001D01*
G75*
G02*
X87535001Y-62930000I-249999J0D01*
G01*
X87009999Y-62930000D01*
G75*
G02*
X86760000Y-62680001I0J249999D01*
G01*
G37*
G36*
G01*
X84935000Y-62680001D02*
X84935000Y-61779999D01*
G75*
G02*
X85184999Y-61530000I249999J0D01*
G01*
X85710001Y-61530000D01*
G75*
G02*
X85960000Y-61779999I0J-249999D01*
G01*
X85960000Y-62680001D01*
G75*
G02*
X85710001Y-62930000I-249999J0D01*
G01*
X85184999Y-62930000D01*
G75*
G02*
X84935000Y-62680001I0J249999D01*
G01*
G37*
%TD*%
%TO.C,R7*%
G36*
G01*
X127235000Y-132264999D02*
X127235000Y-133165001D01*
G75*
G02*
X126985001Y-133415000I-249999J0D01*
G01*
X126459999Y-133415000D01*
G75*
G02*
X126210000Y-133165001I0J249999D01*
G01*
X126210000Y-132264999D01*
G75*
G02*
X126459999Y-132015000I249999J0D01*
G01*
X126985001Y-132015000D01*
G75*
G02*
X127235000Y-132264999I0J-249999D01*
G01*
G37*
G36*
G01*
X129060000Y-132264999D02*
X129060000Y-133165001D01*
G75*
G02*
X128810001Y-133415000I-249999J0D01*
G01*
X128284999Y-133415000D01*
G75*
G02*
X128035000Y-133165001I0J249999D01*
G01*
X128035000Y-132264999D01*
G75*
G02*
X128284999Y-132015000I249999J0D01*
G01*
X128810001Y-132015000D01*
G75*
G02*
X129060000Y-132264999I0J-249999D01*
G01*
G37*
%TD*%
%TO.C,R6*%
G36*
G01*
X127235000Y-127184999D02*
X127235000Y-128085001D01*
G75*
G02*
X126985001Y-128335000I-249999J0D01*
G01*
X126459999Y-128335000D01*
G75*
G02*
X126210000Y-128085001I0J249999D01*
G01*
X126210000Y-127184999D01*
G75*
G02*
X126459999Y-126935000I249999J0D01*
G01*
X126985001Y-126935000D01*
G75*
G02*
X127235000Y-127184999I0J-249999D01*
G01*
G37*
G36*
G01*
X129060000Y-127184999D02*
X129060000Y-128085001D01*
G75*
G02*
X128810001Y-128335000I-249999J0D01*
G01*
X128284999Y-128335000D01*
G75*
G02*
X128035000Y-128085001I0J249999D01*
G01*
X128035000Y-127184999D01*
G75*
G02*
X128284999Y-126935000I249999J0D01*
G01*
X128810001Y-126935000D01*
G75*
G02*
X129060000Y-127184999I0J-249999D01*
G01*
G37*
%TD*%
%TO.C,R5*%
G36*
G01*
X127235000Y-134804999D02*
X127235000Y-135705001D01*
G75*
G02*
X126985001Y-135955000I-249999J0D01*
G01*
X126459999Y-135955000D01*
G75*
G02*
X126210000Y-135705001I0J249999D01*
G01*
X126210000Y-134804999D01*
G75*
G02*
X126459999Y-134555000I249999J0D01*
G01*
X126985001Y-134555000D01*
G75*
G02*
X127235000Y-134804999I0J-249999D01*
G01*
G37*
G36*
G01*
X129060000Y-134804999D02*
X129060000Y-135705001D01*
G75*
G02*
X128810001Y-135955000I-249999J0D01*
G01*
X128284999Y-135955000D01*
G75*
G02*
X128035000Y-135705001I0J249999D01*
G01*
X128035000Y-134804999D01*
G75*
G02*
X128284999Y-134555000I249999J0D01*
G01*
X128810001Y-134555000D01*
G75*
G02*
X129060000Y-134804999I0J-249999D01*
G01*
G37*
%TD*%
%TO.C,R4*%
G36*
G01*
X127235000Y-124644999D02*
X127235000Y-125545001D01*
G75*
G02*
X126985001Y-125795000I-249999J0D01*
G01*
X126459999Y-125795000D01*
G75*
G02*
X126210000Y-125545001I0J249999D01*
G01*
X126210000Y-124644999D01*
G75*
G02*
X126459999Y-124395000I249999J0D01*
G01*
X126985001Y-124395000D01*
G75*
G02*
X127235000Y-124644999I0J-249999D01*
G01*
G37*
G36*
G01*
X129060000Y-124644999D02*
X129060000Y-125545001D01*
G75*
G02*
X128810001Y-125795000I-249999J0D01*
G01*
X128284999Y-125795000D01*
G75*
G02*
X128035000Y-125545001I0J249999D01*
G01*
X128035000Y-124644999D01*
G75*
G02*
X128284999Y-124395000I249999J0D01*
G01*
X128810001Y-124395000D01*
G75*
G02*
X129060000Y-124644999I0J-249999D01*
G01*
G37*
%TD*%
%TO.C,R3*%
G36*
G01*
X64370000Y-70669999D02*
X64370000Y-71570001D01*
G75*
G02*
X64120001Y-71820000I-249999J0D01*
G01*
X63594999Y-71820000D01*
G75*
G02*
X63345000Y-71570001I0J249999D01*
G01*
X63345000Y-70669999D01*
G75*
G02*
X63594999Y-70420000I249999J0D01*
G01*
X64120001Y-70420000D01*
G75*
G02*
X64370000Y-70669999I0J-249999D01*
G01*
G37*
G36*
G01*
X66195000Y-70669999D02*
X66195000Y-71570001D01*
G75*
G02*
X65945001Y-71820000I-249999J0D01*
G01*
X65419999Y-71820000D01*
G75*
G02*
X65170000Y-71570001I0J249999D01*
G01*
X65170000Y-70669999D01*
G75*
G02*
X65419999Y-70420000I249999J0D01*
G01*
X65945001Y-70420000D01*
G75*
G02*
X66195000Y-70669999I0J-249999D01*
G01*
G37*
%TD*%
%TO.C,R2*%
G36*
G01*
X64370000Y-91624999D02*
X64370000Y-92525001D01*
G75*
G02*
X64120001Y-92775000I-249999J0D01*
G01*
X63594999Y-92775000D01*
G75*
G02*
X63345000Y-92525001I0J249999D01*
G01*
X63345000Y-91624999D01*
G75*
G02*
X63594999Y-91375000I249999J0D01*
G01*
X64120001Y-91375000D01*
G75*
G02*
X64370000Y-91624999I0J-249999D01*
G01*
G37*
G36*
G01*
X66195000Y-91624999D02*
X66195000Y-92525001D01*
G75*
G02*
X65945001Y-92775000I-249999J0D01*
G01*
X65419999Y-92775000D01*
G75*
G02*
X65170000Y-92525001I0J249999D01*
G01*
X65170000Y-91624999D01*
G75*
G02*
X65419999Y-91375000I249999J0D01*
G01*
X65945001Y-91375000D01*
G75*
G02*
X66195000Y-91624999I0J-249999D01*
G01*
G37*
%TD*%
%TO.C,R1*%
G36*
G01*
X64370000Y-93529999D02*
X64370000Y-94430001D01*
G75*
G02*
X64120001Y-94680000I-249999J0D01*
G01*
X63594999Y-94680000D01*
G75*
G02*
X63345000Y-94430001I0J249999D01*
G01*
X63345000Y-93529999D01*
G75*
G02*
X63594999Y-93280000I249999J0D01*
G01*
X64120001Y-93280000D01*
G75*
G02*
X64370000Y-93529999I0J-249999D01*
G01*
G37*
G36*
G01*
X66195000Y-93529999D02*
X66195000Y-94430001D01*
G75*
G02*
X65945001Y-94680000I-249999J0D01*
G01*
X65419999Y-94680000D01*
G75*
G02*
X65170000Y-94430001I0J249999D01*
G01*
X65170000Y-93529999D01*
G75*
G02*
X65419999Y-93280000I249999J0D01*
G01*
X65945001Y-93280000D01*
G75*
G02*
X66195000Y-93529999I0J-249999D01*
G01*
G37*
%TD*%
D27*
%TO.C,Q1*%
X63770000Y-103190000D03*
X63770000Y-105090000D03*
X65770000Y-104140000D03*
%TD*%
%TO.C,L1*%
G36*
G01*
X127010000Y-81533750D02*
X127010000Y-82296250D01*
G75*
G02*
X126791250Y-82515000I-218750J0D01*
G01*
X126353750Y-82515000D01*
G75*
G02*
X126135000Y-82296250I0J218750D01*
G01*
X126135000Y-81533750D01*
G75*
G02*
X126353750Y-81315000I218750J0D01*
G01*
X126791250Y-81315000D01*
G75*
G02*
X127010000Y-81533750I0J-218750D01*
G01*
G37*
G36*
G01*
X129135000Y-81533750D02*
X129135000Y-82296250D01*
G75*
G02*
X128916250Y-82515000I-218750J0D01*
G01*
X128478750Y-82515000D01*
G75*
G02*
X128260000Y-82296250I0J218750D01*
G01*
X128260000Y-81533750D01*
G75*
G02*
X128478750Y-81315000I218750J0D01*
G01*
X128916250Y-81315000D01*
G75*
G02*
X129135000Y-81533750I0J-218750D01*
G01*
G37*
%TD*%
D28*
%TO.C,K101*%
X204780000Y-83185000D03*
X204780000Y-85725000D03*
X204780000Y-88265000D03*
X204780000Y-90805000D03*
X211780000Y-90805000D03*
X211780000Y-88265000D03*
X211780000Y-85725000D03*
X211780000Y-83185000D03*
%TD*%
D10*
%TO.C,J109*%
X243930256Y-53430256D03*
X242134205Y-51634205D03*
X240338154Y-49838154D03*
X238542102Y-48042102D03*
X236746051Y-46246051D03*
D29*
G36*
X233535786Y-44450000D02*
G01*
X234950000Y-43035786D01*
X236364214Y-44450000D01*
X234950000Y-45864214D01*
X233535786Y-44450000D01*
G37*
%TD*%
%TO.C,J107*%
G36*
X252730000Y-96375786D02*
G01*
X254144214Y-97790000D01*
X252730000Y-99204214D01*
X251315786Y-97790000D01*
X252730000Y-96375786D01*
G37*
D10*
X250933949Y-99586051D03*
X249137898Y-101382102D03*
X247341846Y-103178154D03*
X245545795Y-104974205D03*
X243749744Y-106770256D03*
X241953693Y-108566307D03*
X240157641Y-110362359D03*
X238361590Y-112158410D03*
%TD*%
D29*
%TO.C,J106*%
G36*
X234315000Y-114790786D02*
G01*
X235729214Y-116205000D01*
X234315000Y-117619214D01*
X232900786Y-116205000D01*
X234315000Y-114790786D01*
G37*
D10*
X232518949Y-118001051D03*
X230722898Y-119797102D03*
X228926846Y-121593154D03*
X227130795Y-123389205D03*
X225334744Y-125185256D03*
X223538693Y-126981307D03*
X221742641Y-128777359D03*
X219946590Y-130573410D03*
%TD*%
D29*
%TO.C,J105*%
G36*
X246235786Y-57150000D02*
G01*
X247650000Y-55735786D01*
X249064214Y-57150000D01*
X247650000Y-58564214D01*
X246235786Y-57150000D01*
G37*
D10*
X249446051Y-58946051D03*
X251242102Y-60742102D03*
X253038154Y-62538154D03*
%TD*%
D26*
%TO.C,J104*%
X218573512Y-38000000D03*
X223000000Y-38000000D03*
X223000000Y-33573512D03*
X223000000Y-42426488D03*
X227426488Y-38000000D03*
%TD*%
%TO.C,J103*%
X209573512Y-29000000D03*
X214000000Y-29000000D03*
X214000000Y-24573512D03*
X214000000Y-33426488D03*
X218426488Y-29000000D03*
%TD*%
%TO.C,J102*%
X53385000Y-38145000D03*
X56515000Y-41275000D03*
X59645000Y-38145000D03*
X53385000Y-44405000D03*
X59645000Y-44405000D03*
%TD*%
%TO.C,J101*%
X53385000Y-23540000D03*
X56515000Y-26670000D03*
X59645000Y-23540000D03*
X53385000Y-29800000D03*
X59645000Y-29800000D03*
%TD*%
D30*
%TO.C,J8*%
X97390000Y-37470000D03*
D31*
X101190000Y-22470000D03*
D32*
X99290000Y-37470000D03*
D33*
X87890000Y-33270000D03*
D34*
X87890000Y-23470000D03*
D35*
X88740000Y-37570000D03*
D30*
X96290000Y-37470000D03*
X95190000Y-37470000D03*
X94090000Y-37470000D03*
X92990000Y-37470000D03*
X91890000Y-37470000D03*
X90790000Y-37470000D03*
X89690000Y-37470000D03*
D36*
X100190000Y-21770000D03*
D37*
X87890000Y-27070000D03*
D29*
G36*
X100440000Y-21878579D02*
G01*
X100581421Y-22020000D01*
X100440000Y-22161421D01*
X100298579Y-22020000D01*
X100440000Y-21878579D01*
G37*
%TD*%
%TO.C,D5*%
G36*
G01*
X172825000Y-121000000D02*
X172825000Y-120300000D01*
G75*
G02*
X173100000Y-120025000I275000J0D01*
G01*
X173650000Y-120025000D01*
G75*
G02*
X173925000Y-120300000I0J-275000D01*
G01*
X173925000Y-121000000D01*
G75*
G02*
X173650000Y-121275000I-275000J0D01*
G01*
X173100000Y-121275000D01*
G75*
G02*
X172825000Y-121000000I0J275000D01*
G01*
G37*
G36*
G01*
X175325000Y-121000000D02*
X175325000Y-120300000D01*
G75*
G02*
X175600000Y-120025000I275000J0D01*
G01*
X176150000Y-120025000D01*
G75*
G02*
X176425000Y-120300000I0J-275000D01*
G01*
X176425000Y-121000000D01*
G75*
G02*
X176150000Y-121275000I-275000J0D01*
G01*
X175600000Y-121275000D01*
G75*
G02*
X175325000Y-121000000I0J275000D01*
G01*
G37*
%TD*%
%TO.C,D4*%
G36*
G01*
X163300000Y-121000000D02*
X163300000Y-120300000D01*
G75*
G02*
X163575000Y-120025000I275000J0D01*
G01*
X164125000Y-120025000D01*
G75*
G02*
X164400000Y-120300000I0J-275000D01*
G01*
X164400000Y-121000000D01*
G75*
G02*
X164125000Y-121275000I-275000J0D01*
G01*
X163575000Y-121275000D01*
G75*
G02*
X163300000Y-121000000I0J275000D01*
G01*
G37*
G36*
G01*
X165800000Y-121000000D02*
X165800000Y-120300000D01*
G75*
G02*
X166075000Y-120025000I275000J0D01*
G01*
X166625000Y-120025000D01*
G75*
G02*
X166900000Y-120300000I0J-275000D01*
G01*
X166900000Y-121000000D01*
G75*
G02*
X166625000Y-121275000I-275000J0D01*
G01*
X166075000Y-121275000D01*
G75*
G02*
X165800000Y-121000000I0J275000D01*
G01*
G37*
%TD*%
%TO.C,D3*%
G36*
G01*
X153775000Y-121000000D02*
X153775000Y-120300000D01*
G75*
G02*
X154050000Y-120025000I275000J0D01*
G01*
X154600000Y-120025000D01*
G75*
G02*
X154875000Y-120300000I0J-275000D01*
G01*
X154875000Y-121000000D01*
G75*
G02*
X154600000Y-121275000I-275000J0D01*
G01*
X154050000Y-121275000D01*
G75*
G02*
X153775000Y-121000000I0J275000D01*
G01*
G37*
G36*
G01*
X156275000Y-121000000D02*
X156275000Y-120300000D01*
G75*
G02*
X156550000Y-120025000I275000J0D01*
G01*
X157100000Y-120025000D01*
G75*
G02*
X157375000Y-120300000I0J-275000D01*
G01*
X157375000Y-121000000D01*
G75*
G02*
X157100000Y-121275000I-275000J0D01*
G01*
X156550000Y-121275000D01*
G75*
G02*
X156275000Y-121000000I0J275000D01*
G01*
G37*
%TD*%
%TO.C,D1*%
G36*
G01*
X66570000Y-98075000D02*
X66570000Y-98775000D01*
G75*
G02*
X66295000Y-99050000I-275000J0D01*
G01*
X65745000Y-99050000D01*
G75*
G02*
X65470000Y-98775000I0J275000D01*
G01*
X65470000Y-98075000D01*
G75*
G02*
X65745000Y-97800000I275000J0D01*
G01*
X66295000Y-97800000D01*
G75*
G02*
X66570000Y-98075000I0J-275000D01*
G01*
G37*
G36*
G01*
X64070000Y-98075000D02*
X64070000Y-98775000D01*
G75*
G02*
X63795000Y-99050000I-275000J0D01*
G01*
X63245000Y-99050000D01*
G75*
G02*
X62970000Y-98775000I0J275000D01*
G01*
X62970000Y-98075000D01*
G75*
G02*
X63245000Y-97800000I275000J0D01*
G01*
X63795000Y-97800000D01*
G75*
G02*
X64070000Y-98075000I0J-275000D01*
G01*
G37*
%TD*%
%TO.C,C106*%
G36*
G01*
X166825000Y-34765000D02*
X166825000Y-33815000D01*
G75*
G02*
X167075000Y-33565000I250000J0D01*
G01*
X167575000Y-33565000D01*
G75*
G02*
X167825000Y-33815000I0J-250000D01*
G01*
X167825000Y-34765000D01*
G75*
G02*
X167575000Y-35015000I-250000J0D01*
G01*
X167075000Y-35015000D01*
G75*
G02*
X166825000Y-34765000I0J250000D01*
G01*
G37*
G36*
G01*
X168725000Y-34765000D02*
X168725000Y-33815000D01*
G75*
G02*
X168975000Y-33565000I250000J0D01*
G01*
X169475000Y-33565000D01*
G75*
G02*
X169725000Y-33815000I0J-250000D01*
G01*
X169725000Y-34765000D01*
G75*
G02*
X169475000Y-35015000I-250000J0D01*
G01*
X168975000Y-35015000D01*
G75*
G02*
X168725000Y-34765000I0J250000D01*
G01*
G37*
%TD*%
%TO.C,C104*%
G36*
G01*
X166825000Y-24605000D02*
X166825000Y-23655000D01*
G75*
G02*
X167075000Y-23405000I250000J0D01*
G01*
X167575000Y-23405000D01*
G75*
G02*
X167825000Y-23655000I0J-250000D01*
G01*
X167825000Y-24605000D01*
G75*
G02*
X167575000Y-24855000I-250000J0D01*
G01*
X167075000Y-24855000D01*
G75*
G02*
X166825000Y-24605000I0J250000D01*
G01*
G37*
G36*
G01*
X168725000Y-24605000D02*
X168725000Y-23655000D01*
G75*
G02*
X168975000Y-23405000I250000J0D01*
G01*
X169475000Y-23405000D01*
G75*
G02*
X169725000Y-23655000I0J-250000D01*
G01*
X169725000Y-24605000D01*
G75*
G02*
X169475000Y-24855000I-250000J0D01*
G01*
X168975000Y-24855000D01*
G75*
G02*
X168725000Y-24605000I0J250000D01*
G01*
G37*
%TD*%
%TO.C,C20*%
G36*
G01*
X137615000Y-59530000D02*
X137615000Y-58580000D01*
G75*
G02*
X137865000Y-58330000I250000J0D01*
G01*
X138365000Y-58330000D01*
G75*
G02*
X138615000Y-58580000I0J-250000D01*
G01*
X138615000Y-59530000D01*
G75*
G02*
X138365000Y-59780000I-250000J0D01*
G01*
X137865000Y-59780000D01*
G75*
G02*
X137615000Y-59530000I0J250000D01*
G01*
G37*
G36*
G01*
X139515000Y-59530000D02*
X139515000Y-58580000D01*
G75*
G02*
X139765000Y-58330000I250000J0D01*
G01*
X140265000Y-58330000D01*
G75*
G02*
X140515000Y-58580000I0J-250000D01*
G01*
X140515000Y-59530000D01*
G75*
G02*
X140265000Y-59780000I-250000J0D01*
G01*
X139765000Y-59780000D01*
G75*
G02*
X139515000Y-59530000I0J250000D01*
G01*
G37*
%TD*%
%TO.C,C19*%
G36*
G01*
X143330000Y-72865000D02*
X143330000Y-71915000D01*
G75*
G02*
X143580000Y-71665000I250000J0D01*
G01*
X144080000Y-71665000D01*
G75*
G02*
X144330000Y-71915000I0J-250000D01*
G01*
X144330000Y-72865000D01*
G75*
G02*
X144080000Y-73115000I-250000J0D01*
G01*
X143580000Y-73115000D01*
G75*
G02*
X143330000Y-72865000I0J250000D01*
G01*
G37*
G36*
G01*
X145230000Y-72865000D02*
X145230000Y-71915000D01*
G75*
G02*
X145480000Y-71665000I250000J0D01*
G01*
X145980000Y-71665000D01*
G75*
G02*
X146230000Y-71915000I0J-250000D01*
G01*
X146230000Y-72865000D01*
G75*
G02*
X145980000Y-73115000I-250000J0D01*
G01*
X145480000Y-73115000D01*
G75*
G02*
X145230000Y-72865000I0J250000D01*
G01*
G37*
%TD*%
%TO.C,C18*%
G36*
G01*
X94795000Y-40165000D02*
X94795000Y-41115000D01*
G75*
G02*
X94545000Y-41365000I-250000J0D01*
G01*
X94045000Y-41365000D01*
G75*
G02*
X93795000Y-41115000I0J250000D01*
G01*
X93795000Y-40165000D01*
G75*
G02*
X94045000Y-39915000I250000J0D01*
G01*
X94545000Y-39915000D01*
G75*
G02*
X94795000Y-40165000I0J-250000D01*
G01*
G37*
G36*
G01*
X92895000Y-40165000D02*
X92895000Y-41115000D01*
G75*
G02*
X92645000Y-41365000I-250000J0D01*
G01*
X92145000Y-41365000D01*
G75*
G02*
X91895000Y-41115000I0J250000D01*
G01*
X91895000Y-40165000D01*
G75*
G02*
X92145000Y-39915000I250000J0D01*
G01*
X92645000Y-39915000D01*
G75*
G02*
X92895000Y-40165000I0J-250000D01*
G01*
G37*
%TD*%
%TO.C,C17*%
G36*
G01*
X87810000Y-110650000D02*
X87810000Y-111600000D01*
G75*
G02*
X87560000Y-111850000I-250000J0D01*
G01*
X87060000Y-111850000D01*
G75*
G02*
X86810000Y-111600000I0J250000D01*
G01*
X86810000Y-110650000D01*
G75*
G02*
X87060000Y-110400000I250000J0D01*
G01*
X87560000Y-110400000D01*
G75*
G02*
X87810000Y-110650000I0J-250000D01*
G01*
G37*
G36*
G01*
X85910000Y-110650000D02*
X85910000Y-111600000D01*
G75*
G02*
X85660000Y-111850000I-250000J0D01*
G01*
X85160000Y-111850000D01*
G75*
G02*
X84910000Y-111600000I0J250000D01*
G01*
X84910000Y-110650000D01*
G75*
G02*
X85160000Y-110400000I250000J0D01*
G01*
X85660000Y-110400000D01*
G75*
G02*
X85910000Y-110650000I0J-250000D01*
G01*
G37*
%TD*%
%TO.C,C16*%
G36*
G01*
X81100000Y-111600000D02*
X81100000Y-110650000D01*
G75*
G02*
X81350000Y-110400000I250000J0D01*
G01*
X81850000Y-110400000D01*
G75*
G02*
X82100000Y-110650000I0J-250000D01*
G01*
X82100000Y-111600000D01*
G75*
G02*
X81850000Y-111850000I-250000J0D01*
G01*
X81350000Y-111850000D01*
G75*
G02*
X81100000Y-111600000I0J250000D01*
G01*
G37*
G36*
G01*
X83000000Y-111600000D02*
X83000000Y-110650000D01*
G75*
G02*
X83250000Y-110400000I250000J0D01*
G01*
X83750000Y-110400000D01*
G75*
G02*
X84000000Y-110650000I0J-250000D01*
G01*
X84000000Y-111600000D01*
G75*
G02*
X83750000Y-111850000I-250000J0D01*
G01*
X83250000Y-111850000D01*
G75*
G02*
X83000000Y-111600000I0J250000D01*
G01*
G37*
%TD*%
%TO.C,C13*%
G36*
G01*
X66220000Y-68740000D02*
X66220000Y-69690000D01*
G75*
G02*
X65970000Y-69940000I-250000J0D01*
G01*
X65470000Y-69940000D01*
G75*
G02*
X65220000Y-69690000I0J250000D01*
G01*
X65220000Y-68740000D01*
G75*
G02*
X65470000Y-68490000I250000J0D01*
G01*
X65970000Y-68490000D01*
G75*
G02*
X66220000Y-68740000I0J-250000D01*
G01*
G37*
G36*
G01*
X64320000Y-68740000D02*
X64320000Y-69690000D01*
G75*
G02*
X64070000Y-69940000I-250000J0D01*
G01*
X63570000Y-69940000D01*
G75*
G02*
X63320000Y-69690000I0J250000D01*
G01*
X63320000Y-68740000D01*
G75*
G02*
X63570000Y-68490000I250000J0D01*
G01*
X64070000Y-68490000D01*
G75*
G02*
X64320000Y-68740000I0J-250000D01*
G01*
G37*
%TD*%
%TO.C,C12*%
G36*
G01*
X113210000Y-69375000D02*
X113210000Y-70325000D01*
G75*
G02*
X112960000Y-70575000I-250000J0D01*
G01*
X112460000Y-70575000D01*
G75*
G02*
X112210000Y-70325000I0J250000D01*
G01*
X112210000Y-69375000D01*
G75*
G02*
X112460000Y-69125000I250000J0D01*
G01*
X112960000Y-69125000D01*
G75*
G02*
X113210000Y-69375000I0J-250000D01*
G01*
G37*
G36*
G01*
X111310000Y-69375000D02*
X111310000Y-70325000D01*
G75*
G02*
X111060000Y-70575000I-250000J0D01*
G01*
X110560000Y-70575000D01*
G75*
G02*
X110310000Y-70325000I0J250000D01*
G01*
X110310000Y-69375000D01*
G75*
G02*
X110560000Y-69125000I250000J0D01*
G01*
X111060000Y-69125000D01*
G75*
G02*
X111310000Y-69375000I0J-250000D01*
G01*
G37*
%TD*%
%TO.C,C11*%
G36*
G01*
X113210000Y-71915000D02*
X113210000Y-72865000D01*
G75*
G02*
X112960000Y-73115000I-250000J0D01*
G01*
X112460000Y-73115000D01*
G75*
G02*
X112210000Y-72865000I0J250000D01*
G01*
X112210000Y-71915000D01*
G75*
G02*
X112460000Y-71665000I250000J0D01*
G01*
X112960000Y-71665000D01*
G75*
G02*
X113210000Y-71915000I0J-250000D01*
G01*
G37*
G36*
G01*
X111310000Y-71915000D02*
X111310000Y-72865000D01*
G75*
G02*
X111060000Y-73115000I-250000J0D01*
G01*
X110560000Y-73115000D01*
G75*
G02*
X110310000Y-72865000I0J250000D01*
G01*
X110310000Y-71915000D01*
G75*
G02*
X110560000Y-71665000I250000J0D01*
G01*
X111060000Y-71665000D01*
G75*
G02*
X111310000Y-71915000I0J-250000D01*
G01*
G37*
%TD*%
%TO.C,C10*%
G36*
G01*
X126185000Y-84295000D02*
X126185000Y-83345000D01*
G75*
G02*
X126435000Y-83095000I250000J0D01*
G01*
X126935000Y-83095000D01*
G75*
G02*
X127185000Y-83345000I0J-250000D01*
G01*
X127185000Y-84295000D01*
G75*
G02*
X126935000Y-84545000I-250000J0D01*
G01*
X126435000Y-84545000D01*
G75*
G02*
X126185000Y-84295000I0J250000D01*
G01*
G37*
G36*
G01*
X128085000Y-84295000D02*
X128085000Y-83345000D01*
G75*
G02*
X128335000Y-83095000I250000J0D01*
G01*
X128835000Y-83095000D01*
G75*
G02*
X129085000Y-83345000I0J-250000D01*
G01*
X129085000Y-84295000D01*
G75*
G02*
X128835000Y-84545000I-250000J0D01*
G01*
X128335000Y-84545000D01*
G75*
G02*
X128085000Y-84295000I0J250000D01*
G01*
G37*
%TD*%
%TO.C,C9*%
G36*
G01*
X129085000Y-85250000D02*
X129085000Y-86200000D01*
G75*
G02*
X128835000Y-86450000I-250000J0D01*
G01*
X128335000Y-86450000D01*
G75*
G02*
X128085000Y-86200000I0J250000D01*
G01*
X128085000Y-85250000D01*
G75*
G02*
X128335000Y-85000000I250000J0D01*
G01*
X128835000Y-85000000D01*
G75*
G02*
X129085000Y-85250000I0J-250000D01*
G01*
G37*
G36*
G01*
X127185000Y-85250000D02*
X127185000Y-86200000D01*
G75*
G02*
X126935000Y-86450000I-250000J0D01*
G01*
X126435000Y-86450000D01*
G75*
G02*
X126185000Y-86200000I0J250000D01*
G01*
X126185000Y-85250000D01*
G75*
G02*
X126435000Y-85000000I250000J0D01*
G01*
X126935000Y-85000000D01*
G75*
G02*
X127185000Y-85250000I0J-250000D01*
G01*
G37*
%TD*%
%TO.C,C8*%
G36*
G01*
X93165000Y-117315000D02*
X93165000Y-116365000D01*
G75*
G02*
X93415000Y-116115000I250000J0D01*
G01*
X93915000Y-116115000D01*
G75*
G02*
X94165000Y-116365000I0J-250000D01*
G01*
X94165000Y-117315000D01*
G75*
G02*
X93915000Y-117565000I-250000J0D01*
G01*
X93415000Y-117565000D01*
G75*
G02*
X93165000Y-117315000I0J250000D01*
G01*
G37*
G36*
G01*
X95065000Y-117315000D02*
X95065000Y-116365000D01*
G75*
G02*
X95315000Y-116115000I250000J0D01*
G01*
X95815000Y-116115000D01*
G75*
G02*
X96065000Y-116365000I0J-250000D01*
G01*
X96065000Y-117315000D01*
G75*
G02*
X95815000Y-117565000I-250000J0D01*
G01*
X95315000Y-117565000D01*
G75*
G02*
X95065000Y-117315000I0J250000D01*
G01*
G37*
%TD*%
%TO.C,C7*%
G36*
G01*
X121465000Y-68105000D02*
X121465000Y-69055000D01*
G75*
G02*
X121215000Y-69305000I-250000J0D01*
G01*
X120715000Y-69305000D01*
G75*
G02*
X120465000Y-69055000I0J250000D01*
G01*
X120465000Y-68105000D01*
G75*
G02*
X120715000Y-67855000I250000J0D01*
G01*
X121215000Y-67855000D01*
G75*
G02*
X121465000Y-68105000I0J-250000D01*
G01*
G37*
G36*
G01*
X119565000Y-68105000D02*
X119565000Y-69055000D01*
G75*
G02*
X119315000Y-69305000I-250000J0D01*
G01*
X118815000Y-69305000D01*
G75*
G02*
X118565000Y-69055000I0J250000D01*
G01*
X118565000Y-68105000D01*
G75*
G02*
X118815000Y-67855000I250000J0D01*
G01*
X119315000Y-67855000D01*
G75*
G02*
X119565000Y-68105000I0J-250000D01*
G01*
G37*
%TD*%
%TO.C,C6*%
G36*
G01*
X137615000Y-77310000D02*
X137615000Y-76360000D01*
G75*
G02*
X137865000Y-76110000I250000J0D01*
G01*
X138365000Y-76110000D01*
G75*
G02*
X138615000Y-76360000I0J-250000D01*
G01*
X138615000Y-77310000D01*
G75*
G02*
X138365000Y-77560000I-250000J0D01*
G01*
X137865000Y-77560000D01*
G75*
G02*
X137615000Y-77310000I0J250000D01*
G01*
G37*
G36*
G01*
X139515000Y-77310000D02*
X139515000Y-76360000D01*
G75*
G02*
X139765000Y-76110000I250000J0D01*
G01*
X140265000Y-76110000D01*
G75*
G02*
X140515000Y-76360000I0J-250000D01*
G01*
X140515000Y-77310000D01*
G75*
G02*
X140265000Y-77560000I-250000J0D01*
G01*
X139765000Y-77560000D01*
G75*
G02*
X139515000Y-77310000I0J250000D01*
G01*
G37*
%TD*%
%TO.C,C5*%
G36*
G01*
X143330000Y-70960000D02*
X143330000Y-70010000D01*
G75*
G02*
X143580000Y-69760000I250000J0D01*
G01*
X144080000Y-69760000D01*
G75*
G02*
X144330000Y-70010000I0J-250000D01*
G01*
X144330000Y-70960000D01*
G75*
G02*
X144080000Y-71210000I-250000J0D01*
G01*
X143580000Y-71210000D01*
G75*
G02*
X143330000Y-70960000I0J250000D01*
G01*
G37*
G36*
G01*
X145230000Y-70960000D02*
X145230000Y-70010000D01*
G75*
G02*
X145480000Y-69760000I250000J0D01*
G01*
X145980000Y-69760000D01*
G75*
G02*
X146230000Y-70010000I0J-250000D01*
G01*
X146230000Y-70960000D01*
G75*
G02*
X145980000Y-71210000I-250000J0D01*
G01*
X145480000Y-71210000D01*
G75*
G02*
X145230000Y-70960000I0J250000D01*
G01*
G37*
%TD*%
%TO.C,C4*%
G36*
G01*
X137615000Y-56990000D02*
X137615000Y-56040000D01*
G75*
G02*
X137865000Y-55790000I250000J0D01*
G01*
X138365000Y-55790000D01*
G75*
G02*
X138615000Y-56040000I0J-250000D01*
G01*
X138615000Y-56990000D01*
G75*
G02*
X138365000Y-57240000I-250000J0D01*
G01*
X137865000Y-57240000D01*
G75*
G02*
X137615000Y-56990000I0J250000D01*
G01*
G37*
G36*
G01*
X139515000Y-56990000D02*
X139515000Y-56040000D01*
G75*
G02*
X139765000Y-55790000I250000J0D01*
G01*
X140265000Y-55790000D01*
G75*
G02*
X140515000Y-56040000I0J-250000D01*
G01*
X140515000Y-56990000D01*
G75*
G02*
X140265000Y-57240000I-250000J0D01*
G01*
X139765000Y-57240000D01*
G75*
G02*
X139515000Y-56990000I0J250000D01*
G01*
G37*
%TD*%
%TO.C,C3*%
G36*
G01*
X121465000Y-65565000D02*
X121465000Y-66515000D01*
G75*
G02*
X121215000Y-66765000I-250000J0D01*
G01*
X120715000Y-66765000D01*
G75*
G02*
X120465000Y-66515000I0J250000D01*
G01*
X120465000Y-65565000D01*
G75*
G02*
X120715000Y-65315000I250000J0D01*
G01*
X121215000Y-65315000D01*
G75*
G02*
X121465000Y-65565000I0J-250000D01*
G01*
G37*
G36*
G01*
X119565000Y-65565000D02*
X119565000Y-66515000D01*
G75*
G02*
X119315000Y-66765000I-250000J0D01*
G01*
X118815000Y-66765000D01*
G75*
G02*
X118565000Y-66515000I0J250000D01*
G01*
X118565000Y-65565000D01*
G75*
G02*
X118815000Y-65315000I250000J0D01*
G01*
X119315000Y-65315000D01*
G75*
G02*
X119565000Y-65565000I0J-250000D01*
G01*
G37*
%TD*%
%TO.C,C2*%
G36*
G01*
X113210000Y-74455000D02*
X113210000Y-75405000D01*
G75*
G02*
X112960000Y-75655000I-250000J0D01*
G01*
X112460000Y-75655000D01*
G75*
G02*
X112210000Y-75405000I0J250000D01*
G01*
X112210000Y-74455000D01*
G75*
G02*
X112460000Y-74205000I250000J0D01*
G01*
X112960000Y-74205000D01*
G75*
G02*
X113210000Y-74455000I0J-250000D01*
G01*
G37*
G36*
G01*
X111310000Y-74455000D02*
X111310000Y-75405000D01*
G75*
G02*
X111060000Y-75655000I-250000J0D01*
G01*
X110560000Y-75655000D01*
G75*
G02*
X110310000Y-75405000I0J250000D01*
G01*
X110310000Y-74455000D01*
G75*
G02*
X110560000Y-74205000I250000J0D01*
G01*
X111060000Y-74205000D01*
G75*
G02*
X111310000Y-74455000I0J-250000D01*
G01*
G37*
%TD*%
%TO.C,C1*%
G36*
G01*
X113210000Y-76995000D02*
X113210000Y-77945000D01*
G75*
G02*
X112960000Y-78195000I-250000J0D01*
G01*
X112460000Y-78195000D01*
G75*
G02*
X112210000Y-77945000I0J250000D01*
G01*
X112210000Y-76995000D01*
G75*
G02*
X112460000Y-76745000I250000J0D01*
G01*
X112960000Y-76745000D01*
G75*
G02*
X113210000Y-76995000I0J-250000D01*
G01*
G37*
G36*
G01*
X111310000Y-76995000D02*
X111310000Y-77945000D01*
G75*
G02*
X111060000Y-78195000I-250000J0D01*
G01*
X110560000Y-78195000D01*
G75*
G02*
X110310000Y-77945000I0J250000D01*
G01*
X110310000Y-76995000D01*
G75*
G02*
X110560000Y-76745000I250000J0D01*
G01*
X111060000Y-76745000D01*
G75*
G02*
X111310000Y-76995000I0J-250000D01*
G01*
G37*
%TD*%
D10*
%TO.C,BT101*%
X94730000Y-125730000D03*
D38*
X67830000Y-127000000D03*
D10*
X94730000Y-128270000D03*
%TD*%
D12*
%TO.C,A101*%
X142240000Y-113665000D03*
D10*
X142240000Y-111125000D03*
X142240000Y-108585000D03*
X142240000Y-106045000D03*
%TD*%
M02*
