M48
; DRILL file {KiCad (5.1.10-1-10_14)} date Friday, June 11, 2021 at 06:32:14 AM
; FORMAT={-:-/ absolute / inch / decimal}
; #@! TF.CreationDate,2021-06-11T06:32:14+09:00
; #@! TF.GenerationSoftware,Kicad,Pcbnew,(5.1.10-1-10_14)
; #@! TF.FileFunction,Plated,1,4,PTH
FMAT,2
INCH
T1C0.0157
T2C0.0197
T3C0.0236
T4C0.0256
T5C0.0382
T6C0.0394
T7C0.0433
T8C0.0630
T9C0.1024
T10C0.1260
%
G90
G05
T1
X2.075Y-3.635
X2.075Y-3.715
X2.63Y-2.725
X2.63Y-2.8
X2.63Y-4.025
X2.64Y-4.1
X2.675Y-4.235
X2.675Y-4.46
X2.68Y-4.025
X2.785Y-2.925
X2.785Y-3.025
X2.795Y-3.225
X2.795Y-3.325
X2.795Y-4.6
X2.795Y-4.7
X2.84Y-2.925
X2.84Y-3.025
X2.84Y-3.225
X2.84Y-3.325
X2.84Y-4.6
X2.84Y-4.7
X2.955Y-2.725
X3.05Y-4.34
X3.0799Y-4.3074
X3.115Y-4.34
X3.285Y-4.485
X3.285Y-4.52
X3.3Y-1.8
X3.3Y-1.9
X3.325Y-3.925
X3.325Y-3.96
X3.3275Y-2.225
X3.3275Y-2.3
X3.3275Y-2.375
X3.3275Y-2.45
X3.365Y-4.485
X3.365Y-4.52
X3.4002Y-1.3098
X3.401Y-0.924
X3.45Y-1.535
X3.485Y-1.565
X3.5Y-2.1
X3.5Y-2.3
X3.5Y-2.375
X3.5Y-2.5
X3.51Y-3.925
X3.51Y-3.96
X3.51Y-4.025
X3.51Y-4.125
X3.51Y-4.325
X3.51Y-4.425
X3.535Y-1.565
X3.585Y-1.6
X3.615Y-2.2875
X3.615Y-2.45
X3.625Y-4.6
X3.67Y-1.54
X3.7447Y-2.4422
X3.76Y-1.54
X3.765Y-1.6
X3.795Y-2.2675
X3.7975Y-2.4425
X3.805Y-1.565
X3.8125Y-4.6
X3.8125Y-4.675
X3.865Y-1.565
X3.875Y-5.17
X3.9091Y-1.5341
X4.055Y-0.885
X4.25Y-3.14
X4.2997Y-3.1359
X4.325Y-2.795
X4.325Y-2.85
X4.325Y-2.95
X4.325Y-3.05
X4.3875Y-3.725
X4.3875Y-3.825
X4.3875Y-4.025
X4.3875Y-4.125
X4.39Y-4.325
X4.39Y-4.425
X4.39Y-4.625
X4.39Y-4.725
X4.39Y-4.925
X4.39Y-5.025
X4.39Y-5.225
X4.39Y-5.325
X4.5875Y-3.44
X4.64Y-3.435
X4.655Y-2.56
X4.655Y-2.66
X4.6875Y-3.13
X4.73Y-3.13
X4.7425Y-2.76
X4.7725Y-3.13
X4.8125Y-2.525
X4.815Y-3.13
X4.85Y-3.2525
X4.855Y-4.325
X4.855Y-4.425
X4.8575Y-2.4875
X4.8575Y-2.595
X4.875Y-2.79
X4.88Y-3.6475
X4.885Y-2.565
X4.905Y-0.87
X4.905Y-1.275
X4.905Y-2.335
X4.9325Y-3.225
X4.9325Y-3.2725
X4.9325Y-3.3175
X4.945Y-0.975
X4.9475Y-1.175
X4.9475Y-2.335
X4.95Y-4.215
X4.965Y-2.405
X4.985Y-2.675
X4.99Y-1.475
X4.99Y-2.335
X4.9925Y-2.44
X5.03Y-1.575
X5.03Y-2.3325
X5.07Y-1.875
X5.095Y-2.33
X5.11Y-3.725
X5.11Y-3.82
X5.11Y-4.07
X5.11Y-4.12
X5.11Y-4.32
X5.11Y-4.42
X5.11Y-4.625
X5.11Y-4.725
X5.12Y-2.8125
X5.12Y-3.225
X5.12Y-3.3174
X5.12Y-3.2725
X5.13Y-2.35
X5.135Y-3.5275
X5.135Y-3.5675
X5.1475Y-2.8525
X5.1625Y-2.9825
X5.21Y-3.96
X5.2225Y-3.5275
X5.2225Y-3.5725
X5.2298Y-2.4848
X5.2585Y-2.5127
X5.26Y-3.905
X5.2825Y-3.015
X5.2825Y-3.06
X5.315Y-3.85
X5.3425Y-2.7225
X5.3425Y-2.765
X5.35Y-2.385
X5.35Y-2.425
X5.3525Y-2.9375
X5.365Y-2.245
X5.365Y-3.045
X5.385Y-2.405
X5.385Y-2.895
X5.385Y-3.0
X5.4225Y-2.88
X5.435Y-2.3825
X5.4775Y-2.3825
X5.5175Y-2.38
X5.5225Y-2.845
X5.555Y-2.28
X5.5575Y-2.325
X5.56Y-2.8125
X5.56Y-3.025
X5.595Y-2.545
X5.65Y-2.545
X5.66Y-5.3075
X5.665Y-2.725
X5.78Y-2.775
X5.78Y-2.85
X5.82Y-4.75
X6.085Y-1.1
X6.085Y-1.2
X6.085Y-1.45
X6.085Y-1.55
X6.0975Y-2.05
X6.0975Y-2.1525
X6.1Y-1.75
X6.1Y-1.85
X6.105Y-3.325
X6.13Y-2.725
X6.13Y-2.775
X6.22Y-4.75
X6.47Y-2.625
X6.47Y-2.725
X6.49Y-3.325
X6.5375Y-0.95
X6.5375Y-1.025
X6.5375Y-1.275
X6.54Y-1.35
X6.59Y-4.75
X6.6225Y-2.625
X6.705Y-5.43
X6.7125Y-2.05
X6.7125Y-2.15
X6.7125Y-3.225
X6.715Y-3.8
X6.715Y-3.9
X6.7425Y-1.025
X6.7425Y-1.275
X6.775Y-5.43
X6.845Y-5.43
X6.97Y-4.75
X7.3Y-3.6
X7.73Y-3.975
X7.91Y-3.975
X7.935Y-3.305
X7.975Y-3.575
X7.98Y-3.375
X7.98Y-3.475
X7.98Y-4.985
X8.035Y-4.985
X8.085Y-4.985
X8.13Y-4.985
X8.18Y-4.985
X8.225Y-4.985
X8.4225Y-3.575
X8.425Y-3.375
X8.425Y-3.475
X8.4325Y-3.275
X8.6475Y-4.575
X8.6525Y-4.5
X8.66Y-4.35
X8.66Y-4.425
X8.6625Y-4.275
X8.6725Y-4.2
X8.685Y-4.125
X8.7Y-4.05
T2
X4.525Y-2.8
X4.5998Y-2.8
T5
X2.6705Y-5.0
X3.7295Y-4.95
X3.7295Y-5.05
T6
X2.125Y-2.975
X2.125Y-3.075
X2.125Y-3.175
X2.125Y-3.275
X2.125Y-4.025
X2.125Y-4.225
X2.125Y-4.45
X2.125Y-4.55
X2.125Y-4.8
X2.125Y-5.15
X2.125Y-5.35
X2.95Y-1.275
X2.95Y-2.3
X2.95Y-2.45
X2.95Y-4.15
X3.0Y-2.975
X3.0Y-3.275
X3.1Y-2.225
X3.1Y-2.375
X3.725Y-3.125
X4.0Y-1.775
X4.0Y-1.925
X4.025Y-4.075
X4.025Y-4.375
X4.175Y-0.875
X4.175Y-1.175
X4.175Y-1.475
X4.35Y-0.975
X4.35Y-1.275
X4.35Y-1.575
X4.35Y-1.875
X5.2Y-4.925
X5.2Y-5.225
X5.275Y-1.675
X5.4Y-5.025
X5.4Y-5.325
X5.6Y-4.175
X5.6Y-4.275
X5.6Y-4.375
X5.6Y-4.475
X5.975Y-1.075
X5.975Y-1.225
X6.65Y-2.45
X6.65Y-2.925
X6.825Y-2.325
X6.825Y-3.025
X6.825Y-3.225
X6.975Y-1.425
X6.975Y-1.575
X6.975Y-1.725
X6.975Y-1.875
X7.0Y-2.45
X7.0Y-2.925
X7.0Y-3.775
X7.0Y-3.925
X7.15Y-2.025
X7.15Y-2.175
X7.775Y-3.325
X7.875Y-1.6
X7.875Y-2.675
X8.025Y-5.175
X8.2Y-4.05
X8.2Y-4.2
X8.2Y-4.35
X8.2Y-4.5
X8.35Y-4.125
X8.35Y-4.275
X8.35Y-4.425
X8.35Y-4.575
X8.575Y-3.925
X8.6593Y-5.1407
X8.73Y-5.07
X8.8007Y-4.9993
X8.8714Y-4.9286
X8.9422Y-4.8578
X9.0129Y-4.7871
X9.0836Y-4.7164
X9.1543Y-4.6457
X9.225Y-4.575
X9.25Y-1.75
X9.3207Y-1.8207
X9.3843Y-4.4157
X9.3914Y-1.8914
X9.455Y-4.345
X9.4621Y-1.9621
X9.5257Y-4.2743
X9.5328Y-2.0328
X9.5964Y-4.2036
X9.6036Y-2.1036
X9.6672Y-4.1328
X9.7379Y-4.0621
X9.75Y-2.25
X9.8086Y-3.9914
X9.8207Y-2.3207
X9.8793Y-3.9207
X9.8914Y-2.3914
X9.95Y-3.85
X9.9621Y-2.4621
T7
X2.1Y-2.1478
X2.1Y-2.325
X2.1Y-2.4978
X2.1Y-2.675
X2.3559Y-2.1478
X2.3559Y-2.325
X2.3559Y-2.4978
X2.3559Y-2.675
X5.6436Y-4.8941
X5.6436Y-5.15
X5.8208Y-4.8941
X5.8208Y-5.15
X6.025Y-4.8941
X6.025Y-5.15
X6.2022Y-4.8941
X6.2022Y-5.15
X6.4Y-4.8941
X6.4Y-5.15
X6.5772Y-4.8941
X6.5772Y-5.15
X6.775Y-4.8941
X6.775Y-5.15
X6.9522Y-4.8941
X6.9522Y-5.15
X7.275Y-4.225
X7.275Y-4.3234
X7.275Y-4.4219
X7.3Y-4.8941
X7.3Y-5.15
X7.4772Y-4.8941
X7.4772Y-5.15
X7.675Y-4.8941
X7.675Y-5.15
X7.8459Y-4.225
X7.8459Y-4.4219
X7.8522Y-4.8941
X7.8522Y-5.15
T8
X2.1018Y-0.9268
X2.1018Y-1.1732
X2.1018Y-1.5018
X2.1018Y-1.7482
X2.225Y-1.05
X2.225Y-1.625
X2.3482Y-0.9268
X2.3482Y-1.1732
X2.3482Y-1.5018
X2.3482Y-1.7482
X8.2509Y-1.1417
X8.4252Y-0.9675
X8.4252Y-1.1417
X8.4252Y-1.316
X8.5995Y-1.1417
X8.6053Y-1.4961
X8.7795Y-1.3218
X8.7795Y-1.4961
X8.7795Y-1.6703
X8.9538Y-1.4961
T9
X7.5703Y-4.103
X7.5703Y-4.5439
T10
X2.5591Y-5.315
X2.9528Y-0.9843
X7.874Y-0.9843
X8.2677Y-5.315
T3
G00X2.0888Y-3.5106
M15
G01X2.0612Y-3.5106
M16
G05
G00X2.0888Y-3.8394
M15
G01X2.0612Y-3.8394
M16
G05
T4
G00X2.197Y-3.5874
M15
G01X2.1892Y-3.5874
M16
G05
G00X2.197Y-3.7626
M15
G01X2.1892Y-3.7626
M16
G05
T0
M30
